<mxfile host="app.diagrams.net" modified="2023-09-12T12:45:05.450Z" agent="Mozilla/5.0 (Windows NT 10.0; Win64; x64) AppleWebKit/537.36 (KHTML, like Gecko) Chrome/116.0.0.0 Safari/537.36" etag="KCJFjHxC8VHQk7t7uym3" version="21.7.4" type="github">
  <diagram name="Page-1" id="mP06hnCFdl4_du_M1Fy3">
    <mxGraphModel dx="1732" dy="400" grid="0" gridSize="10" guides="1" tooltips="1" connect="1" arrows="1" fold="1" page="0" pageScale="1" pageWidth="1100" pageHeight="850" background="#FFB570" math="0" shadow="0">
      <root>
        <mxCell id="0" />
        <mxCell id="1" parent="0" />
        <mxCell id="vqdaA2ue3KJg4ac-L1NZ-1" value="" style="shape=image;verticalLabelPosition=bottom;labelBackgroundColor=none;verticalAlign=top;aspect=fixed;imageAspect=0;image=data:image/png,iVBORw0KGgoAAAANSUhEUgAAA7MAAAF5CAYAAABN8n2UAAAAAXNSR0IArs4c6QAAAARnQU1BAACxjwv8YQUAAAAJcEhZcwAADsMAAA7DAcdvqGQAAAAhdEVYdENyZWF0aW9uIFRpbWUAMjAyMzowOToxMiAxNzo1MjoxOQUaa2wAAP94SURBVHhe7N0HfBRl+gfwH+nZ9L7pPZAASYAE6U2BEytFxX5iBbGAiuX0FM/DXg9RLHhW9MCCKPwB6b2mQBIgvW/aJtn0bBL+78y8u9kku8mmQQLP18/gO7M7mdnZ2XnfZ94yQ4aNiLkAQgghhBBCCCFkEDHh/yeEEEIIIYQQQgYNCmYJIYQQQgghhAw6FMwSQgghhBBCCBl0KJglhBBCCCGEEDLoUDBLCCGEEEIIIWTQoWCWEEIIIYQQQsigQ8EsIYQQQgghhJBBh4JZQgghhBBCCCGDDgWzhBBCCCGEEEIGHQpmCSGEEEIIIYQMOhTMEkIIIYQQQggZdCiYJYQQQgghhBAy6FAwSwghhBBCCCFk0KFglhBCCCGEEELIoEPBLCGEEEIIIYSQQYeCWUIIIYQQQgghgw4Fs4QQQgghhBBCBh0KZgkhhBBCCCGEDDoUzBJCCCGEEEIIGXQomCWkhxy8vbD2Lg9M5fOEkI5CwoOwbp4TIvg8IYQQQkhfGTJsRMwFniYD0fxo7JzuwWfaqk4+gJvW1PC5AWrylxg/y4/PtFWXuAbxG37lc4OLTO6B92/1hiNL1ySnYNFfddILnRkTgEUPhMJenCnGzuUJOG3EaoQMCAui8OTV7lK6NhM/PpUGhTRnGPudrOW/k8a8dKz8pRJp0iuEEEIIIb1GwexAR8HswCNzwJt3ByPAkqWV+VjzXRH2Sq90wQ0LPomGj5guxvbFCUgW010xgdsCP0yM9oKniw2EzUrUaFA3QlWmRNb+8zi4q4Uv78h+hidixvkg2L4Evz2XhRK+fHAwgfxmH0RGeSFMnY7Vq/p/792WTsCdw234nLG6851eTH10/HRvxtSm4vunjDuPhJrZl2c6woKlK04nYdnuBtRKLxFCCCGE9Ao1Mx7ofo7H1Uu36UxxyOEvDQr778fhl2bqTNug5C8NTpZ4/lYeyDaU4QejA9keCnTBte9Ow51XhyKgTSArMIeluQ3c5L4YGmHFl+nnM24EIn0dYWPOFwwqVoiYPBQRcjuY8SWkOy7t8UtLycAXp6Xw1XHkULwcbiqmCSGEEEJ6i4JZQrph6vRAREtVU4jflI1N4tIeqK3sulbLWoYZS0djqEwo/DdDpUjFgV8PY917e6Xp02PYvu8ckhUVUNUZrpUl3Vey4VjrcdZOZ1DIX4fijJ7Xk3COv3zZK6vpVu3+3t1pOCjexTJDwBR/3CsTFxNCCCGE9AoFs4QYy8kVC0ZKpfCa05n4sMsOg+3VQNmN9pWWNw9FpLg5NfL27cO6lVk4sb0aqtRGaUqoRPL6HGxfeRwbv6wX1yF9pKip9ThrpyY085eh7uL1y9HJGqh4svua8NGfOSgWkpaOuGa6LSieJYQQQkhvUTBLiJFun+AFcfibpjLsuAj9/oIDXXmqnAWtTTxNyCBVXootyQ1i0iLYB0ucxCQhhBBCSI9d3AGg7Kyw4u4wxAa4wlmm6bzXjEZVOdKSz+Pnn6uwx8Dorh6hdlhyYwSifexga67pc9WAakUh4vdkYs2BRhTxpbpWPDcbs31aB0uaNtMf904PhJ89732oroYyLx1fr1Hgj85GlhX3fRgmhjqz7et2PGxAY20dFCnJuO+rKr6so+DR7lgyJxgRLjaw0Oy/sO2iAhzfno23ThnbTNQdX60eBWFIpe4MAOXhYYMH7xqBWN3jJ372TGz7vQBfpEqL+t/TGPqv2XBmqe4MADUk4Gl4zpoIT7ktO37Ssha2/zXsu8vf9QnKs9KlhfpYzYL9tbfBL1QOGzuLTu/gKLfPxLn9fEaXhRPeeyQQ3ixZcSIRDx/qSXApw4x3J0q1rbnx+KCLgXgiXpiJWb5CqhR7X4lDnL4T3IDWdY1Vg8QvDmHXST6rYW0C+WQfRI73gD87d220534zmtS1UJxPx95vSlBioMpOux+azxtqi5ibwzEqyBHS8ErNqCkrwJFfz+P0Sc1vQOc4Ge1iDL6kM4CXEd9fKxPYz/LBrBkBkDtY8n6rzWioLMO5E+ewd2N9FzW60gBgU2P8dNYXsL+hroeqLAd7V+Yhjy/tv+PX+vlVSQexbnUPbuc4uWHt3b7dGwVcZAaf6x7BPRP9YQ0VUn9bjW+OlfPXCCGEEHKlumg1s7EsEN30+lTMjvDUCWQFprCwd0XEuAm4dw5f1M71d0Xjv09MwKRAR51AVmAJW3kAJi2cjs+eckEsX6qfGZ58agpeumlYayArMLeFc2AUlj3HCpt8UXseVwVig7jvHu0CWYElLGSO8POw5vPtmWHJE+Px2aJRiJbbtwayAmHbPmGYvWgaNtxnA/1jFvde7LShWP3SJExvf/zEzz4Stz8xBWtvHKhD68TA9o6fMPb+2fD3bQ1kBSZs/+3Ydzfs/o8QccNcvrQdx6cRuvwZDB/tB7suAtnORMS4i4Gs0Fc2NaWntaS12PXUDnywmE1GBEKFZZqbI64Yd78H7A2dYv3I7f5xWDhXGDxIGDyq7e/WzNwOPsOjcedrUYgI5IsNYgHdzcPx4PLxmKQNZAWmsHHxxdUPjMWMcXzR5cTaCqNenoRF7Bj6tAlETWHp4I7Iqyfjodd8IDf03VrLMPUNaQCwtusL2N8QBwBz4Y976m8l2Cicu2zqUSArKC/Fcd7x2CbMHTdJya7ZzsSNYiArsEfozfdipq04QwghhJAr2EWpmfWYGYH/3uQrPppBqE2oVqTj+IFCHMhvAZxtMIkFuFHhXqg++hfu+1l8k1bs/Gi8Ot1DWlddgbTE89h9oAYKFkRGT/LFxEhfOPMydnXCAdz0eduaSk3NbKs6KJLPYvOOClR7u2L+nJHw4/0S07bvwsO/i2/S4YC1749DiLANtUrc/vGTVUgTKxTYPoxmQajcHX7qfNy5pkxY2Ma8JePxaAQvatYWIf5kJnafqkO1tTUmTQpErBAgiy+qkbN7D/v8XdXQdrNmdnQgNi0Kk7ZRW4jdPydj/dEmpFubYNYkf9w7Jwxy8fhV4NjHR/F8ipDuT92pmfWA1S2fYlSkdIRaqnKQG3cIZafT0WIVDPvYCfCN9OMF3EaUbnkeqYcTxTnJLHiwQDZIbM5YjdJ9PyJj/09orvfAEJ+F8Jw3C/5uwpmlb11dQ7D4llGY5smSyhys/K704jx+xcMFN/9jNAI0MaRaieR9Kdj7Zy0auqjQMvWxgI1OgBR2x1RMkrNEbTY2f6rvkSotaMhr6vB3xUfUhLWgMFeB9MxyZCfUQWgoaunrhFEzWJDrwm8MKRLxycoi8TVd2ppZtRoNLBi2ZL9/lSIDx/crkJ1rBp/rh2JqmDNbzuj8DctAC1hqIzcbjHskBhHC71QYeOmHjr8zYf9r+r3PandrZk0Q9sIUzPEVLx4oSUrAlg3lKC8Svh9bRNwTiat9pbC+IeMEPnm7Y02j/zPTMDdIWl+ZkYETJ4uRlytdI2SBTnDzdUCwTwuSV6bhvLhUMjCPn8QrOhjvT3FgKTWSfj6NV/Ol5Z0KvBMrHoyGHZ8FVDj1+b/wayafJYQQQsgVydTV3esVnu4f1kLzzAi4iRWCKsT/eAD3fVeOfVlNyFI2Iyu/HvviS7BhRwaOZAE1upVebN2X7xsqrVubj82r4/DinnqcEdZTNuKIsN45JSZGe4sBrYVcBr+ThdinE99NnBSCEE21BQsGjv1wGEt+qxH/xvmsKmxKrcMNEzxYQGQK25ZSfH+0XXF8tBcejHERg2nFIRZsfleHU0XC9vk+JFVj59Ei/HJcT3QR7oNXr/OVgq2ys3j/tXNYHd+A88K6RQ3Yd1yB3SyAmD7GVdy+g4cpGneU4Yy4siE2uHmOJwuxWQhWkoMfj6ulxXqZYeUjsQgRCrG1WVj/cjI+yGqBWGRuuoD0jAr8cq4Os9nnt4UVvN2U+OZwfw8kNAGuM0LEY9JUdFy8sWCQ/B8YdkOgFOiUH0fcB0+gIi0OzdVZaKmIQ13y71CkhsMxxpu9xxQyHz8o929lRWQuYDFCJ8ghhAI1pz5Eyp+/44J4frETRHUUVSetYXbVCNiZs3UdbZF/dI/woh72uOUaZ7FpZGNmIT7L6OyY96GaOpxNq4RblKd0w8bUGm5Bfoid7YPgiEaUl1RDZeA5RxdUzWhg55lmcpwYjGAxfijBifVlKNd5TZpa0Kynwrn2bD6O/JaLpEMVKEhuQC1/f21mDdJ35aNhfCAChPPLdgjK/yzqECS7TebbNTVlZ2MVkjccxsb/KlGcyQJn9vspOVKI2ij+HstmKLaWiOdnc4XuvpnAf7YfPIRjUF6AvZuqdF7TTC3o//4SNoi4Xi7VgqoUOLK/i9rJGaGYN95ZvHYUHt6H9Z/Xop5fmy6oGlG8Pxd5YV6IcDGHmZMMpucLkNvm+5RhzPwA6XMrkrB2VQFKxOMmfebq9BoUx5Xh7F4l2oenA/P4SaoaLDAzyp5dcdiFvbYEW3lw3qmKMthHjgeP/aHO2Ymf/soCDXtGCCGEXNn6vZlx1I1BUq0mozx5Ek8dMFxwKWoXD3rM8efrqpF24AwLxMTFbWWV458HNLf2XRE+jSc7EALp43j+KJ/VyKpEDi+TWljrND/W0Cng28rtEMzTxpg33V+sgRS2fezHbL19cosSs/F5Au9wKPNA7FVSsk+Ee7OCspRUJKbiC321eVkFOJjJgzMfdzwgpQYEq8nhvCZGicwfXkCDvta9eS/g3CkeAVj7wjVESop8nXitbTVK47aLqTaavkRlKU9b2UpBsz5O1mIgK6go1XcQ+1FqGTa/uBcbDxews0jDkgW1I7Bg+QwsetkPwaF8cX9QdRZoNCH5vOYA2kA+hif1URdj53tHsH1Xxy+xRMUjPHMzw9/BIBQ2xosdFUadjYPf6Dt52en7RxZ/7rIjfMa3vxy3oFlz38TeDj4Xpy1x/yuvRwVPOjp1/nzkVgXY+p9X8fVvu7Dvt0/w1qe7tX+DEEIIIVeufg9mJ/oIVS6CIiT82MjTxrnBRxNClCK9Q/PfVkU7SqF5SoqtS2tvvDby0vFU+0DWGIn5SObVHrahE/DZW9F4d74dYlvbuxlggigP3qlLpcDBTprvbk8sZeGWwBryADHRJzwinbTBtCLRcFCiqOO10ea28O2vjrvdFgk7T378qnJR3sljcNSnc3kNjS2sPXU+QGG5drnrKD09os3uh4NmwOD66g5NZLVM2aHhydqGizdemlZdI/K+ScK6xTuxbsMZnCvT7Kkp7OVDccPycZh6ifqbNtQaUasmUFdCYWCQsZLVh6R+xP0+gNPFJIOP1H6f/cDKdAZnaie1dVRsZ5f2F5V6JKbykE0WiAVvTsCCpW6Q+1y0oQ76CQtm+Z0ZC0udPvxdaapC2rGt2HEsg2pkCSGEECLq51KRCTzseYGuthLJ3azUctbUlNayQoyU0q+uCgpeIrS1NxDM9lgjnv/qCJJVvDeZzAPR0yfgjdevwdZVY/CfuxwwS29gaw1bTZ9FVQ3+4Em9Eqt4MNtJMN4DE7V/yx7RD83GztX6p0cjeNAIK9hKoxwNAMEw11TaVCgMB5qCLKU2ILCWT+ApJm07Cng3RJvRixE68zaYin9T6DP7BLyWzIMn/46Ucb9ctGaWPdcC1a5CbH1xHz547wQStUGtHUbdMRJh/XQjwnSMG2a8EIsHP5qGJz+Z2Xa6WnxYEenABs5iX3zGd3TH46adeB9cxtJaGlVAV/mXcfj1vGYgMBtxwK2F/7gaT340Drct84R/xGAPbAkhhBBCeq6fS0IWsNVUaQ1mWZV47IW/8K8fExCvULHwVqAZhXkcnn19ItbeaNFvoxFfPE1oNPx0oUFoO4qPK1gIKLCF65QHMPYfOzD+X99h3MPX88GfgJqUX5C239DgTwNUajl2saD2xyT+hZnLMe76jsFQb8kfHofHHohGpG/70YxJX2tS62uK3ITs94/gg/cOY2dSMZRqflPN3A6eYSMw97FpWPSMyyUZ6ZoQQggh5FLr52C2HkWajn7mNhAGU+0RmR10u0J2YG0HOa8Fqdb0v+sHew4o8NRrh3Ht0h147ttjOJanrU9FyKxYrBjNZ0Ws0Kkpm9rb4Hqe1CvSjv0FibKo7/ZfWafZgQoc+3Abrl7a1XQUz1+05812RadJuqO8876UAc7QVILVKXRGR7Z9GiHT5ewkb0R5ahqqqhp5YMuoG1FXkoa07/+NxB8+MXoUV5nlEJ4aGBQbssGfdAJnD02T/j4yOQw3RPNmB7UK7Px6Nz5Zzh8tpJl2Fkuvk3aa0MD7uzZlnGh7zAxMq/WMZqyVWo3TqxPwzeO78J9/H8bmE5o+1KawDxqNBfdrfgGDgSUcef/fRtVFGkyNEEIIIZelfm+jlqbiAZ+5O6JulJLGOlakGeLDFcGdrBt1ozcPlNVQpPZfMNuqBcePluP5Nw7ijo1ZPOxiAe0Y3cFM6pFexgtq9nJMDJeS+iwc58mD2Qrh6SR9Zk9mBd83R8gjxUQvWWHYdUux/KVXsfyRWzFK06W5X/yJas3YQna+cOrkTohsbDjbM4ESFTrBuPn0WLgKlYlVKcj6ZjHOvHUdjr40E4eF6dXrEP/RYpScNTSCsY7SOu0ovY6uA7cKrKHOmD7pZkIXYKPIo9ylAYzYcT2w+jROH+n46J6LznywNKutRB6/kWcmd4CblOwTzXnVSP8yCeuWH0Myb19v7+MO8QlUXRkIx8/OQnvzqVsDqll5YeSEazE+0ov/3gkhhBBypev3ks0vu/P4aJ3mCJkejRWdDHDk0S5O2HMgv3XdcaFYqK9vaoA7nhzHR/GpzcfuHVLyYilKqeL7yJi3DRPWJCp4MGmP6JvkmKYnDvK4KhC3h/IXFNn4sS9rRvcUII0Xdv0mdX7sBe2Pf3u2sx/BnRP94WRtDSe/WMx7cF7Pa9uNoIpL45XbzvC98QVhsNuOQt5BSDhvXluYgGKdgaJsPKXhr3qvFvn8S7bwsYNOr9xLTn5LIITH3wo3cvIyK8WUPkoVDxpk7ogwcrAoe23b1RY0azol6zAd44Gbx1+MPrO1KNG08HCRY2QgTw9oLUhO4ndjZKG4YWkXNadd/Pb0qqtCiSYWNBduUxgysI6fzN8e0llTj4I8Y3uqe+GGx5bh1utnYM7CZVjxyHTtCOOEEEIIuXL1/3NmSyvhFu6PCCcW6JnaImSCHNMDmhFo0gArmSkCfGxx65wALLljFKbLMrBJd9RfpQrNAXKMFfo2WjphzFRXTPSqhW1NC1xdZLj5pjA8vyCMP8NWjbQtJ/BGhrimlvY5syoFvjmgr9bWArNn+kEceFTPe+Y9eBXeuMkNE1kBcIzbEJiwbQW4sP0Wtj/HGw/PHQpvsbajGsmb07Fd0+ZTkFGOwNG+CLQ1ham9HFMn2SHKuQ4WjRfgxT73XQsj8fh0H16OrcCxr8/he01tJBfsbYEoubA9zWSLseOE58ICjRUKKJQtra9ZX0BWlW7hsBGlzna4xp+9mx/72aEmCLFugDnb5wAXc1wz3R13zgnDo7cOx0TLdse/natmzpeeB6ph3YKKnceQw2f1GeI4DeaOAWzzmikMzmP9xM/crMxFWYlt62tmpmip12lqqShCQ/g1EAZ5NXEIhHzMNFyQuaGx1gEmrlfDac5yRFwjPbNWqD3M+OYJVGtafjMX/ObB01M4d+RwGRmLJvtRsA6eDJmLF5pa3PRvU68WmLo4YZwHCxcszWB6vhSH+n04VTfc/MlojImRwc3fFNYuzWgwM4El+54tXazhM1uOcXdFYZovj4IqM7B1dYV2IKz2qi2tMHKkIzvbLeARLYdcXo2K6haYiH9PmIaw4Kjts2bVYS4Y5SXUgcngOdIMDahBvZkZ5DO8MOGOKMyZ5A1HbTdaNYpO5SJT9/xntM+ZVStxervh/etKpZcDYv1ZQGhqg6CxTrB3rIWq4QLMdPa/qd+fldq958w2p6sgmyw939XS3Q+jJtvA3kuNulp+3MPsETbbD1Pmh2PGDBNk/tXu+Izxw51Ph2HocHbOBZrApKH1+3KKccfYu0biKnfpRo7q/FkcPGa4ye7AOH6SOyYFIlQ4iA1K/N9+VeeD+2nFYNr1oeLztQWmDuwamLEPyfR8HkIIIeSKNmTYiJj+L79YW+DJJeNwQ2Dn1Q85u7fhvp/5jJYZVjw3CbN9Ous12YCc/Yfw3E+NKOJLNFY8N5utyxJ5cbj6DX39+2zw7luTEC1UnOh5z7wlE3VG+zWkAYojR7D8u/oO24c1+/svjUe0fdta27aEZ+Ae1fsMXu3+G8PAZ5z34Hg8GtX1Qyr1H/9W8vnP49ExOrWddWfw/b++xlk+q4/TQzswzJfPdCV3Gw5/9g6f4czmwuvxJfDvtA2lEtnfv4CCs+l8nrNdjMDH50He+WnHAq1qlKdsR/qvn0DvGDwCJzesvdtXrA2qSU7Bor/6u72tGxbojHTbmYayc9j8Vo62Wat+Zoh4YQJm+Rr6HdUg8YtD2HWSzwqsHTDrtbGIMFip2ICS3CrY+7rCUt/6TMQLM9k2WaI2Fd8/laVtrt1t1jJMfXkcRjkY+h0VY3u/P9pH5zvJjccHq4z4NIFuuHlZNAK0Qb8Blan4+rkstLmtMiYAix4IlYLnTjQozuDHtwpR3tkpOSCOH2PhhPceCYQwaHr3fkdOuHbZC5ig01479/+ewWf7+AwhhBBCrkj9XzMraGrGkcPZSCirgoeHDZyF2i1TTQtnNarLipF8NAFrt6hR1CGYaMHBA1nIUdXB29MGtjKL1j5/ahUUGeex+bvTeHlfMytOd9TbmlkLmwsIdraAhTDwj6luf8NmNLIgqIRv/8U9TXq3jyY1tu/MgtK6Gd4utrAWPrv4Alu/VoX81BSse+8cVqfpv6eg3X9jGPiMKafycFBRBV834XFB5rDQHnudz/BjIjuGnd/XqE4tge3QcHjbsYNVl49jP36JQ8rOnzNqPeYeuBo7LpEqHXknD/EZruUsqg4fQkm9LyxdnWFubaptG99UpYTy3D6c/WI5KhR6aldb2DpRUXCykY54Y10jmtm52My+AVPdMr2pBaw9wuEe7IHC9tvXqK+D3M8TwXZCedwcNgnlSDB21KgeYeeTfAisTUzZOcNm2bnX2iegmZ1WdSgryMaRP8/gz/8qoer02UWCFpTsz0W6vSncHK1hbaX79wR6alabGpB+pAA1wQ7wsG09b5rUNSjLPo+tXyXhYJ4VIke7sGC2f2tmhd9R9sF8lHhYwdneEjbtmvQLwXj6n0U9D5aN0r2aWVFFLc7uyUOe/RA42bc77uoG1FSU4uzhBPzyeQmq21/7Wi5A5seOO7tmmGEIzLS/W4atqyzJx8nfE/D7N5WoN3QTRmNAHD/gmunBmOYmNIiuwfH/U+Co0S0c6pF2tgnhY0Nhx3ddlbYDJ7OlNCGEEEKuTBenZpaQiy4Sjg+9jnBfoRlmNfK/fxo57WtuEQzTYbchZN50OIu1t0pkfHwbinT63bbh6oF1d3iLgyLVJJ/F0r9qex6cEXKlkTnjPw8EiP1le/b7McPkpa9jlpeQViHx839hQ6b4AiGEEEKuUG0rZwi5XMgXwkcMZIHGlD/0BLKCdDSfXYW0OM0QXhYw7WyY1NIibEiWqkBtIgLxtNBWkhBiBFMsvk4KZIW+snv39eBGkFkMQjXNjKsycJwCWUIIIeSKR8EsuTxZWWhHd21Ra8eb1sMDdtpRj6uhbjcAV3tb/0pDvNg31RLDrw/CvV0MUksIAaZOD8U0cdjtJqTuyMLXxjxFSsPMDj6RN+Kh5+cjUOx7rEbmzp+QJb5ICCGEkCvZxekzS8jFVhEMm8nhELrLmnmEw9rKFjUVzWiu5UN0mUXCNOxueN66BCG8BrcpcztSj54Q04Y145SiBdOG28PKzAqhIS0oia8Bdd0jRL+Q8CAsH28njhVQcToFL8Y1s3DUOAG3vYSnbp+FmBH+cBADWRVSf/sA/z1GDfwJIYQQQn1myWXMNPYTRN4Ygs5aDms0Fh7Emc9eQUNXA+lwMrkH3r/VWxrd+Px5PPt/1f0+eA4hg47OKOCN2elYuanSyEfxSIRg9v4oe6jrlFCc34/tmw4gq98fi0UIIYSQwYKCWXJ5s50Lp2uvh3egHNZ2rU2PBU111ahTpCN/1ycoz9LXp7ZzIX4+eGJiPTauL8VevowQ0lbEiAA8EVyOt7sZyBJCCCGEdIWCWUIIIYQQQgghgw4NAEUIIYQQQgghZNChYJYQQgghhBBCyKBDwSwhhBBCCCGEkEGHgllCCCGEEEIIIYMOBbOEEEIIIYQQQgYdCmYJIYQQQgghhAw6FMwSQgghhBBCCBl0KJglhBBCCCGEEDLoUDBLCCGEEEIIIWTQoWCWEEIIIYQQQsigQ8EsIYQQQgghhJBBh4JZQgghhBBCCCGDDgWz5Irl4O2FtXd5YCqf7y57++fx/uTnMZHPGzYVyyavxTJ7Bz5PCLmyReDumHV4xSOEzxNC+t4VnvfKHPDm34PwgB2fJ+QyNWTYiJgLPE0uApMxD8FnTjAsq9KR+/VnqC/nL5CLSib3wPu3esORpWuSU7DorzrpBSNZ2zyPVdOjIWSRtRmfY2nyX9ILHbhh4ajVmOUtpCtwevcyvF9TK75CSP+ywbtvTUK0jM+2UYRtS+PxFp8bkALeQfT9UbDms23kbsPhz97hM4NNCBbGvIxZcgugOR8HdizHuib+UiciXpiJWb5SuibpID5fTdeRK4cZ/JeOxKwwa6jOJ2Hz6kpcUd/+mAAseiAU9uJMMXYuT8DpLrPsKz3vtcTTfx+OWOGgNVRgy7cZ+JouGeQydeUEs7axsJkZC5eh/lAfeRaFe/hyg6Lh/NI98OnuHa3svUj8eBOfacd2Afz+OUEMoATN6X8gae0uPkc65TkFDtNj4TzUDpVfvwJlBl/eE8LdyruDEWDJ0sp8rPmuCHulV4xjdi9euXoO/MxZuvI4vtz/Dg5Krxgg3B1egpFC5KvOwvadz+JHIwqvhPQOBbMDjwwTg9/H/eFCLtCInOMr8UpRmvRSF9yWTsCdw23EtIoFs+uMDWatLRB8TzgmDneBs7mptExdg5LcTOz9rRB5qdIi0k8iHBAzww9DA62Q98Nx7D3Jl3eD5e2jsHiKK59TI/3XPdi8nc9eEdyw4JNo+IjpYmxfnIBkMd2VwZ/3RgS54YEJcng7CwUOQRNqSspxfF8hvs5v6vymhm5ZR8XKOv/tZlmHkEHiymlm7D4K8vEhcGQXhEv2oe2swYsSoiFm1PbDaENj4R/tzQ6h5oLeU5Z4/lZ+cW8oww/dDWSFzHE8D2TVqdjYZSAr2Iv3D29BjpolzQMwa7wxTZMJ6a0aPLViG65e2jp9nFzNXxsEsp5G/EszcVg7rUF2FX9tkAryeBn3iIEsUJr4jtGBbI9FeWLBm1NxQ7R7ayArMLeBW9AILFg+DjMmU2+jfhURgEnD5XCTmbfJ/7vDUmbGUwL2d6QqStKlwZz3WmDxvJF4+XpfnUBWYAYbNzdMmz8C70+3FluHGVRbiZWb8lEhpO298cA8B1DHBnI5olzMoLMo//RjnHm/3bS/iL8OVOzX8/oPndS0Fm5A3mElGlmypU6J3B3bpOXkopk6PRDRYkGgFvGbsmGgDt0AoVblDukur9Bs6cAqbBGXG6Hpa7x5IhVCngqHaCwInqq/xokQcnkyuxf3RAewUARQK7bg05wEaXkPqBRG1MpaO+GG+0fARywHN6DkfCJ+/XQv1n16DDvPK9kSgR0ibxmJkYHiDBmgVD8k4XiZ9I01lKXgyJ9i8srEArQSnjTKIM17b7puGKZJP140lhRjx29nsPKrM/jvrmIUi6eCCRxHhuLlEZ3fIqlVFGHNiRoxbeHjjwfDe3pLhZCBi4JZg+pxoSQdLYXtpqrWNirNVXpeL++s6qAe6l9fw9kVy3Hm5ddQeb6eLycXhZMrFoyU2lzWnM7EhwoxaTzLB3ATr1WpTfsBn3az/01d2SpsyhVuZbA8NXwB7hFqhwc8IYBfi/cjrkUQX0II6S4Z5gy/hrfoyMeB+K/R3Z4SJQqpQGosn0eGI1gsC6uRt/MQvn+/CNkJjVAlVOL0+yfxydepUAkvm7tj0gInIUUGqrpaHHxxHz5YvAOfvJgHRfeGeLgM1EDZi/6egy7v9fbBTcFSbXxjXjpWrs/DFzmNSK5qxNYzeXhsbRLixR+vGbwnsveK7zQs4VA6DiqFlBkCpnT9fkIGGwpmyRXj9glecBcSTWXYsbuhmwNoyDB/WCzEXkvqVOw+uxfdL0/UYkvSIZSKaXeMHnb7gL9D7OLxsti/zyHo73h2/OPUPJqQnrBcgpm+FmKy8vzX+La/++1Zu2BUoHR1aco4jY0b9WzwSBa2n5euYpZBfoigpiLksjW48t7bo50h9o5nZZUtv1SiY2eEBny4o5iF+IylCyaEiws70YQvdre+f84E3WbrhAx+F28AKKto2MybDY+hzpBZt/ZbbVGr0VRfheozO5H362G+VA+roZDdeDPkUR6QmUtRuLBubUE6irauR01GuxrRoIcQ/Mgw6YJgrM4Gb9KY9hQi54jD46Fsy3LkdzWQlM7726uJ/wbpP8TzufY0A1DlI33Fx6ib9BACrw2ADfvs9QVxyFz9LdSIhcPSm+HrZc2ORx2U+9cjb/MZvn47trGwvW02PIOcoel22qKuY8ftNAp+/w0NJV3UEgfdBOdrR8Hdyx4WuuvnZKN4h57jL2odRMvwZ70J3m9NhQtLtXlPJ8fNkE6Pp4UT3nskEMJfrDiRiIcPdbM0afIA/j1nJjxZsjJpFZZl9rSJIAuKo9biOrFgm4/d7Bz6tkV6ZWBywLTA13D7cHexeSRqU/HnwVX4uaEXt8l7aNokL8yf5o8QOTsH+TKoq6EsKsDx7dl465SBA2ltgQfmh2B2pDucZZpb8s1oVJUjLfk8fv65Cnv03ZmYH42d0z3YZz6Pj1dk4mCoE568bRiitdtXo7pMgeM/J+O1RHGBASa4fr4/5o/xh9zesnXfhX1gv6Hqsmz8/FoefuRLO+jp/usxb8lEPBphy1LdGQDKBLNm+uL26YHwY/svEbZfiuSTZ7Hm53qk86X9ay68ViyBvzDUQHcGgHK9H25zZsE7oPXaB3UjakrTUbjrF5Sc7ewi7oEhIffDf1YsXFxttdc+vaoSEPfW09B3JZ0WsQ73BLHcSM1+P9texM98ebcsiMKTVwu342qQ+MUh7OpsIKFZw7F0rhfM2DlqcLCgUBfc8MhoBIuNVfpxUKFQW8TcHI5RvnYs/9Jp4qhuQENtFdJPJGH7RqnWTC8PGUbeMxzjdNfv7gBWwj5cH4qIQCedvsNq1JSVIT0+FXs31rMzuo9ovyfj6RvQS3f06ra6+P41I//mxuOD9ysRtjQGs9i5Z8YCoMITJ/DTl2w743xw2y1h8JSxY1FbjL3fsHPXQJZmOc4DM64PRrCL8DcEzWgSvreEFBzcUA2VgWuPdv+F/VhV0noeBDnyclkzO/4FOPLreZw+2VUmKMOMdyciUjhXNX+v2wZL3muL15aEIZQd7Mb087j7T33jHJjh9uuG4uZg6Xps+H26zPD0XZGIdWbJmmJ8/mUeDD2DoT0z3xux6O+T4WvNLnPnf8Zn/z0i9cMlZIC4ODWzYfch6NV7EBztAVudQFZgYm4OCztnOHt1cvH3Wwif5x9GSAxbnxUmNOsL69r6D2NB64vwnxvLl15+hkQtQsiNUiArsPIaBZ8bYmHz8AL4i4GswBrOk2+GgxBttWMyZgmC/nk7gobqFOYYE3Nr2A0di6HPvATPcf58aXv+sLrnFYx4ZCp8/FsDWYG4fvDgOP4RMe5iICvcoU1N6X61yFCfKDGQFfrKphf0vK+bsP2fM1N5rbA3RvpEiKmBqxJ7Mh/DmweSWIqRheK6aW9i6cV8bp+1DV5fOQ0vLRyJCN1AVmBuC2efMMxe6I95fJEuj0gvfL9qOm4f56sTCApMYWHviohxE/DSyhF4MoAvNkB+4wh89sRYjG2zfXb9cfHF9IeuwuuG7oyzfX931Qwsmx4mBoJt9l3YB2H/5a7w40va66v97zFrK6x8cQqevWmYTiArELbvgejpU7F6pQ/mDchqDg9YXvstxjyxECGhba99MLeAjWc4Qu78B0YtesLAwDwesJr7EcbeOx2enl0Esp26CRN9peK7WpFkfD/79jYmiM1MP1jcRSDLuIU58MCjHFn7xUQbppMDcM9yTSArMGfr6B32uldkC0Zi8fLxmCQEMLqBrMDcEpYOrvCRG64lks0Iwz2vTMTV7dfXDmA1CTfc3Hktk/z+MdI+hLm2HQSLfWYbFzkirx6NqWP4osuKCXweGYs5YiArsIRnzHBMHOeGBXeES4GsQOaOqbf4oGNDczP4LxuHxfdGYqg2kBWYwkzmiKHjx2PRa8MR1mV/axPY3zwcD2rOA75U+Ds27Pp59QNjMWMcX2RQLXY9JZz7bOpRICsYJHmvqw28+MEuydYToJpa4/m7RmgDWYGFmw0m8LRhTfjhjJiLAzbOmGZ0vyE7TL9JCmTFubD5uGM2DV5KBhZTV3evV3i6n8yAfPlkOAnXTbUKxceOIP/PP1G4/ziKj6RDVV+FmhoTXKgtRuVpPbdYbW+C95MT4SL8btVK5G1aj+xvv0XRtkMoLrCESbAvbCxNYeU7DCZVB1CdxwOVqlxUJiawbQjbYVOOM+xGOIu1S8LATWm/8OW6U9wZXKjv5A6xIGACPEKloQTrUrehKktMGqbIRkl8nM522IVnvDes2EtqRQLKTxvquCmH9dQo2FtawzbcDZYtRcj+7n+ocB8BRztTtNh4w4kVsFoKjiHt+2KYxXiyv8muNk1xqDyv07cq6D4E/T0cQl1MS10+Mn/4DLk/bETR7jiUVbrCIsAVVuYsUw8PQ/2ZfWhoc+20gvkdjyEs0l4MmFuqipB/6C/k/7YTRQkFqDZzgpXclh1T6fib1SWiKke3X5fmM3T2WYfBfmYAhGJUm/e0P25N/nD3Fz5FHQp/+gzZOzTHs3WqOJ2JC436AtUhWDDODwHC9VdZiC+O1XZvAAl44aah8+En5MLlJ/FN5lGUSS/0TIMMI/yi4coyLNkQ4Gj+CfTHGLP2ZhEIMHdj2zFucrhQg/IL4jAZHZTX78W+XDeM9gqAnaUNPP1nY1T1ORytKmFZZH+ywMqXJmG8C48k1BVIi0/EzxvOY8vRHBTUVaGZBYxy0yoc31mBFOldkgB3rH4kCt7iqg1QZqbhrz9O4397snC+qAEOXnZwtmRfgrk9ho5oQXX79SPkuDeQnXPmLogIloLYasV57P41EeuPFsHUw4UFeMIft4K3WwW2Ha6TmnHpWPLEZMwQC+tqtv1U7NuZhPU7MrHvqLAPKqhq6mFq0oiCfUqwS0Nbvd1/PcJj/TDWTfgkNUjfouhiJG4TrHia7b+X8H62/8kn8dGnZ/DyhnQcTCiGbaATAu0tYMoKw9GhSvx1uL7D5+9b4bCbGAtHIS9QpSPv5CFpsQGmkz9C9DRv8ZqPOiUUcTuR/tsG5B0/z0I8e1g7O8OSvWjmFAZHx2oUnT0rrqcV+w5GsfWFrKupJAEp372N9E3vIO9wCpRg6/jzgFGokX3tbmQd3K7/t+B4G+4KdGd/pxFZya9il5G16L0RcM0wBAv3m2oLcPjPCl6Al9jfPhL3Xe/PiqhMrZJ9FmtYsw9p2VCKI/v7cOdCfXDrnYHSs0FZ/p54IgW7N6Ti2OFsxLHzp6S2HDXN7MxSluJ8gp4jNyYAd98dJD3KrlaBnT8cx59r03B4VxbO1TbDO8QFNqbmcA5xgmlmAXL1XNSdWCB7V4wzD8TYbygjHX/9noSDu7KRnKeEin0rju5mqDiVh8xC8U29l1eG5NM5iBM+pzCx3HeUr5DD1SH510PYvJUv15kS4+qFyuY2lJl5SDqh8z7t31Gj6FSu4f31csSo0S6wlDkj2N0SzYoz2PhdMRyj3GFvegHWvnJ42Lag8PAx/F5kjUgv9jdZRlR5QgHdbtluD4/FrcOloKUmNxG/rD6Dv9an48iJApS42bHLkzXMzO0QOqwR53apOrRIcJscLJ2DbD8iwhzZWdYMlSIdB7YmY8829jdYgOzjwv4GC7I95DWI21vTd7XjhlykvLdX/D1wR7BQQqxHxuESHND58crsnPDavaEYZsd2np3PxcoLsBF/vE1QHq1AV7fZq5RDMDVGuKFgArumSvyaoT+/b8sHY66OhYfuvcyyZBxMKeczhFx6/V8zGxSirVFU7ngDil83oZ5lKNKAScdRu3Ujyr95Fzk/6BuezwqW88ZCKscqkfXOa1AeYQGnmO9V4ULSRhS+/hsKxfzXHG7Tbmn9QE3F7QZmaoKmRYnegZvE9/TDcx/qC9ptp66bF2xzmJuzguSOH1GZdAaq+GJxqVAQM69LQ8bqH9GQcRrVfNfN7bykhMgf9vNGSndC2XtT//UuqpMKxFeE49N0hAWFHxzjzUWc4XPjDDGl5XkLfKJ5IKuMw9nX34Ry6z6ohc+RsQ/VP7yJ1NVx7JsQmMNl5gKWLfWR9sdNd+Ctcp3lulO1oabSLOPlNdaNilojn0+nayb8eMMBdXkqzknJXtiKHE007OSN0TzZ1+ZEv4xnZxo/LQ+M5mvqV1f3Cf6x5784K97ctYDf6Jexqp8Hhpp13yhMcpFqEBrzEvCvF47i4a/K8WNqI/ak1uOLnwvw1GsHcfW/MjsEZkvmj5AG3GGFyLTtB3DLu9n44KiwXiN+3JGNh184gM2ZvPBuH4b5t3V2OWS/wZMH8NBrmXhL+BuJlXj5jUM4oPkefVxxA0+2skGwB7/4KZKxlG3/rT314valfVDgta/O4b7XUvGB9K42+nb/u89jWiim89E0FUf24ZY15djOB3NPz6/Ca28cxPpUafsWgWF4MlRMDgxmixEw3U8KYti1L2nNbcjc/CGLifZArfgJqs2LcWbNHyjmh89m9Dy4CPfKtDzgNCpEWl/Nrp1rnoYqj7clrz+B2h33I/EQv/FmFw75SCmpzygXHlCzK23hxS7/1TWxIq+GVNO2aIpcvE43lJ3DxpUpyNOWZ/u4OBDlAjcxUYfEDQnY9U05FOzcVQlTQiWS1xdi19sJ2PyNvuu2GUbNDeWBcDY2vngap480SXlnXQvKt2fh+/fPQIrnWPB2nZ4BrCJ8cAMLZEXqYux8bx++eTsH6UekfSjZVYYTqxOwbvER7Op+pmCYqkn6jJqpVlPyaEFTmc5ynam29SEJWs157d6n/TtGMjeHJfvcB74phCKhEMni6WoNZ1agqjkfh5++qUZJfLk0CBhb7iQ9xFUS6IkZ0TyQPX8Mn68qgiKPb7+oHumrT+Lrw1IPVLiEYNIsKamXsB+slJC8YR/WrczC6V317PNUI/n9k9iby9/j4sqfIdvfLk7e2zeaUdP640WInw/evy+QP1awSuzesj5fU5o08rfbWI1s6QuHhVwG4+qmM7A/USp3itTZOLyzNw/6J6Tv9XHupU/rnR9Lv1E8ZSSzq+E8VGrb0HhmH1T6CgJN+1AWLw7TxuIxf9i2KZBcJpRnodiTzWdaVRzZiIbOqsU8Z8CVB2EVJwy8t/xHlKZL35Gp17A2waj59GHS3XuW3eV//S2a9K2f8y1yT/Cro7U37MKk5IDiZC3d3WcqSnnptTus3bTPcqtU9aaJcasMFb8Fbu4A3z67A3ARNG3FW/tXYnc+HxlSGBgqZjG6+cs2kh1u4KNHCyPAbv5QYbhvKFvepjxo7Y7YQB5IZibhn7/rO3mb8MGaJKTxS5Q81J2FMPpVJx/F0q9q2m6DrZ9QxO/rm7NCopTSwQoams3a22G69GMyTh/vf0/cPsZbahatzsLu7/RtH/hiSwakq68j/K66CNmJscbHwJ0fvuIdr0Clr4NXxYdI35HGvyI5XEfpHr0JsNZcNBTpqNDz8ZtTioTTjrGApea9egy15y/WlyD3ovTRMxFrnEW1DVKwYm2FUS9PwNwwHqBknMLXL+Ygj1+6+4fmw5rBObBtA/suRXhhpDCQAlOYkIY8fb/7zEKc4DVLZr5uHYIhn9kB/DepRvofCdDX8EurB9nCYKBMSsHpTD6jVYoTP/DmpgY4zfLn3WoMv7f2myxIRQdz+AzvpNuJeCPhCLbv6vgjKtHmg0L97MUx0PNeN0uh1lWgRiWvpIiJDsLLN7tL5ZiaMvz2bSreye/JcDeN7JjzpL0NjL3/qPjzfbz51c/Yt/dnfPn6auynDrNkgOn/0kfGIZTyWNNmxC0Y8dKzcJ4UiyFCK4quBHmLfWQFVRn7pIQeLeWanMgOlsE8eRlRHlmvLRO3ykfZVp27ZfoMdRebFwvBaHWS4feqNbWe1s6w1N4McIe1F+8kUZWNqk6aYDXFF/CygDWsvIz5Yi8yUyG7ldQ29CADMDFvXV/Na7Z76Vi1pk2cDdo8D78P/XjiNiz6w/hpaXrnzTZbJePbuKX4hp1TQlnGXD4Nj03+J2b29ecIdYCcd+OrTs3Emu4UOK9yYuGJJCerrF0QqqOuDLmaO/Us4NQ/WnMRDq5pH8gaox7bUnmuLwvCg69PxFdL3LHQ24jLbp/uf0/YwFdTq1xUii+kVEepjdpmes4u3YnW+5etr/booex4J99cXC6vmWJfkVy319mh1i4X8mA46jm3TcM92BVP0IiGzgp3UsMCdqFkhVOe7F8taOA3OGDOzrVAB8x6eTKmyoWSuxolJw7i87fL2jQ97hd/5rUGO1OmYvEbwxAzwwqWPFvpVJQTD0SroEgwfAdAVce7BQl9aNvcybGAvwvfUG0ejvfHwFYDXjHivtHTbSo3D3FdXMx85Py3XFmOLIPvbUANP88sXWSGg1F1JRQGbiSUrD7E+4En9KDFVM9cjLy3N0p0yihCF65rrxmGZ6Y4ijcWG0tysObLbKzvxY83tZy3hDAz1d7k71oTy4OPYMe2I8gy1ACOkEvoItxKP4fKtb+hgAe0JnYe8Lnxdox89T2EP/cs3G6YAjND8Y+XHS8sAC43vofItwxM2lFvzYVBay87F/SOj9k1cy+pby8r5cLnET3HjU/h0ZqjbA0z7ThcXjDTLFYq9QTTOjKU2hvbll7DeIpc3ljBXK0pMfcTbxt+M4adgkXtOpR1hRVkpbqgaig71Ey0lazkZ6/MBiFSqs9s/+okfk7VhEu28IsYhQefn4md74/H90944YFwA5fgS77/NnDmNxLgE4Odq2cbmEZpB6+ysB441RzmtrwmsKq886tnUwrqeO2HlZPundAiFgTzWlvzEIQueQf2PpHiK7CKgWzml4icwAPmqhQoTkvJAcclFA8uG4sIseJMaOp5AN8Lo9nq0aTu9CrffXXl2PzlGW0zZksHX0y6ZTIWvzcDD742EjMWsADIQGDr5qIZJsgOox6ZiSc/0T/dOVzzvnbNZNm8jSb7K2PBFE9eaZq7cwNQSwY3zbFzCMW9eo67NPHRhQXst69ZhfQVW0y4fzj+HiEd5Irks1i5vhR7xTmJOXgtblMzjS5MrmgXIZhlyveh9I0XcObrQ8jLVom1OQJzZw94Tr4ZEa/+G/JJfVGlqkYL3TXqhboeZn7kyhKC+VGr8Vi01BdQrdiD/+x/FTv6uCwsjPrWzcaJA1AT1nx4GHd8eAi7k4tQreZ9nMztIQ8didsfnYFNT7lgmoFC/aDS3zc3Lrbj21HEA10ztygMf/hdjP/XDoz/x+uImuInDuLHTn6k/fB2D2839h+l5nkp5iyoE3+kxdj7qZ6mnh4OcOMBSa2hZ6z0RkIhNj6+E9//eg7nyur4TVFhFFthFOGJWPzmGEyc3BfFEDUa2jSZNhMf4UcukjZ9s0mvlGsG0jODjY1QdaxG/r4zWPZXbbvnzQ5BhCu/gVhbj3wpRcgV6eIEs6J6tCRthPLjV5Cy4mWc/voP5Kar+GBI1nC/cRGc248kU6/mr6tR8styJK7oanoWhR2GBL1yNddpCidKZL+v73i1n15DpbY5sU6hx1kzGqQBwrNrebK+wNBzcwcGmbY/Ss/IzHUH2Oq5UbaaBj41qOynGwgLY37CuuuNn1YHdz24P0yuwdLxL+M6/qiRyoz/4s0TnyBOnOtjmVXaJqy29t0NazVNE23h3MWjIyKc+dlbq+/h9H2jKLUKr62Jx03L/sJDrx/C5pP5/LOZwjYwBsvu09QwaVzq/VejURObZh7D1Uu3dT29O3BGt9Q21LNzkoJOQ8zCYc1bVNaVt31artXce+AtvFaVg8Lc6tbjwTTVVUOZuA2n3robJXlGNkA3M9f2ve9vCgWPwgWV2fj1fQPPER3vzAdpakBean+F5C0o2Z6DrS8ewOrlO/H1hkQkK3joY+6M2FtGIqJdZ++GOs3BrsDx9/gjWTqdjuNgKl9FVAeVpgJaRrWG3cMCU02eVJaCdXqPd7vpxTxtc/2B7mLkvb2iqNF52kItkn5LxvL4Rj3dAuzgLf140ZhXhRNSskuh9vyK2NCILjqqETJoXMRgVpcwEvEulK99BUnfp/G72tZwihkhprTOFGtHypUFdT7SancM6bx4c9loyVBC6jHjDNuh3f3MZ1BfzAsUdv6w0/P8Wg3Lcf48mFWi2sBQv9ZO+p9jazItpNsFDZPu9nMprdNmDo6uPagCqykAH7cRDvZRPNU7nra8OuSiDQrTe9aWD+CVGQ9itIsQWDYi59RKvJC8Ff02rmFKDR9ciJ3BoZ7obMDMDhKFR45I/AJcDA+M5CFHuKZ7ZVEFfuHJ/iSMBPzBV2dw0zNHkMxLKLY+7rheSkou+f5XQqEpnXo46n2Gb/eYwXXCvXj8+VexYtn9mOzbv53Vagq1Rw8usQaPHoZMD9cO3FWV9StPCRbDe6TUyF15+AVkfTYXJ1+dicMvSdPxVXNxbsM7aDAi/jtXzhsAWrnB92LluPuL+Ui/bP8zs5Ctt6m6CUZFeUk3KtVlSN8lLuxfwkjEu4qwfeU+fKYZDdfcHWGTpaSGKrOS1/Q5wrNHl9xaKDR9yV18MHJAPFKUffmDora4Edll/GaDiwt8epBlDmQ9y3utII+chJkToiDv9+KjClnaH28ZNuVoRixuyyvaDaHij7cJ2RnGdqI1g4NmaANlbZeP8ml1MT8/Id13iYJZHenK1iZaZu0KONW7UMHH27GJvhnOYV38igx2vmVylNpmMA7R1w+AD34RJMQJcZzIZeajsOm0PzE7du0Of+2JfEjhrD3k8xboDyLDHoLPCCm3ayk4C1WbgaKq0MzjYRN3bwiPxGxlxQLZpxA2R/PYii4UVGkHmXKIiRVTxqtFPi/bWvjYGfFw8faOax+pYe4ejbFSshemYqgYEDIV2TggpfrclviVeHOH8dN7mYZr1YMc/4lVM2bCT/iJqYtxat9SvFKQrO0r3S/qipGQyU8g+2F4dImN4aCOnYJtXkstRrKmMBsYhhWT9P3izbDivgg+0FIdko9e5JrFuipoursKv702dc+XfP9b8EsyDzZkYbi3s2MvaH/82wu/Ew9dPwJudtawcxuGWQ88gFh915M+oj6eoh1syX36M5Dpyxocn0bYeH4noC4FhcelpCggWPtIud6Kqyjh11F3+Gna9Pa3oiKczpW26jw8HCP1DFsqWzAS4/jHV53PRNt66f5Xm1ejzZM7nAq7CpDOy+c+U6IQ0UXrBH43tY3k5ALevsgOsfcEQN5ZUNbZa73FPqfUbNQaATEX6fvvpbwTCr7P7pi6zE18DrxB/Xns+lzP8l75Tcvw6MKbMOX6u/Do80sx2fiRk3rgAjadqZAqIpw9ce8Is47HX+aAJ67i7TxURdhi9B1lOwTwu3c1pTUwdjjLi/v5Cek+U1d3r1d4ul+Y3/oigq8dD1MPT5g42qCp2RpD7JzZFALr6dfDY24UnMRm/3Uo/u0HYcwIHSyzU/rDdrQrK+hZwn70FMiCgnDB3ARq/ncsRlwN+xk3wHPefLjI81F+2sBQDy2sYDZ8EhztWGBl5wvHqGDU19ShycSO7w+bzJtwoV7P6H+6AibAI1SqS6xL3YaqLDFpmFMwTJz43xcnfziO9xbrhptLc1FRbGJg+3JYT42CPTs2bbaj3X4Vyncc5oWk1veqFQk6xyAP9YiGS6gtTEzt4Tx5Ciw9vVkG34Jm8XOzADN6BuxnXgfPBTdB1tTu8xQqUD98DJzsTGHq6AvXsdFosjFFUw0reriPhM0NdyPob748L1Mi54tPUa9pFypiX2bQFLgKz8gwd4ZDuDuqi2vQ4jQS9rcuQshVUvNl4eao0Pi37b63U2YBk0nDYcf+lIWcrR/kjvr6GjSb6Rxbdg5daNTXcbMFpi5OGOfBtsYiatPzpTjUrRZ1JTC1mIMYN5YJWrAgPPsPHNN/s9Q4NnfgrjC5GMSXpq3BVpVOk8A+1NBSgrJm46fyCzxwbEOGiX7v4dHYQMiEeKo2FX/ufxlf17b5ovvNkQo1bhjrLp5jFm5+uGGSJUY4NsK66QK8XEwxbowH7rs1AstmWaBkZwVSpNWYZqTUmWB2lJN47ZCP8MEN4Rfg3VIHK5mwng+eemQMxrhIxejGzDgs/0nTV4mLkOPeQKF2rgbpWxQdnmMrCI/1w1jhvND3ntH+2LBsGOZEmGFkgAm8GlvgyvY5QLPfd4zEWHepYFWdmoKXj+se/z7Yf2sTTAw0RzDfpjAFDvNDhPjg7nooUlm0rH1tCBzqWlCk8/MpylAhapIf5MJvTjz2Nhjt2Qhn9j7xc7Dr0F2z/HHf3OF4fLoJFG2Of1sBV9+IseJoupypGRrS9iG5s1FLbCewy0YwTG0D+BQIp6hw2Al/prYIRbnsz2hes7JHi+7DOqtTUOU6C54e7PhayiGPvR7mjt5oVLEzyfYq2E5fjvBbxsBeHGm4EcVbn0Zxgc7Rq4hk+UqIWIi0Dp4FS1t2HfefDFnwVTBtscAFK2G7Xux6zXaiq9qdOl/EhIWKTYxl7L07i87oduLoJxdQUtaEsKvcYG1qgyAWtMvl1aioboGJry1G3jMKc8Y4SyPQ1mbi13eLUN3HOxX2zBRcN9MaLv6msHZpRoOZCSzZeWPJth98fSCuneYHlrWIN8eOfFeEkjYnbyMKXewQ5W/D8i4bBE+Uwz9sCC7IGvjfMYd8hhvGXBeKyQsjEGqZyYJXvqrG2UqYjw+At/AlWrlgxAwXOHk1QN3SjAvsi7cMs8fIm0NxzV1BcCnIE5700z/yGuE6wxdu7Hdk6e6NiKhmqNR1aLZm+yAcDzaZmjdD3ebzm0AWas6OW+t7LIM8MMpX+DDNKMtWoMREZ/0mtr7mzoCXI0aNdmHfLbsm/cmOK1/sNjkYwcJJqFLgyH5+p0D7XjWKTuW2HoOcSqhjfBBkawozBznGzHCAva8aTZpjJ3yHsz0Rc/Mw/G2+C6p1tqOh3Z5aidPbK/p/9Gxj9DDvHTX9JumzCEwd4W6bjoNJ/Xfzs6q0Cr6hHvBj13D7QDfMlLMCR2UjTIeYIWakF5651gfS5bQe8ZuysN7I7FgW7oW7g8U70kg9UIC9RhY9LvbnJ6S7hgwbEdOTh1UZzfyOf+uMlmuIGsr93yJv8xk+35amBk8q9hlWc2Id0v+n/2+Iwu5D0AMjtSOkdpC9F4kfb+IzBrB90YyeXLZlOfL3iEmDbB59D8H6W9h21Gb70XB+6R74sOC7zXa0289H+op3eeG19b018d8g/QfdGjYrmN/6HIbG2HdZG132O9tO+1uVZrFwfvp2+HR8iKYOFfK+fhfKJD1XRtub4P38VIjl5w7UqDy8EWVetyOIHaOO+95WV+dBp+s7uWHt3b7iUPQ1ySlY9Fc36xQtn8b7M2PFAmltxudYmvyXtLwHpkWswz1BQh/JfOxm3+23A7iZsYvHe3g7Vjrf1WUH8c3hj/QGdf0peJI/3pg/DM56zyGu9jw+XpHZoZlt7PxIvDrds9NrR2NeAt7U9wzb+dHYOV2obyzCtqXxeEta2sa8JRPxaIRwRdHzntGB2LQozPD1hmtUnMbH7xbgDz2nZK/238jtS6oRv+4gnjrFZzUC3PHVE6Pg19mxF6jO4/0XMvEHn23PbOwjeOHmYJ1WGPnYt+oD7OikEGZ1y68YFWnc3qMqAXFvPd3aykcUA6eHVmKYb6dHD6Xb30bq/o4Xcqtrf8LICV2MF8A0lecg45dVKMsyVLcpw/yotbhO3I+L+5uX3Twcd872Qvse2VpqBba/fxrJXYyY3RMRL8zELF8+Y5AwwvIJvc8gFcgfHoeF0Zp2kYZl7dyB3zbyGV32tpi4Igax+jMgrgaJXxzCrpN8th8IteD3Xi2Xbh7ooUo6iHWrdcM9Nyz4JLrDs3MNyWOff6Pm848JwKIHQmGPYmzXeeSN9vvIjccHq3joqX2vnmNgLcPUl8dhlIPm2VKGKLBl8Wmc53Ma2u3VpuL7p7I6BLuXQk/zXsfrnsFTE7WPemDB/ha89OluPtNPZPZ47fYQhBr+8SJrRzKeTTH2zvoQPHDLKMwUuozVFOPzL/NgbCnmknx+Qrqh31vbNiWdRXGBEnV1avbTa0tdp0LFmWM49/bLBgNZQcued3H27Q3IPlOEavZ3dK8/6ro6VKWfRfoXb3QeyArOf4WMt4WBp9j+6KuEuizVQ/2/V3Dm073I459b9/g18u/g/PsvdwxkBU3HoXzjZaT8fhZKZdvvUF2lREn8XqT88xX9gaygehPyP2DHXGcUa+EiXFeQhvRPX0P2r8dbB2vpgngefHoIhQWqNoOxGKW8FMf5XWebME/c21n5Vp+GH3CKj5Yg852JhT395Zg8gJliZsqOQu5ebBzAgaygrOhFfJlSIQ30dAkCWUH6gWzc8s/dWH8kF8paTfUDp1ZBkXoa67/K1ttf9PjPifj7h4dwILOidSRhUQOqFVk48ONu/P0NPYFgX8hXsiChSNznxjbbZtQ6239NfyAruKT7L8gqxn0vCMc+CwoV+xx8sUj4DGWFiN99AMv/ZTiQFTQd+wlbz/NrAPvOUn/7utNAtm+cQPlni3Di+4NQlLQdwKlFXY3ylINI+HCR3kBWoC5tfSRZi7qRXSulqf1P1szJD2H3vwOvAL6gg1r8nJnKa6a8cVVg9zs69FTtb0n4/L3DOJBRgRqd86dJXYW8+BNY92z/BLKCvPPZyFJUoYGdJ21D1WY01FYgKyke3z+rZ4RlHYq1R/CfL+KRmNt2/8W/wT5D4fkz+PU/O/UHsgJVNQ6+uA/rNpzBubLWZs2SBigV2TjAgum9/RjICmo3nsZnXwgDX7HjwZcNeHW12PvcHny/MxVZeo5dQ2Upkg8fE8+h9oHsgNSLvLfizy+wvaC7hY5eqlXhxS8T8fnBEhTX6PxGmtSoyMvFD1+d7kYgy3h7YwIf+6Q4RWF0ICu4JJ+fkG7o95pZQgYMVw+su8NbrKWoST6LpX/Vdq/pk83zWD09Wmx6WMuCu2eSt3azz6gMMyNW43YxQy3Ggf97DOsMl+MIIZdKwDuIvD9KvFY05e5G/LpV6PAYVttZsL/2fgyNlGpvmzJ/wfF1n0ivdeCFhTFvYpZcuItGv31CLq7e571mU57Ey3+TWilVJXyCt37qt6EP+4EpFt8ShWm8Vva/X+Zhq/SC0Qb35yeXu36vmSVkwCgtwoZk6f6yTUQgnpauy8ar+RCbMqSG3bKgW/CYY4dhGTpl7fg0buJ3hitT1lNhlpAByn6GFMgKTSizftATyAqqt0O1YQ9KeYWFmZm0hn4F+DH+EB8V3R2TRi9G+yfREUL6R+/zXjOMCtM0s1Uh89jgCuRCogOkQBZNyNqX3+1AdrB/fnL5o2CWXFG2/pWGePGRI5YYfn0Q7u1WPFqLHclf47Q4TKoNhl31MhZ21aFOw+xePHvVcLFWF+UH8WX6IXExIWTgMdX5Xbd0Nlic3FcclE7QWN3FgChNn+DT41lSU2v3aXgseOrgGgiWkMGoV3mvGWx9o3DtI//EjUHSD70u+Xf82k9N8/uDTO6BZ6ZIozc1pmdgZWp3GmN2/PzqjB2D6vOTK0O/j2ZMyMDSjFOKFkwbbg8rMyuEhrSgJL4G2fzVrmUjoSwUkwLlsDJ1RLBbKEpzDiCXv6rfVCybeAfChNxUnYXt+/+NXQO8rywhV7Jmr+vh5S2EmrZwGB6Luso6qKuzcIHX6AxxvE4cEXnYjSNhI46Po0T2/15ATRf9gMtrsmBrPxnBtqawcovCyMrT2FOjeSYuIaRv9SLvDbwTK1bchRmxkfB1kAK5qvM/49NvTg6MkZmNIXPAa7f6Qy7cnFPlY+2GcqRJr3TNwOdfs+7I4Pn85IpBwSy54qira7Armwe0lvaIcKrCobRGoy/QTeoD2JfPA1orOYZZqnG0+JyB/rNumBP1PKa7sxJvcwVO7X8e6xpoIAVCBrKWjGaoh0fBiUWqJjZucI2cAu8p98B3hjT5TBgHD19nWPBAtvCXt5GfZsxTG5U4U3Aa1mJAawEH+UjI87fiJHU5IKSP9TLvdYrExDFyWKrrUJ6fhN3/+xg/7clqN2L6QGaBx28bhkhhMPAGJbasz8em7hQ9Bv3nJ1cSGgCKXLFC/HzwxMR6bFxfir18WXcEOf4Tj4RXYFNXo/yaXINl42+BOn4ZVtfQPU1CBodgmI+8G96To+DiagsL3pxYJIxuXK1EWcoe5O/4Un+f2k7FYFHMg/DMfhv/LjG6roQQ0h1XeN4rs3PCy/MdkPy/LHxNRQ9yGaNglhBCCCGEEELIoEMDQBFCCCGEEEIIGXQomCWEEEIIIYQQMuhQMEsIIYQQQgghZNChYJYQQgghhBBCyKBDwSwhhBBCCCGEkEGHgllCCCGEEEIIIYMOBbOEEEIIIYQQQgYdCmYJIYQQQgghhAw6FMwSQgghhBBCCBl0KJglhBBCCCGEEDLoUDBLCCGEEEIIIWTQoWCWENIjDt5eWHuXB6byeUIIIW1NnT4Ma6dbw4HPk0uP8i5CLi9Dho2IucDT5CKInRaIJ+f4w1aVjW3fZWJNFn+BXJacHtqBYb58po1qZH85FwWD9PuXyT3w/q3ecGTpmuQULPqrTnqhM2MCsOiBUNiLM8XYuTwBp41Y7colw4x3JyJSxmfbKMb2xQlI5nODk87ny43HB6tKpMWkX8hmBOCG6/xgr8rB9m+ykJ3JXyBGaPtbzNu3AxvXS+nOuIUHYPVMZzFdcToJy3Y3oFacG+AC3kH0/VGwHuT5lD49yrsIuZKMDsSmRWGw5bNt5MXh6jeK+czA0c/BrA3efWsSovUWxprRqK6BMk+BhN3ZeOtUC19+GfOQ4/uXoiDns8g8hqvfLecz5HJ0WQazMge8eXcwAixZWpmPNd8VYa/0ShfcsOCTaPiIaSOCsQVRePJqdz7TjroByjIF4ral4fSRy/XaQcFsz3V27JrRpK5FSa4Cp3flIPnklZD3eOC2VyLhyWebMk5g9dtXUN5jb4Hg28MxNdpduplWm4rvn8pCd864iBdmYha/luftZMHsRindFaFmdslI4URsQtaOJDyb0iy9cJGYj3wFbrHh8HDMRcp7T6OeL+/U5RrM9jjvIuQKMgiD2UvYzNgUFub2kAeGYfaiGdjwhANi+SuXLXszWPCkyJxaeV/uyj+bicMv6Uzbc/grg5Ulnr+VFwYayvDDpSoMmFvCWe6Pq++9Gg8+48JCl8tRLXY9tQMfLG6dvk+q4a+RnjOFmbkdPINCMeuBabhnmcNlev7osDdnv9xWZldK3mNvhYhlo/Dgm1NxgyaQvcj27k7FlrwmljJDwMxQPK+9m31x2I6fCP9AZ1iZ8QVXrAGSdxEy0J3KxE1Lt+Fq7XQA8QO8ScnFy9Fqs/Dzh7vxLz69v/EEjmVWoFF80RTOoePw4oM24txlKzUP608qpc+sVuLY7jJxMSGDxdTpgYiWqjYQvykbm8SlPVBb2a1akcLDe7HuPT59egw7k4qh4q/ZBI3EnAV0Y4gYUJuNzZpzh03fbziF4xkVkG4LsLwnbCwWPnyZh7Ms79l+QokGIc3ynuO7LvO8x9oKI5+JxeI3J2NWmCuEkkVDZRX/znurBspuNdFuxte/ZCBVPPgyRP+N+mpeCn2WdxFCBpyLWAJshCK1EXv49MeeMjz/7lH8/cME5Kild9hGDcOLHlL6cvXLV8dxrXCnY9lxPH+ULyRkMHByxQKxuRwrzp3OxIcKMdkNrBDYw7t7zbWNULHrhjglVOL06gSs25DNC6fm8AlzEVOEdKRz7rCphAVyB98+js/fS0Qez3vso4di1GWe9yi+PIlPhBr+x0/i4BG+8LJlgwBfR6k2mgXvib/uxSfPpaM3DatLVL0JhauxakeZdCPb3hsLJlzx1aQXV6/zLtJ9IVgYsw7/9omBNV9CSH+55NUZRakKrE/W1LG4IngSTxJCBpTbJ3hB7MHaVIYdA2Egk115SNfshIsN3HiSEKOkFmFnUhWfcYX/ZJ4kg19dGeLOV6Ak6QTWPXsSu7ZLbcAupdqMPBwqlNLu0d64XUqSi2DA5V1XgInBz2CW3Aae0c/g7ajbEcSXE9IfLt4AULXn8fGKTPwivdDWtKHYuiBA7E+as3sb7vtZWizSdkSuRvy6g3jqlAmun++P+WMC4WdvLr1HrUJO8ll8/V059hgYmM4j1A5LboxAtI8dbM1N+dIGVCsKEb8nE2sONKKIL9VY8dxszPaRtrtG5o9XbwyFXMbWVeVi82fJ+CDLDE8+dRVuCBS6STdDmXocb31YiePS6pL50dg5Xf8t/+rkA7hpjXF3e/XvP6NuQGNdFdJOnsZjPxvOsD08bPDgXSMQq7u+uhrKvExs+70AX6RKi/rc5C8xfpYfS+Tg7Ev3o9xsGmQzb0PQqBDY8dt1LXVKFB//Blk7/oTBk9F2LlzmLYRvgDOs+dfewva/JisBGVs+QW1p+29PlwfMhy2Gz6woODvawoKvL2iqa0RDRTpyfnkcFQbv1gbDcvxiBIwPh72TBTT31JuqlKjIPI6cze+gwahRNRjt8eh8YI0hM7/FuClS56qqY//Gmc17xLQ+5nN/QsxoYcTMRhR+fx2yzkrLW3lgSMj9CJgTC1c32zb7X3p6O/J2fAm10KWrMxZOeO+RQHizZMWJRDx8qKsV9OnmgD86A0DpH3BF5++VpWDdi3napsdtmcB+lg9mzQiA3MGSf/5mNFSW4dyJc9i7sZ7NdcYEbgv8MDXGT2d9Afsb6nqoynKwd2Ue8vjSDqwt4HNLEKZGucNJprv9cqQnp+LIhmqojBxQ023pBNw5XGg02fkAUD7LJmFBmPADUyP91z3YvF1ark/YM9MwJ0j4UZRi7ytxiOvwU+rl8bO3gP/NQZjU7vM3qRvZv9awFDbdnwNAdTbYz4wwLL7FX6zB63COaUffrkHiF4ew66TmPAiAj4Mm76lCXtI5bP+m3PB3GGqLmJvDMcrXDjY6eY9SoUDyriyc2N/xui0NNiRtd6/MDwtuDoEny3uaKnOxfe1ZnM80Y9/bWMwKsmHHk+U9509i4/uVbQvpnQygpko6iHWrjSzS691/huU9DbVVSD+RhO0bOwkWPWQYec9wjNNdX12DktxM7P2tEHn9lfd0oDMAXQ8GgDL2t9cZWag/1l7rIpZ18vfFYXl83xe/DA86aIievKj9AFB502B/w90IGOnHvkPpLY3lOcj6ZRXKstKlBXr1MO/Rbp+XG6yug8ut97TJ/4Xt5+/+BIq4E9ICQ3qcd8nw1tirxGtIdcZRLMiphYeFLR4OCEOkuy1szYRzuRmNtRU4ezYZK1SG/26QlSseCQnAMEcZLMT1mMYqFBXn4KeMYmzpdAw6C9znLscEHzk8bG1goamCaqqBUqlAYo4CX1V3LL9eehGYH/U0rvOVug+qy45j/dF3sOeij7fHY4ZIL8hdWPmPLxXiBkVWNnZvMVz+7UncIJBih9Yy/rSZ/rh3uhCz8JELxLJ3Or5eo8AfneX9dlZYcfcwTAx1ZtvnJ76Ilftr66BIScZ9X2luyHbU0/3vSCeW684AUHYWeHJhBKZHuLbbfjYObunbgX8HRkcz9iW1GRjJEJkdXl85Dcumh7UGsgJze/hFjcWzT7jrHUTq+rui8d8nJmBSoKPOARVYwlYegEkLp+Ozp1wMD0Bl74VXFw6TAllx3hc3zHfBvCWxPJAVCP1+x+CBmXy2D8XOjzSw/4y5JSzsXeHnoXuitxU7bShWvzQJ09uvb24L58CRuP2JKVh7Y2sRvb+YuD6B4BX/QNSE1kBWYGLtDPmUJzHylrl8SVumoz5C5LNLEMZ+0JqMTGDC9t8udCKinvgUwbExfGl7MSxzX4eYOydCzjJT3UBWYMYCDRtPX8is+IL2HFkQu/xTjJ7DAmGdQFZgZucM18jZGL3iJ3iE9G0bxQu7T6CYN4G0C50Fw9/ubfAOlx79gPIE5HcIZGNge8dHGHvvdPHzt99/+YSFiFnxCRyF5xR0IiLGXSwMCP2NUlN6EsgKdAY06ovAZYYPgoWLK6PMbe1D24a1FUa9PAmL5g5lAYhuIGoKSwd3RF49GQ+95gO5oXZQ1jJMfWMa7rw6tN36AvY3zG3gJncxPLBMlCcWvDkVC8b7wk0byAmE7bsiYvx4LHptOMIC+eI+krctB0oxZQ7/qE6aYHt4YJQYyLKyUUZOx0C2t8dvnA/ufG0q5ur5/GbmPJC9lMzM2Z4YQWaLia9N4eeBzk6b28EnOgZ3LnNjRd+OnO6JwuLl4zEpyLFtIMjyHmEAs0l3TO18ADMHdv7cMVQMZAVmDr6YtcAF8qUxmCMGsgKh3+8oXD1LnOlTsgUjDew/w/Ie4Rz2kbf9VeiSzQjDPa9MxNXt1xd+N0EjsGD5JNxws+H1B5KS1Yf4QGw9H0W8NrUYqfz+tfcIF1bcHwScnkYoy7eHj24NZAUWTn4Iu/8deBnM+/om7zEJWYWIFU92yP+F7QfOW8ny/s7z3p7nXVZw4j/M8tpaTHUeho8nxGKClwMPZAWmsJC5IHJ0DN7XO/SrFZ4bNhZrxo1EpKtdayArsLCDh89wPD4hGv80cAHwsJLj6wkTcVtEMHztdQJZgZkNnN2DMS0mGk8ZvIBcSsn4OWEp/hOfD6EoY+4Si3umvYb5lhdxZwNcsPatGVLMoBvICoQBaENZ+Xe+/ht+vY4bREKF1xS8dNOw1kBWIJa9o7DsOR8Yumx7XBWIDa9PxewID7b99hklK/fLHFm531DG21f733MekV74/tXpuCFK2P/22xcG/p2GDffZoK9Kzqau7l6v8HQ/sMDsmX6QC9+DugzHd1QgRXqhjXl/C8VYN+E0q8C53/OxUyqFSTydcPso4U7mEDgPDYCfLTso6gqkxSfi5w3nsS+vGt4BHhDKF6b2jvBSZWOrzoCxsfOj8exkD+kk1llvy9FCqNg6bm4OsGZ/0sLJC+O8FfjxFI8gmImTQhBib8GCVGc4mNYgedMR/GXqipEu7K+ZyhDiw9ZVZWHz1+dhGu4NZ/aF2ZqW4vuj4kgPkrxS5CRlY9/RLD5VY+g49uWylxpLcvDj8dbt6RXqgw8XBklDZNcWIf5kMjb/LOw/+1uJRaivLUd1C/tbyhL8kajnQj06EJ/cGSw9sL22ELt/PIbXP0/FB7szoahrRkiwC9tnczgHOyM8kx37UnGtvuN/E3yDha1bw2FMOOzY77mlKgc5R7ci449NKC51g3WAG6yE78DDF3XHf0Wd7k3+gHcw8s4R4gAeqMvB+f+9gdQNbyJ3fwJKVHLI/OSwMmcB6dDRUKdsRE21uJaW+bXvI3KElMvUFyYga/cfyPhrKwqO74ciqw5VlTVQmzWiPvVP1FaIb2tlNhdeS+9hhVdpti43AZnbfkTmnp1s3WY02rvB3oGdmabWcBoeg+qTv6O+q9Zs2uPRiMq4n1DVfpsaLUfR4L2QFQLYgbF2w5DCH1Ch77sZ+TCCo93EAnl53HsoTmsbjVjN/RhRkQ7s18M+f+5uJH3xJjK3foi840VQ2QfD0cMWpubOcAsPR9HhndB/n2wIFozzQ4AdSyoL8cWx2m7VaPRYhBzjWIFdoMrMQLKmBOlhBf/5QzF/ti+EXYJagd2fF6KsQyMHE4StmIiZ3sKvX42SpDhsXJOEPT9l4HhCMaoDnRHEvj8zmRtCQ8tx4lDH6nX/ZRMx3VMohqmhzEjD/r9SsHdbFuIOZ+OcQoWimnqYmDSiaK8SHYbUCXTDgiWR8BHzoQa2fjr++j0JB3cJ6zbA3MsOrsIQoywgCh3RgvS/Krps/mYz1heR7sLnqUH6n0WGv4eSKpjEBCGAnfomTuZoOKGAQk8jEMv5YZjuKxQuGnD2r7NIbzOwTS+PX6Anbnt0ODyEk5P9/ZLzydi+4SwO78tGcp4SKnbWurizAprwskqBI/v7svGfOQJn+0G8x6dW4vR2/cfW7dpQRIvHk+U9vxUgVzfv8XLEqNEuLOsdAsdh/tq851zcGfz1YyoSWN5jH+gOR7YNMwchL8hBuk7eI1sQhbumuLP1GZ31jh0uRF6bvMeTXeYViDvZmhe4TQ5GMDu2jmFOcDStRfKvx3CA5T3hLO8xMbGGly9btzIbm/+bxn4nXnBleY+NaRlOHNHNe8qQfDpHPFelqRry8e7ib6ahJBdxx7rOe269M5A/yqYYiSdSsHuDsP/sb7Hvv4TlPTXNwuEtxfkEPXnPmADcfXeQ+DxP1Cqw84fj+HNtGg7vysK52mZ4h7iwfWZ5T4gTTDPZse/3i4oNIq6XS5+nk3OifzVB5uKKaPG6zmbj2O+mj5/U05CeC0XcfjGPE6Za3ylwFr70qhR2/f8MOXy57qRS5LI8R1pf5DgL8tFy9iti52B4CGTsfBXy7fRNXyFjzxGUW4XBmRWkTYTX/X315h29ynu023eAS7S3WD5oKk9DxuZv2PbPQGUXAEc3YfvsvHfXv31JL/IuEwcs8HdjZa8GqBodMDPUQ/zKGlX5OJqUhO8y86C6YI8wB+FOuDmsm4rxv3Ld35QMb8XE4ipn4QrQgKK8FPwv8Syez8jEdzl5aKyzxXBXGUzZ79nXuhaJRTXtaslkeHl0NILFG+0s/yjIxIHU8/hfZg4O5LJjWFWLZlMLOFgOQWlBPnZ08XM2ngxys1B4m7vB1cy4SXahhB0LvnobaihU25BcHIEob3dYWbogLGAagor340iDzrWqP1g7Ye0/YhFixe8ACOXnI2ew/rdU/CWU/9U1MLW1g3NTCb450DZz7E3cIJBiB/a6mw+GsvyXlR6hSGbb/uFsm5gFMid2rDPxxzlxNR0OeO/pKHizbQg1yGnxp7GNvem3A0IMIey7EpWNF2BaV4lfjnes2u3t/nekE8uxvLr98erAwwWrHxvFziGWZvsa/8cxvPXlObz1eyZSyqoRFurGPr8ZrL08EaVmnz9DWq03LnkwK9x9eOkaT+mgl6XiPz9XoUB8hdMGs6YwZQe/UXEaH712Fu8dr8cZZTPOZ1VhU1kL5ovvMYdpQy42xPPcgZ3ML983FEK+gdp8bF4dhxf3SOtlKRtxJL4EG84pMZFdLJ3ZPlrIZfA7WYh9/HvSnJCmbMPVycfxzE912K82k7ZlacUubKU48J/TeONcPSLG8PfWtfthNLawbQnb00zWuGGOpxhcGhXMTg/CI2Ltbx3ifzyKp7Zq9p9NRQ04mFSF7YcV+gNZmGHlI+zHLJRVa7Ow/mWhaXSLNAhG0wWkZ1Tgl3N1mD1BCK6t4O2mxDeHjW0vayRt8GYKE/Y91KT8goRPX4IqIw7N1VlQ521FScs0/h5bNCu/Rbn2BIiB2z13Qi7EM3UpOP3WYlQW8xdbitBcsB0lp4NhO8GPfRfWsHOzRUG7JkcOMx6Gq/CnqxJw+oOnoSpIQgvbrjA1Fx9CXdp2VBzXE8gy5tetRESQdOer6tgHSFz/MeqKU/m6+1F1cg9KbafB05u9x9QBdi6NUJxOEt9vkLHBLKNWj4NbpBv7Fk1hbq7vb3vA8fqHIXcS0grk/vBp2xsBjq8gZH6ImAHXp/yIuP9+BHU9HwKlMR0Nyb+i2GoWvH3Z+WXtDbNq3WOvyx63XOMsFkobMwvxWUaf5Zqd0wlm7YOCMe56Pk3zR7ivnRQk1OZiy5pknNf3xKMZoZg33lm8thQe3of1n9einv80L6gaUbw/F3lhXohwMYeZEytUnG8XzLBMfcz8ACkgUiRh7aoClGQ2oYH99oSpOr0GxXFlOKsvkGWCHxyLWFfh4lOH9G2HsWFdOcrzNOtWIu2vfJSwzyhmdlYucLPPQtKZzpsdGh3M4gLKvRwQ6y/8+GWwNNH3ty0w7vYIeAuFJXZ93Lu2rG3tdq+OnwkiloxBtIPw+auQ+PVB/L6xBpVF0uevzaxDwbEqOM7gAeelCGbHBWDhTLl0HpWl4c+N1WINgpY2mDWFUKHSoDiD71eew+lj9agWP0M1zrK8J0J8j5D35CEhrjXv+dsDoTzvKcDmj+JxbJe0XgPLe8rjSpFwthxuo7zEvMeS5T26NxykYJZdwVneo0o6gY3r61CpNpW2ZSXlPXs/SkLy2XpYxPD31pa0PYYNLdpzVZqsEc6DOaOC2RmBuFr8/dUhkQWiu/7U7D+bWN5TcqYamYeK9Aey7Ko16tExGCrmPdnY+GIK0ljeI56BLO+pT6/A6bN18J8oBNdW8HArxzE9N5P61kAIZoE0UxluCRWuymZQK4qwq68f91sv5W+ayXLUPVIe2FiA/G2foVHnNWlqF8gKtMGkpJEFo/FrnkGVQsj/UlnewQJg3+tZmZWd4KxUXHv8V9T2Zd7Tbvv1mX+w7b+EajH/TUL96S62r9WLvMvaHXd5O7Lrnxkc7G3YVaABuclHsSytGFsampDd3IRjLHidKgQm7O0WDWX4rqQ1sLgvZAyudhWunlVIOXUSjxRWI6mFX4MvtCCpugj+toEIEH4jF6qQnl+JNg2rZJ54OEC6/irPHsYd2RU4LG63mU2NOFajwraiAqzPLkS6ml3vpbX6QCwenPIs5oVPw6Rg46bgio3Yo1Psba+8fi/25bthtFcA7CzY791/NsayvPuwqgDdqSvvjiVCraRwfjDVyYewdBUrbyc14Dy7fonl/6RK/LEnC9tO1qBGdyd6GTcINLGDiF1rjv1wGEt+q2mNWVLrcAMrd1uzs8q2pV0FmGC0Fx6MkbojKA7twX3f1eEUyzulGELY92rsPFqkN5Dti/3vqHvB7AMPxGKSm/BmFiO9fwLPn2pCkXiML6AgvxqbDpQhdpIP3MxN4ezWgJw9KvT2UdYXsZmxBeShFpjGp+unueD1p67Cf+/WPJhXhWObCtr2N22nOpWdkK8VdGxjfqqGN6ljW9Fph+Ixxx8h4qwaaQfOsEBOXNxWVjn+eSCfz7iC/X47Uudj91ft75qxi2Pqebzc7w8T1+QyZpAHWHSvSj7cmxU0paQiMRVf6Gubn1WAg5n8Au/jjgekVL9Q7vs3KxR90rF/XW45Ky5JzHSb+8rnwZOP6lMe9wWq9V31Kl5BAa9NMpOH83Oplbb4buUBG9fuHL25cNM23z2Oc5v/lNJtFKFh85fI5LmIlU8sK5b1obN/oFDzt0OmSYUwXWYL4SJ2AGPlw8wTKGtfKz09HGKcywLdvN+/FFPtNW89pG3O7Bh6v5Roz8laql1hKkr1nUSXQgOydu7GB0+dxXkD/V3CxnhJNfrqbBz8Rn+WmfdHFr92OMJnfPvLYQuaNWUfezv4dPgCOmHtptN8NwWbf9O3/Sakr05hBRFpzjOsb4ewavgtp/VvD/fqeP6wQFq8r8Ioz2d16PPbq+Pn4YGRvtLnV8afwq5LOnquBexZnqOZ3Ga4YKLw2JZ7hf6wgioc/7Ww08BGdf4wPltZiPL2pz8rCGluAJhZCzX43HV+COZ5T/r+pHY13hy7cGzerynMuSJ4hphoS12AA1923LMadtLHdevxMD3Rmvc4BwrFqm6I8MJInvcUJqQhT99lgwUXJ3hwYebrJvVlvRKwk0gqCrIgqZMm2gNFU+42xH+2ql3f1iJUZ2oGmbCFuStPcn2W9zDC9hPXfdiu3ND59rV6k3fJZDrlCTVyzxzDg8Xt+xgKddOS6mqd36nMD9f5SDfCqzOSsUxvf1oL2GoKDOyn1iEWt9Ddfmda0AcVW/2uru4T/GPX5zhdKcxZiANDrYq4tn8GhvKQY2IgjwXKkvDxmioY6tld1O606LO4QaRC/I96nlySVYkcfrpYWIu3U9vSOV1s5XYI5mlj9O3+94C1C2IDpHO/MTVNf4xUV4mfU3hNjosHDAwr1C0XL5iVBWD+E9PxEp+WLYjB2EDhrhejLsKBzw6z6F18p0HKPEMnZDHu4w/31R1Q6QYfzWWsFOm/86QeRTtK2SVXYusi1QTpqk7NxAcdroPVSN5vuON1n9mSizTxgm8O+eTp+O+qCKycZoUo6VzplEekE6RwTMWCWf2NcASKOn5XyNwWvn3VgL2DalSlGhjEKOtpxL80E4fZdG4/XyYI9ZUK02xdVUqimNKnsYpHcdZOsG539a+IS5OuC+ZyhD2xDiPueQW2PpHia52yjRLiF1FN5kF2WTBkOypy+fbtWMDcp2WT7Sg6zc9M8xC4tesbNGR6DNzFi1YjSg59KC5r5QF7Tx6MVxVB1S7QbaVAHa8QsXD1FZuEdWAqnH2S2obOaw77izA4j9Bf7T//OYHEMuHbsETA1SMxymBfUxl8xNuIjKLM8OBMqa0jWzq78C9cqx6JqfyCKwvEgjcnYMFSN8h9jLhsjnfSjq6cl9nJMz3rypCleZmdcNKQX31EGNE1k1+4XHwwsl0HPZ/Zfvz6UIrTv7UvSvXy+E12haeYqENegt4qk4tH5o8blk/FIj7dectoxAZpHttSjL2fHsHBk+I7DVKx37j+1qAl2Cj2o9zRZkAlH19+lwBlOPcbT+qzrTXvcXIRqmjaqjmfifMd8p4apO8z+IPuO3/m8Zsh5vCZMhWL3xiGmBlWsDQi70GUJu+pgiLBcN6j0jQlEfrQ9lveM8CU1mtbVNhYSjVHA1c18re/Y+DcN6QP854ebV9HL/KuOToDaTQWJ+M/pfoC0mLcu2c3/samBTmtLQse9vOTAtGmQuzVRC1cpJkV7nP3w+djxyGGl1eUBQpskZKtVEpt4Ow8bCx+CJPjvjadZvvLIby/5zYs+sP46ZX2NT2GtPyF9/evxJ+5UjndIejveHbsYowS5/pQpKs2L1Uk57GSlPH6Km4Q5aXjqZ48gjMxH8m8XGAbOgGfvRWNd+fbIbZ9EUWPPt3/noh0lmpwGUWeeOdCrz0qTW20HZzDebIXLl4w24EajaoixO8+gOUvxONlw7FKjzlr7njUViFNSulXxzJcfr2xte/DL7Uv1JXjn1+dhoJHUxb2vpi0YCree/sabFoZyU5wG4OB7UTtCWqP6IdmY+dq/dOjEZoI0Aq20kgJA4KVXLNftvC/fwfG/0v/NCqy9X0d7tAefwWJhxT8rqeFOGDUyIffxfh//ooRi96BU4iBwNZVaHgtaSjVVyvbql6hya1tYdnH1Qu6A0G5x96vk+FHwjWcX671Dvw0AZaaw2IXhdF6jps0LYG/5gJpxfafJweq5uRy7Pp3HJLF36srJi4wNLiRDZw1sYHvaDz5yUwDEx/dlLG07lj7VP5lHH49r7lpZQOf4dFY+I+r8eRH43DbMk/4Rxi4hDpb82NZA1UXNWglZTxakbF9llJ9pnUgKDtEzNacEAIHRARKFw69Az/18vjZi/3IBDUo7/caxO5So6GyGIk7D+KTZxMQl8AX9yF7nbyn0+Z/LO/RPHvZRk/e0+NCfF9gec/mL89on8Vr6cDynlsmY/F7M/DgayMxY4HMYGDrps177DDqEX3njTRJowMLrOF0xVTNXu4uj7wn3Fazc1VITFPC+CKqI4uleGnezBPXTZuO/9OZ3po0XhrQSRzUrRnKvJN4t0DPDb+WYnyUWMjCeYElnL3CcduEqfi/STH43M8Vcy5h6b13GqFS84tKP4ny0JxN1VB0c7T0gRE3NOL5r44gWcVzAJkHoqdPwBuvX4Otq8bgP3c5YJaBwPaS77+PjbZFgd90/TGHOGmrYy1ZMM2TvXDxfg7Co3l47ak07cK1LIh96ucaJHS480x0FSUW4M5lO/D+prNI0xR8hbb2Lp7sBJ+E91bF4vVJffFVNgmjxQ9ijWju0O2qCA1b78bJf3+ApGNpqNIcPmEk5MAoDLv3XYx5fJXh0YwvtaYPUZTGMzrPcDhrrhLyhdom2FWp2zupOe6GJuFRKYNAXSX2npBGwzILCsLEUDHZa016nxHRhOz3j+CD9w5jZ1IxlGp+hMzt4Bk2AnMfm4ZFz7iw4EVaPOAk5+E0v8Nr4+PV2pTzZh+EieUtNbITOqk57gbd42ep7e7Rgib9z0u6eITHsPDaU2nag0+eS8CujbVooLyncwmF2Pj4Tnz/6zmcY3mP9A2bwsZFjsirJ2Lxm2MwcXJf5D1qNFzq84RcOgMu75HBQ5PXKvPwv+40LrGyh0dnLbSaGtBYXYb0jNP4dN8+3JGmgqGGISeVZ/HovqPYkVGC6iZ+hMzs4Bs0Eo9PGouPnQd+M/W2puLh8S/j9iCp9rAy479489gniBPn+o6vnhvTg05WJR574S/868cExCtUvELGVHx6ScS4cXj29YlYe2M3ux4OSELFJk/2wqC9t9MtMjuE8KRe1naQ81qIalXnHZsvnRb8sSMbD7+8D1c/swNvbkxAskLTPNgZY+dHYkW7s1pZpylcVuDYh7o3EgxNR/H8RXvmX9eatUMDK5HxsdQMufPpNhRp2k20V/8nVJsX48wq9r4338bpfSna/m8WbrEYfs/THZo5aRrHWbpex1P6tdYgK1HXD32oq0+lQ4rR5fCeKQ3kbj4+mDfBVqBwt77m2+Vo1nz95cdxQu/xaje990KXQbHMUn9jsIuttT+oIyKu1xx/XU1o4B+mKeOETiBjeFr9did1aKnVOL06Ad88vgv/+fdhbD5RwPtKmsI+aDQW3N++iajm7LGBfReP3XFz4ZFwbaXxI20arQXJSXwYbJkXRt0sJYXRBMViUG0B4vS2werd8SvRDi1tA7dB8fyRvqUN61neI/UdNIDlPZoacNUAzntKtudg64sHsHr5Tny9IbFN3hN7y0hEtMt7Guo0V5IKHH9P//nSdjqOgwMo7+lXTlbafpw15d2JkgaL/sl7eqt7eZet8HhkUXVFRTdqZRmdUnXuGakJcpvpwCHceCIRj+aU4jfDLfC1ilpq8W7OGSw4sA9LDhzHjrxyKbAxsUFwRAgeE9/VlyZg2bSfsO5646dXjIiorC1vxz9mLMFVwtNA2CcojH8bLyRv7Zf+vn8oNXcpe1HrN0Dihj0HFHjqtcO4dukOPPftMRzLa20JGDIrFitG89n2LtX+a/uHq5G2SV+c0X7ahYd38FV64bIOZo8VaYaKdUXwjTypR9SN3rx9vRoKzUPgBrK6Fmzfo8Bjr+3Bc0d4QdXcA+GTpKTGnswKfjfHEXIjuol2zQrDrluK5S+9iuWP3IpRmhy5n6izivj+O8MxtA/vP1VvR/WOx3F21fNI49GDmW+4OCKhVlY6anjuahM4UdvvpqPbIA/lwVR5EW8S1Md0BoKyCZzG9qX12bL6Bn6S7EGNgheUnDxg25sbuKV12iDL0XWAVEHq9Ae1CQvFqA6nRyXy+N0+M7mDtv9qX2hmmUn6l0lYt/wYb+4M2Pu4tw1aEsp5817AJ7CT3NTDQxiHSdSk6I9gVjfwN4d/KNsXnWfL6hv4SdLL41fWxAM6GzgbCOblSyMR2f4ewGVCoc17XDCU30DQx/JmTW25GiXn+ck0kLG8p3xXEbav3IfPDmvyHneETZaSGqrMSkjhriM8o8QE0WDBrHTas++8xMh+nFbDce0jz+OFl57HQ/NjtMHwwNSHeU9v9TTvsrfn13M1ilQdmntdMhlN1Xg3LR4rz/ICgZk9xCerDXD29s9j1YybpefCN1fg9L6l+EfeCe3An32OXX+kYpE5QiJdulV7OXDjhhYcP1qO5984iDs2ZvGyMQtox7RtVnjJ9z9RyfvimrOycV80XzYu7risg9k9B/J5gZKd0ONCsVBfG/MAdzw5jne0rM3H7j64Q3AxHWcFa55tdLSnAGm8fOQ3KRorAqS0IZ08f1lkO/sR3DnRH07W1nDyi8W8B+dpO9n3i9MHoWlV7Tx9FZw6zcHZ5arbmSa7mJa2Hr22920/QVGWJkOOQtBkfcO9ecDqloXw5Met/PSP7LLQH3QGgnIKhsvkicIgjYy+gZ9atdbo+iFk0dPCWBiGmXV2ua9FPo/MLHzsMEFKXnKt/UFdMeqW9jm6bo1kKG5Y2kWO35MYva4K2icxsNiwzemXWqwdwMEsKBQz9DbFNEPE/eHagZLOH+m0d2XP6QT+Zr5yjJztxbepb+AnjV4ev/3F2sElfKI9eeG9ldM9ozB3uIFOP5cB1b5CXog2R/C4EP0jYQe64YbxmrzHUA35wFWbV8MD1nbnvmBXAdJ53uMzJQoRXbRO6NHvb5Ca6m/LR8CtQbZmQNFO2WHmA3/HBD9nWFs7w3fMbVh0kxd/rWt15fxup10w3EP68KZwJ/ou7+mtnuVdU23t+XekYsGsmDBefSMfrRrwlbtjDE/rY+iTd3VEIrXDIDehUdsMpK/EY/2BlXhzh/HTlwbvwsowyuc9vD0lGuJT2mpT8eeuZXhfZXhgoD5xKh/Jmu8tMApvzDdcOGxf7h0McUNRSpX2ZjnM2/66Lvn+FymQwjN/24hIvHuVlDakr+KOS/6c2S5pnzMLVGalY1N3/oBSheYAOca6sbUtnTBmqismetXCtqYFri4y3HxTGJ5fECY9j4mFIWlbTuANnTYPmmdFtXkerHZ/GqGIy8X2Qmmx9rlS7Z7BFOxtgSi5KQJcNJMtxo4TnuvK/m6FAgplS+tr1heQVdX2Tu2Kp6ZhxdUyxPqZItq5CebmJtJ7fWxx65xgPDnVH8Kz/IURoY/8oMDBNjdYGlHqbIdrWOYJU1uETJBjdqgJQqwb+N8xxzXT3XHnnDA8eutwTLTM6PT4XjVzvvZRHiLrFlTsPAZ9j/jU6sZzVTtKQhVmwSPYFiamDnCdMA+2nlHs8m2FZhNv9pGGQzbyTrjOuB+BN90Dx6ZvUdZmZ55G8D+fgYd/LIa4R8KkxQIXrALYegEwD1wAt789gcChtmJG25R7BBknD0mrcY3ZAbCJDYS1qSmsg6fANTQK6kZzNLFtmwfeAd+FjyGUP4dWaE6V9P0PLATQFQxTeRTM2PaEbYoT2xcv4dl67HjUZRWxTK/1tSFNWbhgKGPK8YPlxDDYmFrDzs8BFsJDl8tP4dxmQw+LZ0pLoA6/BsIgsyYOIfCMnQVz52A0NfLj4Ho17MffCc9ZixF6/QTU7f6dF0Daa4GpixPGCR2BLM1ger4U/f5ISIHOc2ZVmRlIThaTrUqqYBIThAB2OC2drKA6VYQSnfO/OV0F2WTpWaOW7n4YNdkG9l5q1NW2wIT9hizD7BE22w9T5odjxgwTZP7V7rmTY/xw59NhGDqcfeZAE5g08PXY5BTjjrF3jcRV4jNf2f6dP4uDbZ7b2YyCWhNERDvBkv3nMdIbYREXUN1Sh2ZrYX1vXLNkFMa4SplsQ0YCflrf7qBam0AWaA5rvk1hcg73wVD2uxWC38LzSlRrXxvCFrW0Nu9rR8Uy9rCrXNm5bAVvuZ343NSmjLP4fbvhe+O9On5NtWiI8MNQJ7YhmTtGxDShpKIOFwKdMfWRGMxk65qxYLqwTAY7IdK9FM+Z7Yr2ObMGzr/OsLynJFCOEcL5YeWEiGkucPKqQ3W1cOys4TM3FHNv4c+hZXlP+h8ncUJnqH7Nc2bbPA9Wuz9qFJ3KFZ5sI9K8t/0xNPWxgJ1H67ljyfKesPHCc13Z11NRjLSyltbXZBfQoGqb94Q9MwXXzbSGiz+7/rk0o8HMRHovu34FXx+Ia6f5wU7Yf3UxjnzX9rcnXN8K2YUnyt+GXbttEDxRDv+wIbgga+B/xxzyGW4Yc10oJi+MQKhlZveOrxHsZ3ggbJwt++1pJmf4+TvwuJl9HkfAUfuaGerPsH0TX+tPlrhjmifkwklVqMCa5DqWx3VlIq65ObRNyyHrlnLsPmFcn5amlon8eeUWsI+eBUtbOfuu2VHQ5kteuFDf7lmz2ue8dpJvd5a39zbv6e32tXqWd/3NOxjhQsGqvgR/5pa3ff5rVy7UYph9ACvPsTS79k12tsDwugY0s+MbwPLt4TYOuN0jEA+Hh+MOxxp8V9zuyiTzw9fjw3GznZU4yq9/czMcTFiZj617lZ0Lbg8Yjlle/PagMh0fFHR8bGTvqFk+VYKyZuOndpcOLgTzo17HXUNdxDKWuuw4vj/4GrY29c8t/7aaccbEGjcMs2fbNoVDoD/mj76AcMtmoWcQL/t64775I/DI2Ia2z03tZdwgMBQPtOr8ua3zHrwKb9zkhomBrBjiNoRdQ4V9FuIEtv053nh47lB4szI8UI3kzenaOETUB/vvwX4vsV5mfJvCZI2RY7whPjq2thQ5hQ2tr9lfQF3FBe0NHOGBmOcaTDA7yol9SkvIo3xxQ+QQjLDWHHtTjBvjhjtvCMEj7PjfHFjUGl/pYWzcMWTYiBgj27n0hA3efWsSooXfnTAA1IpM/CK9YLzRgdi0SHoWbc7ubbjvZ2mx8cyw4rlJmO2jGd1Mnwbk7D+E535q+wyxFc/NZuux0yX5QOsjf7T7U434dQfxFH+ckOa9yIvD1W8USwsZ7XJjtFtXYNz6KiRvPI7H9ugvyc57cDwejdJXNdBWV8dXPv95PDpGZ7zVujP4/l9fd36hn/wlxs/yY4lqZH85FwXd7lPqAau5HyFqtHOXzQhKt8xE6mE+I3oaQ/81u8sRYlvKU5C07nFU68sMQ95B5L1RvH+qfi3lCTi95mnUdsgkjdu+hnJ7u0cTteEBx0XfIVynhqPm1NtI/LWL6hyzufB6fAn8O+24J8hBykv3Q295QODkhrV3+4rN22qSU7Dor35rINRqQRSevNpdTAqP5tm4UUy2dfNwLJ3tJdYMKeP34pu17WoaA91w87JoBAgX4c5UpuLr57Lajjw7JgCLHtA8i9SwBsUZ/PiWnmeQMrIFI3Hv1XIxIDKkITcR379fBFX79Y3cvqQGiV8cwi6Dj5ixwMQ3piJWmymwAGrbHmzu7LExgt4cPw8X3PyP0QbWrULc10dQMmMmZvmy2dx4fLCqLxtZyzDj3YlSM2ZhAKinsrrfhFvn+Bs8/zplhogXJrDP13nek7XvCH5b3/a8jXhBOi6qpIOtj/zR7k/b71rz3vbHULvcGHqOv3HrVyF5wwls36U/75E/PA4Lo/VVDbSVxY7vb90+vp3r1udHMbYvTkAfx9Mdeftg3Xx3MT/J3xeH5fHGFL+8MPeZZRitcw2vS/4vVn2XxOe6EgOnh1ZimK90460jPXlzwDuIvj+KBf6d5Ntd5e29yXv6Yvsa3c67rPBWzHiID0koPY2/neEtVLrDzBWfjx0Jg4dcozgBf0vW1rFJWDC7cWywWObtVHUufo1Pw9o+r5ntGxOHrcP9IVLJqTb3N7yXsP6iPw932o0jsGyWd+fHUk+5uzdxg8BQPNBKJzbS8555SybqPGXEkAYojhzB8u/q9dzM6N3+G7d9zkBsFzs/Eq9O92Qlj85VJ+zFTZ8bvsNkbNxxWTczljThrTf24F8/nkZaWbsmuWoVFKmnsf7DPbhPzxc6EMSnZiFHGMlM3f6ecTMaayuQkxyH958/bDCQFfzy+WE8tC4O8XkVqNaMxipif0NzDD7e0eWNAsWmX3CsgGcEdfk49uP33btj2SNFqP/1Nhz7chuyM5XQjivCNdZVozzlIE5//Ei7QFaQiOKUHJSXN7LPyRdpqBtRV5KD7C0f4Nh7BgJZQdrTSPz3BzibmIOaukadm9e66+sLZPtaESoOpejcvVYgf4cR7RKbfkXBe4/g1JYElJaw81/3OLBj0FiuQOGhH3Hi350EsoLyUhznd/9swjxxb1dXqIvlt2xouho6Dw9FWPsmK5kl+O3Zvdh4OBuFlQ2tA/MI2G+qpkwhPaJlZbtATJBXjnMZxSipbUBDm98Nw9ZVKrJx4Ie9bF39gaygduNpfPLeYRzIqEBNm7+hs/4qPYFsn2vEiQSdQpnQrLWrQFbQm+NXVIbfXtyPnblV7NNq1KEk4ww2vncEe4/wRZetJiSv2od1P5zBubLWJrmCJnUVCs8Lx2Ffh0B2oMg7n40sBfvu2PfcNndpRgPLe7KS4vH9s0cMBrICxdoj+M8X8UjMbX/+s7/Bj8Gv/9nZ54HswDQED0yQAlk0lGGvUYGsoACbfzuMQk3WW3AY//vR2EBWcALlnz2OU8KghywvNNiSp6/1Vd7TW93Ou+y1IxlXG35IbueaSvHgkcPYkVEEJcs/2misgbI4HXtOHcSS9oGsoDYPa0+lIEVZhcbGdvlOUwOqlbk4JKx7YuAGsoKDZ1dhu6JGHOjpmUsQyAr2/H4GD/3rALYlF7Gyr+4J2Fp+/vgrfcHmpY0b0pOzkaYQyusNbbetW2Zn279TbyAruPRxz/GfE/H3Dw/hQGppx2OvroYy7zy2fbsDD3USyAqMjTv6uWaWEHLZcPXAuju8xcJYTfJZLP2rtvtNNwkh5Aok8/bBal4rW7wvAY/FtwtUSP+hvIuQy9oVUDNLCOkTpUXYkCzdZbaJCMTT3mKSEEJIp2R4+m+8VlaVj/UUyF5clHcRclmjYJYQYrStf6UhXhwl0BLDrw/CvXwcCkIIIfqY4t55IRguRrI1OLipCG2HGiQXA+VdhFy+KJglhHRDAz78v3ypj5OlI+bc6oGp4nJCCCHtTZ0eijk+whB1TcjakYaP+ukJXKQrlHcRcrmiYJYQ0i21iiIs+x8vFNh7496/2cJNfIUQQoiGW5A/HhgpVAG2oCLuHFamUPPiS4nyLkIuT/38nFlCyOVIXV2Ds4WmGOlShvW/VfT/Iy0IIWSQqS1XoUpmj+CCNCzb30CDDg0AlHcRcvmh0YwJIYQQQgghhAw61MyYEEIIIYQQQsigQ8EsIYQQQgghhJBBh4JZQgghhBBCCCGDDgWzhBBCCCGEEEIGHQpmCSGEEEIIIYQMOhTMEkIIIYQQQggZdCiYJYQQQgghhBAy6FAwSwghhBBCCCFk0KFglhBCCCGEEELIoEPBLCGEEEIIIYSQQYeCWUIIIYQQQgghgw4Fs4QQQgghhBBCBh0KZnslAnfHrMMrHiF8/nIlw8TgtXh/2DWw50u6a+r0YVg73RoOfJ4QQgghhBBCemPIsBExF3i6fwS8g+j7o2DNZ9vI3YbDn73DZwabECyMeRmz5BZAcz4O7FiOdU38pcuMi8ebeDs2QExXpqzBC+l7USfOGcctPACrZzqL6YrTSVi2uwG14hwhhBBCCCGE9AzVzPaIUFP5jBTIohE5p9ZctoGsoKxoJb5MqRDTDuEP4Nlu1kSXpGRhzWkpfHUcORQvh5uKaUIIIYQQQgjpKVNXd69XeLp/VGyHYve3yNNO1WiJjYWjJXtNlY68k4ek9w0iQR6v4dEoOYSQrDTxTfyjIEV64bKlRm75WVjbT0awrQUcvMcgKH8XjqjV/PWuZWeVw8bbFaH2ZnAMtkdodikOVPMXCSGEEEIIIaSbqGa2u8zuxT3RATBnSbViCz7NSZCWX/bS8OOJjUgX41dHjBz9BCaKy43VjK9/yUBqg5CWIfpvHpgqLieEEEIIIYSQ7qNgtltkmDP8GviJkWw+DsR/jQzphSvEJrx3IhViPOsQjZv8osSlxqvGqh1laBSS9t5YMMFMXEoIIYQQQggh3UXBbHdYLsFMX6GfLFB5/mt8exn3kzWkruy/OFospV3Db8F8KWm02ow8HCqU0u7R3rhdShJCCCGEEEJIt/T/aMYdzIXXiiXwt2PJ7oxm7Ho/3ObMgneAM6yFmlGBuhE1peko3PULSs7u4Qv18cCQkPvhPysWLq62sNCsr09VAuLeehr1fFbXtIh1uCfIhm03FX9uexE/8+VdudlvLB4R1qtNx6fHcvAbLHCfPAAz/dzhLOM701SDopyz+ChHhZPSEj0067my9YROx0yLGtXVSpzNSMN/KhpRJC3VK8jKEYt8/DDM3R622oPQjMbqCqQrcrCjoAJbWvjiTli7vYYPrgoVm1oXnlqGfxQUSC8YSRbqj7XXurBPA+Tvi8PyeGNPQSeMuusR3BDhDPO6Yhz78X1sTr0C7ygQQgghhBBCBkPNrAcsr/0WY55YiJBQnUBWYG4BG89whNz5D4xa9IQ4IFNHHrCa+xHG3jsdnp5dBLKdugkTfVlAyqgVSdgipowTbCuth9paHLZwxsfjJuK2Yd6tgazAzAYeQWPwcogtX9DWGHs/fD1Bsx4PZAUm5rC190BM9ER8HOaISL64LTM8HBKDNeNGIcbHRSeQFZjCwtYF4SGj8HiEK1/WubqSPUjnz9bxDFyAoVLSaLWpxUitkdLeI1wQISW7Fn4jrhUCWSFt7Y6xC+/EMPEFQgghhBBCyJVmwAezppNXIXKCXKzFQ50SimN/IOHjf+PEx18g6VgaqvgDT60Cr8fwuXOlGV2xr2DkaGfxgzaVJCBp7VM4/NJMHP7380jYl9NaAyvUyArLDdTKwjFK6isrPIonb303nrNqAhveNbSxxRGvjY1CsJUwU4n0syfx0aGD+Cg+G0pewWjh6o6bpaTWGNcIvDw6GB7CQagtxKFTh7Fiz278jU0rjsQhhY8KbOs1DPfpiYUjXYdhro9QFc7UliDxbBzWse2+Lmz7VAIOZRRBWd8svW6UvxCnEHu+Ak6hmNjts6gOx7P5SMjODpgqtdzumptd2+cVW9vBiScJIYQQQgghV5aBHcyaLUbAdD+IsWBdGpLW3IbMzR+iVrEHasVPUG1ejDNr/kAxjyxtRs+DS5tgzgNOo0Kk9dVpSF3zNFR5ieIrqD+B2h33I/GQQpq3C4d8pJTUZ5SLt1QjiAoUlosJI1nBVialLNx94ct2prE4iQWSp/CoQoUtjY3YUpGBk9JjXNnbrRDMkyIzOR4f4SEG843KFHx07CxeVdWDfwok1ldgWXI2pHjWGrZCoNzOTLmblGjMx6/HzmCFogL/Y9vdK2xbpcSrOcm448g+LElWSu8zwo4STdNiR3j2IKLcml3FUzbw9uHJrhw6gVSduwhVCTtwnKcJIYQQQgghV5aBHcyOj4E7bxFbvOMVqDQBn66KD5G+Iw1SxaYcrqM8xJRkAqwdeVKRjgo93SubU4p4LasFLDXv1WOoPX+xvgS5RvQrbSWDk06A2Vh6GiuTi7GXz2toG/5WV6P1qbUmeGpYCAvJmaYS7D2j0Nu82cPKAtoYvsO+WcDJyJrPjJZufLDaCkgtjS3gYGN0Q+FW5XWQWhqbwUFu5KjGTUfwzdvv439/7MKWb9/Cez+d4987IYQQQggh5EozoINZW185T+Wg7HgnQxvF5ULFkzL5BJ4SHEIDb4ILeTAc9cRMpuEevOlqIxr0Bcsamg65TWpU8qRRrFgwy5NoKsLe5FK9Azy9cUZqNvy3EzmtAauFHGNcpTBXmXUe7+rGmiZmmGrriNfCRuPzSE9pWVMhTnSoXG1EoopXZ1p4Y+7YEXjLVWagb2031BSglCdl5p3cBTCktB4lPGljqb+3s171BTh9aCsOp5RQIEsIIYQQQsgVbEAHs+a2vEqxqlx/P1aNphTU8VarVk66jXSLWBDMa23NQxC65B3Y+/AwzioGsplfiv1xRVUpUJyWkn1KZqutNVVmpbUNSLsw1VUOZ552DpmI/5s2vXWaMhnPx4xCjJeD1J+4sQSHTpzFWvHdbf0vLREnKngfVZkbIkdchbemTcHG0WH4JzvGunXZhBBCCCGEEDIYDOxmxn3h+HYU8UDXzC0Kwx9+F+P/tQPj//E6oqb4QWwBrFYg7Ye3Ow+Ye+hmW00oW4azBXzQJCPFODrwlD7NaGysgbI0F4dOHcSSQ2fwqsEPUIsX4w/h3VMpSNfU0sIUtvbemBAzEZ9He3UYdIoQQgghhBBCBrIBHcxqnz5q5yQFnYaYhQsD24rqytOlBGc19x54C69V5aAwtxqNvIJS0FRXDWXiNpx6626U5HX2hFYdZuboLMRsb5g9fyxPdQVOdKuvLaP5doTn0/LRi1unfbjx0DHccSYNr6oakcHfalgLdqgUePTUEbbuXjGwza2VRjC2cByKW32MHVKYs3bTHofahiye6gYnK2gaJ9eUdy/IJ4QQQgghhJABHczWFGo6gPrBJdZwY9gh08O1zXGrsn7lKcFieI+UakaVh19A1mdzcfLVmdKjedh0fNVcnNvwDhqMqJI9V8471Fq5wdfoo2YPD3uerFZ169m0/UsKbB88Fo90Hkc6O2p21EgyR0iDNDeitFozsnE3sGBWWl+NkhLtbYsumdkORezsaxEbaieNUk0IIYQQQgi5Ig3oYFZ9PEU72JL79Gcg01c96/g0wsbzfq91KSjUfVZLQDBstMME905cRQkLuwTu8HPjz9rpioWt9GxYpqhCM0SV8ZT1DVJCJseELjapL9Tvsi+smQyabslo6t5wShPdvPgIzAXI6WzgLAOm+ttKfX1Rg+x8MdE1s3G455kHcOPUGbjxvn9i+W1DKaAlhBBCCCHkCmXq6u71Ck/3D9sJMHcOhqltAJ8C4RQVDjtL9lptEYpy2U5oXrOyRwtbplWdgirXWfAUIkJLOeSx18Pc0RuNKmv2d6+C7fTlCL9lDOzFwXAbUbz1aRQXSA98EVVEwn5GiFgDaB08C5a2wTDxnwxZ8FUwbbHABSthu164UM92oqsmwHW+iAkLFZvWyth7dxad6Xo0XTtvPCgX2jjXISMjFzt0mjgbI77RErd6OcCUhX0enu6YekEN1wY1HExMEWBqjRtd3HF7cBgeHeqDsJL8Dn//kRFT8LyfAyaZDUHkEHac2X4HmLJ1zW2wwNWXvR4MD/HY1SHlbBq2Gd3adwIWjJgsBerF8fgy/wR/zq2xLHHHNE/IhXOgUIE1yXXQPHW2U/5TMTNWztaWWMpd0Lj3GHK623ybEEIIIYQQMugNGTYixvg2nj1gdcuvGBWpfQpq56oSEPfW0+0GYoqB00MrMcxXU4WoTyNKt7+N1P17+Hwrq2t/wsgJzl3W4DWV5yDjl1Uoy2rb57aVDPOj1uI6cT/ysXvLcnzbRRA1xy8GjwcJwWwJduw5g3elxd1yM/sbj4h/ozNVSDxyAivaNZd+asR0zHTlMwY1oOjsKaxQ1MPIXsOA/T+xespw8SZB4all+EdBN5sZe/tg3Xx3CL2J8/fFYXm8kaegWRTueP4uhEvPUmJUSPz8X9iQyWcJIYQQQgghV4wB3cxYcgLlny3Cie8PQlHSdgCnFnU1ylMOIuHDRXoDWYG6VKmtQW1RN6KxTprax6FmTn4Iu/8deAXwBR3U4ufMVPavwBtXBeo+z1a/SHsehFarkCKluu23nBN4/UQKUpRVaGySBmwStajRWF2GlLQ4fLqvYyAr+C75KHZkFEFZ24DGNh+4GY21lcjNOM3WPYR7uxPIwgt3D5MCWahTcbC7gSyG4IEJUiCLhjLsNTaQFTQl4H8/xhtXi0sIIYQQQgi5rPV7zewlFfAOIu+PEgOnptzdiF+3Cur2bYNtZ8H+2vsxNFKqvW3K/AXH130ivdaBFxbGvIlZcrF9LQ7832NY172upoOeteM/8fYkKZgtjf8HVuSlSS8YSebtg9W8VrZ4XwIei9cJ0I0yFLc8/wAixfsE2dj+z9XYf4V9B4QQQgghhJBBUTPbc/YzpEAWUCDrBz2BrKB6O1Qb9qCU1/iamUlr6FeAH+MPoVRMu2PS6MUIEtNXimvx2GheK1t5HBu7GcgKTbWf/huvlVXlY323A1nGMwq+vMJbnZOEOApkCSGEEEIIuSJd1sGsqU5H2ZbOHr8j94UdH/W4sbpcShjS9Ak+PZ4ljWzsPg2PBU+FtgvnZS0EC2PuwDAxki3G0WPv4Ji43FimuHdeCIaLkWwNDm4qwiFxuZGsnDBswr14/JFYOIkLlIjbtLubA08RQgghhBBCLhf9P5rxJdTsdT28vIVQ0xYOw2NRV1kHdXUWLvDavCGO14kjIg+7cSRsxFF9lcj+3wuo6SJCKq/Jgq39ZATbmsLKLQojK09jT43mmbiXIxkmBr+KWwKFSLQROcffxLuV3fu8U6cPxR2hwjjETcjacQ7/zjW+dfvkR97GgzdORmSYu/Q91RXj2HfvYnM2DWNMCCGEEELIlery7jNrNhceSx5AkFtnIyFrKFH4y9vIijvB57si1FS+LPWfbS7G0T2PYW0df+ky4+LyGlaNDxWfK1uZsgYvpO9Fdz6qW5A/3rveBRZoQUVcCpbtb+ADaRlHCGZn+amhripHVuIWbNmWhFJqXkwIIYQQQsgV7fIOZkXBMB95N7wnR8HF1RYWvDmxSBjduFqJspQ9yN/xpf4+tZ2KwaKYB+GZ/Tb+XdLd/qODiQOmDXsLN6l/6HYgKxmCa6aH4ZamrG4HsoQQQgghhBCizxUQzBJCCCGEEEIIudxc1gNAEUIIIYQQQgi5PFEwSwghhBBCCCFk0KFglhBCCCGEEELIoNNvfWbNzK14ihBCCCGEEEII6VtUM0sIIYQQQgghZNChYJYQQgghhBBCyKBDwSwhhBBCCCGEkEGHgllCCCGEEEIIIYMOBbOEEEIIIYQQQgYdCmYJIYQQQgghhAw6FMwSQgghhBBCCBl0KJglhPSIg5c7Pl7ogsl8nhBCSFuTpwTh4ymWcODz5NKjvOvKZG1xHRZHf4iPZ3yNz2YL06u4lb9GBrchw0bEXODpPmVmbsVTRFfMFF889jcf2KrysGN9Lj7N5i+Qy5Ljos0I9eEzbVQj9+vboRik37/M3QVvz/eAI0vXnE3HQ7sbpBc6M9oH9/w9EPbiTCl2P5uCpDpxhuhljWlvxGCEjM+2UYq/Hk/BWT43OOl8vrxkrH6rTFpM+oVsqg/mXOsNu6p87PwuDzmU93RD299i/oH9+PV/UrozrkO98eEMKYytSErDM/saUSvODXD+qzDi3pHsUw/ufEqfHuVdZNCztnkKr06KbHdTKRt/bfsnjPgpkwGun4NZa7y1aiyirKVlbbWgUV0LZX4xEvfl4d24ftmNgcXdDV8/HwE5n0VWPGZ/WMlnyOXosgxmre2w6nZf+FuydHkRPv2xDPulV7rggrkfRcBbTBsRjM0Lx9JprnymHXUjypUliN+RiaRjl+u1g4LZnuvs2LWgieU9pfklOLMnH2dPXQl5jysWvBiuzXuashLx6XtXQt4zBK7zvDF5tDc87C1gJi5rQYNKyb77NBz+Sy0uMcawFZNxDb+W5+9hwewvUrorQs3sI8OF8lAzsnel4oVzLdILF4nZ8H/AdcxQuDvm4fxHL6CeL+/U5RrM9jjvIoPbdDw15e8YKsQianbdj/sB/ys/BYX0IrkMXMJmxiawMLeFPCAIs+6ZhPWP2iGGv3LZsjODBU+KzKmV9+WuYt0NOP6qzrQzj78yWFlgxTxeGGiowI+XqjBgbgEnD29Mv2sS7lvuBL0xy6BXhz3P7cfqx1unH5MHRb3OAGcCMzHvCcQ1f5+AOx+zu0zPHx32ZhB+shpmZldA3vP/7d0HeBTV2gfwP9lN2ZLee4cEAgkdQheRawMFFCxXPrlW7A3LVVGvV5RrL9gL9oaKBaVJ7y2BkATSQ8qmt03b3YTvzMzZZJNsGqRteH/PM3B2NrNlZnbOeee0QHvMfj4WS2YGw7cpkBVYwdbBDWPnTeqTa8eunZn4M7eBpWQIvCgIKzyk9X1FPXES/IOcYdu8Ay5QAyTvIn1PNQb+YqWaDunxT+NNCmQHnb7L0Wpz8PPbe/ECX978+TgOZVayU0tgBZewMXh8mdkq3MEjLR/fHS2XvrO+HId2lImrCbEU06b7IVpsJ1yH+N/z8Ju49hzUVKGYJ7tCc2A/1r7Jlw/jsC2xGJX8OVVQBOYuGMIfEdJKTS7+MJ47bPl2XQKOsLynWnzSCs7hMVh0yyDPe1I12HKkHGKDSpb3HNk+2PMeBWbeGYNIB6GIo0NZZhr++FI4/gfx6+5cFPEKWVVQFC67QSY96LIa9no82SWN+PLXM0gRd74doudQX83+0GN5F7E8Kkd+0yof6SV0Q3gw6sPbszpo0vTYwZc/dpbhyTeO4Za3E3GGZyzqkWF4vI/vWva1X76Ix5UP7MDcFfF48hBfSYglcHLGQrG5HFB9MgdvF4rJbmCFwHPMRxpq9ahK5cuJKpx8Lwmfr8vlAYkcvmEuYoqQtnTN5w5bineUYd+r8fj0zSTk8rzHYVQIogd53lOw9gQ+FGr4HzqBfQf5ykGrFtt/ykClvhS7PjyAr17NQ8ZB4fjXI/v7dHz3UQqM4bzXSG+005mhheLK8ykE12D13/xGtoMnFk7sbgBNzst5512k+0JxbcwaPOszBgPmVmF9DWhkhsGp39saFaQV4btkLX/kgtBYniSEDCiLJ3nAXUgYyrF1IAxksiMfGcYP4aLoUoGUkCapxdiW1Jz3BEzlSTI4HMzB50+eRPwJ/thUkgZxBTyttIdnH5S2azI12M/f032UJxZLSdIHBlzedQGYHHwvLvZUwXvkfVgVdQ2C+fp+pdeDRqkZnPpuAKjadLz7xBn8Ij7byvRQ/Ha1n9if9MyOHbjF9I9G+2PdTSFQs8tP/OeHsOLYEFx+lR+uHh0AfwfeCUSvxZnkVHzxdQV2tDO6gWeoCndcMRSjfNVQN/VV1UFbIAxAlY339uphzNuMHnp4Bi7xld73PYUvVl4RAi8F27YyD79/koK3smS4574xuCJIaMDQiNLUOLzyThUOS5tLrhqBjTPMF7O1SQex8IOuDedq/vMzeh10tVqkHUvG/b+0P5iFp4cCy66LwDjT7cUBuLKx+fcCfJImrepxU97F+NnCqBk5SHnuTpTLpkExexGCYtgxlW6UorGuDMWHv0b233+h3ZNRNQ8u8xfBJ8gZCn7YGw1aVkBIQObGD1Fb0tGtVg/Ih90K39lRcHZSw9qk75Chju2/8nScWf8IKlufAE2CYTPxVgRMHAZ7p+a+VwZtGSoyjyDnjzeg6+qAiE37o+OBNYZc9BHGTfUU09rDq5G0of3ePfJ5n2N0jDNL6aD5biHOnJLWN/PAkNClCJg7Bi5u6hafvzRhK3K3roVB6NLVERsH/O9ffvBhyfKjp3DXgc42MKebA/6YDABlfsAVk9crScHaZzWokp5oZQjsL/bGxTP92wwCk3I0Hbt+qkfH38bcIDIC9hr6OlSW5mL3fzXI5WvbUFjDd0Egpo50hbPS9P3LkZ6UiYM/VaOqi6M6u90xFkuGC1+44wGgfO8Zj6vDhR+YAem/7sOGLdJ6c8IfnIy5QcKnKsWu51nhv81P6Tz3n701AuYFYnKr729g164G2MHWmj3szQGgajLw7WM55pu1zwjBrQt9xf6kbc6xptG3a5Dw2RFsP2o8D/zha5L35CalY8tXFe0fwzAVxswLQzS79qpM8p6ygiIkbT+Do3vaXrelwYak992l8MHVVwbDS2kFQ2U+tn6YihSW94Q/GIPZLO+Rs31ZlnIcP79V1bKQ3sEAapWJh/H5e1086cx+foYdv3qW96QfPY2tP7Wf94DlPSNuHIoJptuzvKco9wx2/1qI3FRpVV9r/i0Zj6+0vj1d/e11RBnmg3fmOIllnbzdSXjkRM8Xv9ofdLA9ZvKi1gNA5UyD/eXXIyDKD0rjqV+eg+z1q1GalSGtMOsc856m9+flBtt/wGXh9S3yf+H983d8iIL4Tg7cOedddlg1ejRGskOuzTyGJbl18LBW4taAEIx0U0Et9jtvhK6mAqdSUvC4tv3XDbZ1xm3B/hjmqICNsb+6rhoFxbn4MbMEf3Z4GlhjqZs7Jvl4wFPFtjf+BA21KCsrxIncInxWrcfAq2yOwNVR9+JSX5X4SF96BN8deRM7+3b8M4nHc/hgdCA7kMfxwZ5XWpbRyaBgkjP1IxZdtBgYqT0KFZ5/Khb3sgJIUyArsFbDf2QMHr7b1ewgUpdfNwIf3T0OsUEOLQNB9q5qTz/EXhOLNfc5tz8Alb0nVl4TJgWyAgcfXHGVM666LYYHsgKh3+8oLJvNH/agcVdFtvP5GWsbdq12gb+Hyf5oZdz0ULz++ATMbL09uzC7BEVg8d0Tseby3m/2ZOW6HMEPrUDUpOZAVmBl5wyPqXdh+IJ5fE1Lsuj/YcRDtyI0rDkjE1jJWWAeNglRd72B4LFj+NrWxrDM/V2MXjwJHiwzNQ1kBXI7Gyi9WAZt8nlacLwF/ve+iei5I1kgbBrIsG3VznCNuhjRD30O99CebaN4dsdRFBuktDpsdov3bWkhvCOEQJYpP4H8NoHsGKiufRljbpgufv/Wn99j0iKMfugNOHQyCWLkaBexMCD0N0o91dXCQGsmAxr1ROAywxvB/OdXlltiPpBV2CL63xOwdF6o2UFgomZOwLKVXu3XzCgUmGp2EBkBew32G3L3dIY9X9PGSA9c/fwkXD3RG+5NgZxAeH8XRE4cg6UrhyKc5bM9KXdLLm9GKUfAKH5+mOPhhmgxkGVlo8y8toHs+e6/CV5Y/MwkzDPz/YUbnmIg25/YBaFLVz6W90xeOYmfByZnAct7fEeNwpJ7XM0OJOR0QyRuvXeMeO1uEQiyvEcYwCyWXZc6HITInp0/i0PFQFYgd/DG7IXO8LxjFOaKgaxA6PcbhZkXiw96lHJBRDufn2F5j3AO+3aQ9yhZXn3Dk+Mwq/X2wu8maBiuvnc8Lruyf5rc2rPzUcIC6ySe7EDxe0f4QGznPop4TWoJUvkdB58RToiUkgOb030IYfl2RExzICuwdvJD6NIX4NVu3tczeY9V6DMY9tBdbfJ/4f0D5v+b5f0d573nnnfZwcmYv9TWYZpTKN6cEI3JXvY8kBVYwUbpjJHRo/CyFLO1YosVYTF4a1wERrqqmgNZgY0Knj5DcdeE4fh3O9dPD1t3fDx+HK4ZFgh/e5NAViBXwNk9ENNjRuCBPmhZ0H3J+DnhYaw5kQfhVpe1y1jcOPUpXG3T7tWOkHMmc/PweYane5SVTLjqWGPObF94CQUWQxkOb600mwlcNScE492FP6rE6d81+Nt0bApvRyyOdmZZ/xC4DGUXLzX7NesrkRafhJ/XpWN3bjV8gtzgyDaXOTjApyoXf53h2zLjrhqBh6e4ScGyyXZ/HSxABfuIbm72ULC81MbJExN9C/H9MR5BMLGxQQh1sGZBqhMcZTVI+v0o/rZyQZQLezMrBUL92LaVOfj9y3TIIr3gwjJrtVUpvjkkDWslyi3FmZM52HXwDF+qET7BDWr2lK44F98faX4/s0K98cq1AeLfo7YY8cdO44+fhc/PXutEEWprK6BtZF+trAR/JJi5UI/2x1tLAqW5tWoLsf2HY3jpkwy8tSMbBXUNCAl2hpodK5cQJ0RksX3fnVF5uiLgCviGCKMu2MFhTATU7EA0anOQc3ATMv/8HcUlrrBjx8+WHVZrDz/UHf4VtaY3+QNfwPDFI6TCXl0O0ta9gvSfXkXu7hMorvKEMsATtnIWkA6NgT75Z9RInSibyC95CSOGi3sP9ZoTyN7xJzK3bYLmyB4UZtWiurIaBrkedWl/ge3KlmTz4HXn9azwKj2szWHbb/4RWbu2s20boHdwhT0r4A9h54LT8LHQHv0D9R1UUIia9ocOlfHroG2vzcvZQ6j3XsQKAezktHPDEM33qDQX/41YhpBRbmKBvCLuLRSltYxG7Oa9iqgoR/brYd8/ZyeSP30FWZvWIO9wIaocguHooYZM7gy3iGEoPLAd5m+aDsHCiT4IFHZjWRE+OVzXrcGbzlmkOybwm0VVmdlINhY4PWwRcFUo5s/xloJIfRF2flKI0lbHXvjc4Q+Ox0U+4gUIRYkJ+Pn909j5YzaOHC+BNsgRwez3LVe6Iiy8Akf3ta1eD2CF7Rmewt41oCwzA3u2pmLXljOIP5CDlIIqFGp17FqnR9GucpRKmzQLdMXVt0fCV3h7oSYuMxN//34a+7YL29bD2lsNV1v22iwgCotqRPrflS1r1sxQjvNBlHitrEH6n8XtH4diLazGBIjHzMpJjvojRShos3/Yde+qYMzwE0pCOpxi3y2jRUuB89x/gR5YdMdQiLuPvX5RilCDl4b9e3KQnFPOrvZWcHFXStfmyiIc3NOTkw5bI+hiH3gIH11fjoQt5vet2yVBGMXznpRfC5BjehC9HRAd48yKo0PgOMwX/jzvOR13Cn//mIETOdWwZ9cuJ7a53MEedpV5yDDJe5QLIrFkKru2CQ9Mtjt8oBC5LO9xdzfmPR4I9S1C/NHmvMBtSiBC2L51DHeCk5D3/BqHfVbOGOZqDSsrO/iIeU8u/vg8k/1OPOHK8h6lVRmOHjTJe3LKkHQyVzxXpaUaXhOlvKe+KA/xhzvJe8K8sGCxvzQvdE0xEo6mYsdPwudnr3WcnXvsglkj5D2lpUg5YSbvGeOH664PEOfzRE0Rtn0Xj78+ysSB7WdwurYB3iHOULG8xznUEbJMtu/75KJipEDMfD/p/KjMx55NVV2bsua8NUDl4oxoN3YuKdhV+XgFjpzrvcF21KfnoCB+j5jHCUut3xQ4Cwddm8yu/5/gDF9vulRpclmeI20vcpoNjxhP9iuygWNEiBjECvl2xm9fIHPXIVTYhcPJQyGEcnAM8DObd5xX3tP0/g5wGeUjlg8M5enI/ONr9v6J0KpZmcZNeH8ZlKzc0Ct51xB7LPB3Yb8XllfrHXBxqBs7a9iVrEqDg8mn8XV2PirPqhHuIPzC5bAzFOPHCtPflB1WRcdggotwhdOhIC8FP55MxZNZZ/B1Tj50dUoMd1VAxn7P/na1OFFU26p21Q5PjhqBEPFGO8s/NNnYk5aBH7JzsSe3CJXaWjTIbOBgOwQlGg22dvJz7jolvOSh8JG7wVXWtUVxtpjtC755C3poqrYiqTgCo7zdYWfjgvCAqQgu2ocDXW7Odv6GOl+OWA8V240FOHJmH/L4ejJ4sEtE//Ic749/RvI7NaV5+KXd5q5y2LCMR1eQjDefPoblX1Tge3EgqQLc8kM6pJ5PdvAMFXInzs4Ry2J5IFurwe/vNG+3I60ab32RguveiUMaL0O1NwCVjbUc2qRErNpaj0/2aqT3YoGzCyu+7v0kDW8lVCCNF4JsFOK7NatqaBr0SloM4l2qLhvpwt5HUIf4n09ixTfGz8+WhCq88mMBVrxxEsu/MXdhkIlNo4XruDCa9HfPJWHVoQakC4/rzmLz1jNY+k4yH6LcAePndnKL9LzYQM4yxJrk9Yh79U5o/l7LjuUu1B54BKd2GKer8WQZJ0+KxsD18pE8kE1G4it3ovTUUSnPbUiA7sgTOPX+ft4Hwhl+c28RU6bUfrxWSnsCpz94AiVH1sHA3ldYdCffQOmmJ5D1wX0oMdPcVz53ESvASmnt4XeQ8MkTKD35F9/2f9B8ch9OHOZ3XuR+CLp8oZTuIbXx6dLoo2zfOUebe20POIyNYBm+oADFexLEVBPHfyMgRvoC9ck/4vgn/2MBO28SVr0VVT/dghPGTlxOY+E/Vkq2pUSg1OKZHbM6dKESo8f5zpyGu9/ky5MTMG+iJy9k52Pju8lIMdfGakYwpvoJN9WE0ZAP4rv3KlDO/64htxonVx/BzylSEdY2KAiTw8SkCQVCjLVOBSniIDLJO+qbBhIq2FKMk2vT8dt/M5Ei/VULwQuH8kC2DumbD5sMQiNsm4dNTx7GH5m8CM0KdzOv7ckRmc8iKcUYmbECxExzr22NsZF84CwWbCTvkJJNzmv/DUGEUKMoprVI+PIAvnurGNknmgdhOvpeZnOf5/4wwQ+Xic1GmZJ8xLfb3FUu1iDXF5zCl0/GY9PaChSI36EQv32fwUfVtoNXmEneo3DEzCk8kK0pwB9vNm9XlVqNjLWp+OrN40jn37+9AahsWd5TmZiMrVvqkb2nQHovlvc4C03CP0xHxokKZPPDbGsm7zGeq9LS0Elz+lZGOUv9DNn5m/BTErZ/Zfz8bDlRheTvC7H91SRs+Mp83hN9pdBEm6nJxc/PJuPkQf7+tWdRvoXlR2+easp7oi/tzbynLeW1QYjgh16TVIByKdkn/jpjvKukgLdUZdijzlZI+ZtxaWgKcvTQm6xvXg7gbCcnhp4Fo/Fv3IkSMf/7i+UdD+N0Kr9x4uQHx9a1kj2W90jqM//E8TdZPi2+/zqUf9/J+zc5j7zLTgHpZW3g7+PC/tXhzKnDuON4Bv6rrccufT3WZOXCeP9KbduyedfS4EiMFG6AoRrJ8XH4V0YZfmzgER/b4T8WJmO/8Qa1rW3bPqUKl+aWRylx+GeaBq+L76tnSw3WFGvwcOJxLNgXjy72Vuuikbh24uN4eFbXl5s7GbAio+JFPL17F/KFS4XMCVGxL/fhwFBKjHDi15e6Clj65IjEvD4MZm3gxQLNGXy5fLoznr9vND66ngdbrMBz6PeCDtuya1MP474XWcGg9S3UYzVNIxPamLRD8fyHH6TY1oC0Pafwlrn+iVkVeHaPccYpF0RM50lTeg22f17bpk+tLjUdz5p7zR5lvN8oh2egNQv3uiHCCxG8rKo5kY5PzN16zirAvkye2/m6YZmU6hVlu1fj5PcftS1Q5ZTBeC2WmeYHnvPgxS+SFXFrUW0uw634L/L5NAlyr2E882nWdLfWzgNK1+40BZ4Ht6bmu0eQsuEvKd1CIXQb1iKbl4Rs/cayIm0POvUXCoyvHTa9bVNW2SK48r5RhsyjbWom5TOGSTXy7MzN/WOtmGqtYdP+pubMjqFLpURrTnb8ddjuLjZ3EvUHHbK278Xbj6UipZ0gJHysp3Q+6HOx7yvzpbXcP8/wa4cDfCe2DvgaYTAWBO3V8G23LbEZClfENDXfTcWG38y9fwMy3k1FOr+75RXuKiV6iO63vObXjvRse/5EukNsJMCUpZ5p0+f3vPafhzuieCBcdjwB2/t19Fwb2LNA07i4zXDG5AejceuNPNhiec+R3wo7rBWvTDmKT/5biPLWhcajtU3N22WmbSAv9UEIz3vS95xuVePNsbxnAwtQpVPMBSEzxURLenZ9Xtu2pFqdkon4Xs97jFUtcjgHmQTqXcHOtyh+OmtOZCDXXGE7qxBHeN4j93WFr5jqA4GumDvRjX0rpjKDBenmz+1eU1bHR2GXwUlqtjCgGXK24AQLRlv2bS1ENTt+EhWsWwUzPZb3MML7n/x8TatyQ8fv3+R88i6FgpdNBQacSYrDncWt+6YKddMSbbXJSa7wYZcAqTSgzTyNh832p7WGSrzbxbCCSptKDmvT9+/IWXTUa3mgqK37CCt3foYE8Y6cjTgw1HPDLunVgaEUVqGY7PMULvaVasfPZP5B88sOUn0XzCr8cPXdsXiCL/dePQrjgxykC4G+GHs/PoInj4l/2a6y3GqpVrGNEtwiTHfDFtMBlS43tg9FKdL+4EkzCraWNp3gape294q0qdl4q811sAZJe8202+tpf+UhTbzKyeE1JRYfPRuOldNtMaoLUZNnlBOv1dWioIOBJjS1/A6ntRL+3Yn3ukULbdounm4l6wkkPHclDrEldQ9fJwjzk2pl2baVp1rVOprQa/mIpHbOsGsVzVbGp0uFRbknQu96F5HX/xsq3yjxuQ6pRsKB5yQ1mft5gdOcrajI4e+vZgFzj5ZNtqIwgd9CkYfArVXfoCEzxsBNLJHpUHxgjbiumQccvIy10oWoavdULWSZjJSydvMTm4S1IbSE5ckaXfvnUW8SBucR+qu9++5xJJQIR8MGgTMjEN1uX1NFc1++grL2B2dK1TcFMc4urYsO9UhI4bPZKv1x9X/H4uo7XOHp24Ua1AmOTaMr52aa9ptopbYMWcYKVBYwd+tmVWfYa8cba35dvRHVqoOe78W+kM6QUiT82roodZ77b6oLr5WtQ+7xNsW0vqX0xeX3TsJSvixZGIWxLO+Rmv8WY9eHx7CvkzFkqljeYz7kKcHPYj/KXS0GVPJtynvKkNLRhJZbSptukjqZyXuqU84gpU0gWIOMPX2Q9/yZz2+GyOE7dRJufT4MY2bYwqYr1SkjHfm5pYXmePvXjKoaY96jgFuv5T0mAu0x+9bhUosJduy3fNjOwGC9qYRdr3lSKXQzGNC0yN/6Rjvnfnt6MO85p/c3cR5516UKY6TJctiiFKwpNfcpSvCvPftwBVuW5Da3ULjV11cKRA2F2JnbsvA4UmaLpW4+eHf0GIzll8wyTRH+lJLNqsqbrg3CXNhfhLpjqXUX8p7zdgBv7lmK2zZ2fflPywi/fY3b8Oa+VfiTXU8FjkE34OGxtyBGfNSDhAGf5q7FG3Oexs0jfWCtL8eZ+Hfxckk+/wMy2PRjM2MDdJXFiN9xEI88fRLPth+rnDNnY7MrYbRfKWVeHQv2eIFB7cDbdQwUdRV49vNkaHh50MbBB7FXT8L/Vk3DuqcisfoqRbuB7WQX43dRI/pfM7DxNfPLncZm3rBjgR5PDgB2nsbIVA3/pb9h/NPml5FRxkK0mTu0R/6Lk/sL+F1PG3HAqOH/WoXxT3yDyJtegFNoO4Gtm6rpjmt9ibla2WZ1TZ0R2TbdGkWyc6YDQbmNXWqS4UfBJYKHPmYHfpoEG+NuUY9EtJn9Ji23NjWlFu4ENGffA1NDUgW2r05AkhhBuWDyQl5oakMJZ+Np7RfV3ES5zcIKtvzP2jTTZMrXJuDXFOP0LUr4Dh+Oax6dirtfGY1F93ggILKdwoWrLd+XNajiLQfaU1zCCztKBQ8Aek7zQFBqRFxseqfHHhFB0oXD7MBP57n/7O2NZ1INyjr5/n3PgHqW9yRsP4wPnkwyP3XLebI37osabVOrIbNqq5vmXlaZyXvOuRDfE2orsOGzU01z8do6eCN24QTc9tIU3LwyAjMXKNoNbN1M8p6YW82dN9IijQ4ssINzD18727BXYeatMYgU7zNokfBdEpJ7vXb7QjQ48p5hKuP1shonMsrR9cuEA0a68huBcg9cNmUyfjdZVk0aIw3oJA7q1oiyvBN4rcDMDb+zJXjnZCE7UwU2cPYKwzUTJuH3iaPwrq8zLu2LuLZX6FGpN/N9e5OVNeQKN36DlQxGfRfMClPz8NpTadmDK1eexIpfanG85Y0r0kpBQgGWrtiJN39PRVqpcWdZQe3igegZE/C/56LxfGxPXNmEGww8aZH0aGhzLhVCt+kWxL30DpIPp0NrfF4YCTloJMJvWIWY5c8Ig7YOTA1rUGjsG+Q1DM7G/NVzUVMTbG3q1g5qjrvBoOuZ1+lttVXYdVSqzpQHBZjp63puDE1tik01IPutY3j7zaPYlliMMj1vuG6thlf4MMy7MxY3PejMghdp9YCTlI8E3i9L5evZ3JTzSm+E82aw2cc7DLe6zHT/2TY1uW2Ewfx8SX1HmJqH155Kyz58yILY7T/VQtem1pO0cKIQPz+0G9/+mobTJXX8+mAFlas7omaOw23Pj8TkKT2T99T3Zt4jBLKPjkGUGMgKfdiP93PTd9LCgMt77NB0L70sHz92J/ayVaODAb7F76rTliE9Mxkf7D2Af2Zo0V7DkKPlabh37zFsySyF1sDzHrkK/kERuGtSDN50GvjN1FuailvHP4bFQeKwcKjI/AovH/kIceKjHlT4tFhjfN/mN/DT6SLoZSp4D70Bt/qN5H9ABpt+rJntQwo1QnnSLDt109QS2sqOek71p7P4Y2sulv/nAOY+vhMv/5yIpAJjEy0njL9qOB5q1UyrrNaYPVTi0NumNxLaW47hyd6ab/YcGOqMOUgZMt+XmiF3vNyEotYdm43q/0LVhvuQtJr93SuvI3F3Mip4YGvtNhYRN9zXppmTsVGSres/eMq85hrkctT1wp3+6qaBoDzhPVua+0k+MYQ3wS5AwY5dYqqlsuaBP8qP4JjZ/dVqefOZTgsUSpuBcTu4uT+oAyIuNa1xNGKFY376GDKPmwQy7S/vvdrBdOqp1Tj5XhK+emgP3n3pKP44wgfjYZdQh6AoXL20dTRrPHuUsA/iyXa4ufKmFTVVvdDk8SySkng7ZqUnoq+UkuHhrlKfwZoCxJudg/b89l9xqfE6qoS7Rcw/0rOaalSV6o5r2xWqphrwygGc9xQLA5Y9ewjvPbobX65LapH3jF0QgYhWeU+9Sd5z5E3z50vLJR77emu+2TaB7NF2+rD3ESebpn6cNWXdiZIsRe/kPeere3mXCh78d6mtqOxGrSxjUqo+kyQ1QW6xHDiCBfHJuDe3DL92oeVz4dk6vJ57CksOHMA9++OxJa8C4q/PSoGQYUFYLv5VT5qIe6esFZvpdnV5qgtdBBQ21+Cx6bdiPB/dOf/EG3j61KZe7e9b23gUf2U8jS250vXKzX9WzzdpJgPCoA5mDxcYb/W6IPRynjRj1BVevPmBAQXGoY0HMmEk4p1FuP/Fffj3QV5QtXZDZKyUNNqRVSld9FiB36tHbkjZYdg/bsN9jz2B+265GtHSzbVeY8gyNg92hmNYD3aoqt6K6r8fwenVK5HOowe5X0TLAXKy0lHDc1dl0CSp4G/WQriH8bZS5QW8SVAPMxkIShk0jX2W5rllzQ38JNmFGg0vcDp5Qn0+N3BLmqczcHTrQmftvmDSH1QVHmRmJNhK5PKfv9zDvqn/ak8QRvLNWHsanz8ax5s7s1+Yn6s0BYnR8fKm5qW+QR2EMx7sd8tbixsKeyOYNQ385QgIZ5/FZG5ZcwM/Sc5z/5U28MKpEs7tBPOed0QgytjKdJDRNOU9zgjnNxDMsbnSWFtuQHGqBeQ9wkjEO4qx9b8H8MmB5rwnfKqUNKrKrOI34FjeM0pM9I8WgawWSev6OZAVONnyG5EGFJV0sR+nXQTm3vIgHn3sQfzrqtFNwfDA1IN5z/k617xLbc9vQhlQWGVutO7+kdFQg9czEvF8Cr9xKLeH/0BtFWTCwf4hPDf9CoQIn7WhHAl7H8bKvKNNA3/2rhqcLOf7y8ENQ6UUGWQGdTC7Y6+Gz/0oR+iEYFxrbjTSQFfcO4EP+VurwfatUtJSHM6t4QGrGTs1TdMO+ceOwEPtDpYj8ezkWq+6eBmWTPaHk0IBJ/8xuOr/ruzZAWtaO7lfyItEzjOehXF0dfNYNNPtTPMo6oqb917LH8NHKMw0ZsgjETRlmpRuwQN2CxbBi++3ioQfeQG+p5kMBOUUAtcpk+Asvqe5gZ+aNdfo+iF46X0d7x5ZRzcL6pDHIzMbHyUmScl+19wf1AXRC9rWjDbXSAbjsjs6yfHPpUBQq0WxMTdmsWGLGx6pJUjizXvlQUGYabYppgwR/xfeNFBSyoEOaobPh0ngL/d1x4g5nvw9zQ38ZHSe+29PSdPgJb4jPXjhvZnTDSMwj8//PBhV7SlAkZiSI2RikPmRsFnec/lE49RI7dWQD1w1ObX8+tLq3BfsKGiadsh3SiQiOsl7emWOjjaB7HFs3dHPgSwzLYDPrcwK2VldmvBSjdn/dwMm+TvDTuEMv9EL8H9XdL33X125cYDCYLiF9uBN4Q70XN5zvs4t75qmUvNjVIWC7naTqNPz0apZucvDFWN42pz2vnlne2Rk0zDIBuh6vNBxAt8fWIWXt3V9+bTdu7BKxPiswqrYUXAUToLaVPy583G8WdVLeV07TusGaqsX0lNkbh4+z/B0j7KSCdmbNebM9oWX0DfLUIbDWyuRLD7bDd6OWBztLF5YKrOy8Gt3XqBMi4ZAD4wXJsW3dcSYqS6I9aqFqroRbi4KzLsiBI9eHQJ38UprQNrGeKw2afMQGxuEUJYR6opz8f0RfsVo+jx6FMTnYTMfBtn4t6gqxJd7m+83hfhYY5SHDEEuxkWFcROkiet1FUUoKG1sfk5xFlmtLpwP3TcZD89SYJy/DKNcGmAjt5L+1leFRXMDce80X+nOp74YB74rwr4WtXR6FDuzjJBlnpApETrJA3PChiBUoeOvY43ZM9xw3dwQ3LFwGGJtszvcvxMumocQ04BS0Yjy7Uea5lkzK+AK+Irzf+hQGb8O2m5dw5JYpjAb7iFqWFk5wHXSPKg9R7JvZYcGK29YqYdDEbUYrjOWIvDK6+HY8A1KW3yY+xD8xP3wECaxc4+CVaMNztoFsu0CWYBxNdzm3IXAoWoxozXkHETWsQPSZpw+OxDKcYFQWMmgCJkCl9CRMOisoWfvLQ9aDJ9r7kBoEC+FlR9B0rffN08FJAqGjH1eGXs/4T3FxX8MvP3Eo4/aLGE6kObnhhiy25/vL9sPtrHhUFopoApwgA37TCiPQ8qG9iaLZ0pKoB82C8Igs1YOIfAcOxty52A06Ph+cJsF9cTF8Jp9C0Ium4y6HX+wrN+cs7ByccBEoSOQrRyy1DLsN/+HPSvSHROCpDCoKjMbya0nCSzWwmpMgDghvq2TDSrjilFscv43pGuhnOIDD+Hn7+6D6ClKOHjrUVvbyL6PDLZh9gi/2BdTrwrDzJlWyPy7kh0PE2N8sPi+EAyNlEEWZAWrer4dW5zHuGH8dRHStYWpTEnDvsOmpYpG5NdaIWKUI2zZ1cIjygvhkWehbahDg0LY3gsX3TYSY1zFiw/qMxPx4/etagAUQ6AMsoYdf0/xfYd5Y6g4uEgdNCnl0DY9x4Ll2rMmc0q2VMWuK+HjXaCQ2cHHUwU5e1tDZhr+2NL+gTyv/WdggU6kL4Y6WbHyjBuGjzGguLwOjUHOmHbLKMwOV7MAqBSaEgXUwiGuLMLBPT15n94aQRdLnx36ciRsaXVsu8LbAdExzuLANGbPv46UalEc6I4RPO+JnO4MJ+86aFneY8XyHt8rgzFvYXBT3pP+5wkcNRmq321KoDhtUn1RHuKN51XT59GjMC4fmXxgTuPftt6HMl9rdr1sPndsXZQInyjlPYbyYqSxvKfpOZb36FrlPeEPTsSlFyngGmDFzsEG1FtbSX/L8p6QSwMwd7pPU95z8JuWvz0h7ylged1IlvdYsbwnJNYdASzvaWR5j/Q61vCa6YrRlwZhyqKhCLM907392xmFAjMfH8sD2UaUpWQileUbHiOU7Sy2sCqqQ7XZVi49yQZLprrDSzipCorxflJ9F1rzTMRFV4byaaQkdo3l2HE0mz/qmKFxEtyihKmIbGA/ajZsVZ6or7Rjwa0x7/HG2bpc4TLfzGk2PGI82a+og3y7o7z9fPOe833/JueWd831DkSEMEdsXSn+zKtAm/EVO1SLCHs/BApFA6UrpjhbY3itDg0sow6UyTBC6YDF7v64bWg4ljjW4OvWUwYpfPDx+DDMV9uJTWIDGxrgwPJ7YdsJamcs9h+Gi715uaMsC28V1LaaLuh86aFtLEZJQ9eXSrMNDEJxddQzuD7MVSxj6UuP4JsD/8NGQz80rVfNwpXeQtupCqSnbcNJaS0ZRIZERI3rYjuX7pFbC1VHCqx+YQKihd+dMADUE2fwi/hsN4z2x7qbpLloz+zYgVu6/QIyPPTwBFwizjPVHh3O7DmMf//IMmC+RvDQwzPYdoA26WDzlD9Nn6cG8Z8fwgo+nZDxb5GbgLkvG2fCNlnfFa22FXRtey2Sfo7D/TvNR0JXLRuLO0cKe7Bjne1fz6sexB2jTZpM1ibh2xe/7vhCP+VdjJ/txxJanFl7HTTd7lPqAbt5L2MEK8R11oygZOOVSG8Rj96HsKcv7nSE2MbyZCSvfQTV5jLD0Bcw4oaRbWqWTDWWn0Di+0+gtk1rpK69v1HZ1lZTE7XgAYebPsYwkyabNXGv4+SvnTQlkM2D1123wr/TJuE5OPXcnbwfqBlOLnjnOi+xKW11chpu29bmy/a8BZG4e6bUwFWYmufnn8RkS1cOxR1zPMWaobLj+/HVR60yykBXXHnvcARKMWf7KjPw5ZM54K25JWP8cNP/GecibV99wSn88KqZOUgZ5YII3DDTvcOROutz2O/orWJUtd6+i+8vqUHCZ0ewvd0pZqwx+flJGNv0YiyA2rwPGzqaNkZwPvvPwxlXPhrVzrZaxH15DMUzp+Fi4fKQk4i3V7e89p0fFsy8OE5qxiwMAPXYOUzBYrL/2z3/OiRDxIpx7Pt1nPdk7T6K375ved5GrJD2S2Xi4eYpf5o+T8tjbfzb1vuwaX1XmNn/Xdu+4xpPz1tG45pRnec9WWz//tbt/duBbv12BJ39fnqIjyc+mO8KoZd/3u4kPNLBlHnNvDD//rvAssAmdUlf4aVvu3pnfwyclv0b4e2eh2by5sAXELV0JPsVdZBvd5a3n0/e0xPvb9TtvMsWq6LHQCwylSTjiuRzGCBP5ox3x0TAv6OfvqAoCVecbnHVFIPZb8cEimXeDmnzsT4hEx/2f2MDsyaHr8HNIdJ4FjW5v+ONhB/6bz5cYaqe0ULzkCxs2fg0vpfWkkFkUDczljTglZf34YUfkpFW2qpJrl4LTWoyvnt7H25pFcgOFMdTc3CmQAudvnVj4kboaitxJikBbz59pN1AVvDLJ0dw5+cJiM+thNY4GquIvYZxH7y/s9MbBQW//4rD+bxgVZuPwz9+3807lueiEHW/3oSja7fgTGYZmsYV4fR1WlQk72fB5L2tAllBAoqTc1BRroO+dY2VQYfaYrZvN76Do2+2E8gK0p7AyZfeQUpCDmrqdCa1oKbbmwtke1ohKg8kNzXrEwZ+yt/ahTbxDb9C8+a9iN94AiXF2pb7ge0DfXkBNPt/xLGXOghkBeVlOMx/IKowd9zYWSbdV37LRQqvcnOODEZ46+aKWSX47cn9+PlALjSVrUbMZL+p6pIiaYqW/7YKxAQ5FUjJLEZRjQ71LX43DNu2rCAXe7/bjw//az6QFdT8lIwP3zyKvZmVqG7xGibbrzYTyPY4PY4c582GBUKz1s4CWcH57L/CMvz2zEFsy9GanLd1KMo8hZ/fPIbdg3402QYkrz6Atd+dwumSGpN9wH56wnU3RdgPB9oEsgNFbmousljeU8+Oc8vLZyPqayqRlZiIb/99rMOmuwUfHcO7nyUiIaf1+c9eg++DX9/d3bOB7IA1BDdPkgJZ1JdjZ5cCWYEGv/9+EBp+jajLP4gff+xOE7WjKP/kYcQLgx6yvLDVlaz39FTec766nXep4cEjSW3VOTZPbSjDnYePYgvLP8qMcykb6WpRVpSFnfGHcU/rQFbAylYfxqciuawaOl2ro8X2m7YsH/uEbeMHbiAr2JfyCrYUVIsDPT3en4EsuSD0cs0sIWTQcHXFB9d6ioWx6uQM3L+ttvtNNwkh5AKk9PHE67xWtogFlvef6LOwklDedWGjmtlB7wKomSWE9IiSEvyULN1lVkX44gEfMUkIIaRDCjwwh9fKVhbgWwpk+xblXYQMahTMEkK67K9t2YgX24TZYPg//HBj62a9hBBCTFjhxnkBGC4OvFCDfX+UYL+QJH2K8q4LWH0NpM4c3ghx7WgEFGKpenk0Y0LI4NKAYwWNmD5cDTu5LcJDGlF0ohZdG1eTEEIuLNOmB+O6UKGjZgOy/s7Aqtxe6dlFOkV51wWr3hqRvjFws5bB2X0igsuLkVWXj85HEieWgoJZQki36KtrsT2bFwps1Yh0qsa+dD31QSKEEBNuQT54NFaY/q0R5ccz8NQxA68hIv2B8q4LVSY0tWMwydsJMpkKHr6TMCvsalwZNgYKmqpnUKBglhDSbUKh4HSBFaJcKvDt71Xdnz+aEEIGuZpyLbRKFYI12Xhkj46CpgGA8q4LU3n1NuzOVcJH4QZnhR1kYidLmnd2sKDRjAkhhBBCCCGEWBwaAIoQQgghhBBCiMWhYJYQQgghhBBCiMWhYJYQQgghhBBCiMXptT6zkyaMFf8/fCQOhoYGMU0IIYQQQgghhPQEqpklhBBCCCGEEGJxKJglhBBCCCGEEGJxKJglhBBCCCGEEGJxKJglhBBCCCGEEGJxKJglhBBCCCGEEGJxKJglhBBCCCGEEGJxKJglhBBCCCGEEGJxaJ7ZC5ndZLjdPxeNP72I0tN1fCUhhBBCWCYJ6+sfgz82Iv3rfXxdf7KH9aU3w2+cL5T21pCxNdVxnyPt6zjp6Rbmw3f1DLiyVKNej5qiLBT++gW06VXS04QQMkhcoMHscMz0ux6XhQXCTW3D1zF6HWoKd+CtYx/hFF81aMnHw+Xx6+Bnz9K1qTi1cg3qpWda8nwJn4wP4g9aqkl6A3en7eWPLgRy3B4wHHP87FCdk4w3sytxhD9DLAEdP0L6y1iHANwb4QdVXQ42J2bjfQN/YgAbMvUhDJ/ny4PGb1jQeEh6ol8EQnXXcoQGWvPHkq4Es830KNmwBrnbs/hjQgixfBdeMCu/FCsm/x8iHPnj1rRxeG/7KhzkDwcn00yxEjkfdVAzO1CCWdtLscxvJiICnZB94Ha8Xc3X96FRHqOwerixaKBHWtxu3FXOHw5yjm7OeGSONwLd7SDd/mmErrQSiUdysCZJhwpx3cB2IR8/gY+XM5bP8kO4u1QYztx8FI8miclODQ9xxy2xXvB1MRakDaguKsOhnflYm2tADV/bnv7dXo75sQG4bKQDnGx5zxpDHQrTNVi/pxRbOq2osvTtBwArD6ydPgKe/CE0x/CPZEv48Uk1s8NiHGDVz4HgkEsfxYhZnmLfsNqsvcj+eiPqy7py8O0hj74KPteOhpPw89FnInXlm6ixgJsJhBDSFTI3D59neLpH+fn6iP/n5WvQeLZX4uVzoGQFgicw3UO4z8qu6SUnsfPoWnx/agv2pCdCU1GOqooKnKqIR4n4F4ORkDnfg7AIJYawzLnop+dRFN9BE+PqLVh/+keTRYXRQ8Mh3AvQFx/AhrIz0t/1NrdbcU90EJTWDSjOXI/9er6+D0U4+mKaqx1/JEN1YSZ+q+UPBy0ZLr14GJ66yAOuKrlYQyEZApnCDl6hHpjrVYdTp+pQxJ8ZqC7M48cCQV8XPLxwGJaMcWHHsPkIlqfnY0sxf9AuG9y5YDj+b5wzHBTN2wrDLdioVAga7o6ZygrsyjSYb9nRz9srnV3w0tJhmBJgBzv5EL6WsZJD5eqEsaMdEZ5Tgt3txASWvv2AYe2Ia/3doOAPUVOIL4ss4cdnQOOJDFQPHQsXFgkqw4dDn7UftSV9HQnaQX3FfLgILalKTyDlta+hr9NJT3VKh8aC46goCYXjKBfIZU44W70RVdn8aUIIsXAXVjBrtZQVioZCyA/0ms146eBr2FGXh5KGIrZkIaXqKI4M6kCWGboMwZf5wpYlq+O+R/af3c3RYjCzP4JZ9RzM93ViCT0K+ymYzaqqQISTO3zs5NCVn8L3GVVI5s8NVtGxQ3FPtEp6UFmCPZuz8OmefCTm6uDuZQ8nWxbUOjljvLIUmzMb2NEZuC604xcW4I4nrx6KK0c7i8cJqEN5JSsW89q9rgSz8y8fgSuDpNpQXVEh/t6cgS/3FSKzDPDxUUHFAiw7T2eMqS7GxsK21/n+3V6NlUtDESRc7ITrRmI2fth8ButPlEEvs4W/uy1ksIbXUAWcTpbhaJuT19K3H0AaqtCgc8IoVwVkujIcTs7A3wP587ZQAf2xRlhNHwoV2+/qcF+U7T2Cxkb+dJ+IYllgNBzYuVB9aiNKTmj4+m4oUMBqagTs2c/pbG0Bys7lNQghZADibZYuEA4+cOPJ/KyPkM7TF45hcFwQATE0qUpG9vf92f/HEtXgybi9+Mf2bZgXl4df+NpBy8YZS8cZA9lcrPksC2+m1yKxyoAd6UV49LMT2JAj1VCoRgbhFmcxOYANsONnNxnODz8D70mBfEXPUvm5wtdBuMQ3ojorA2+8k4i1Wd2oUfL1w/xQuZjU5aTh2W9y8FG2jh1/Hf5MyME9759EHAuOhWawvlPY34p/aaKft7/44kCEi4GgAZmbE3HPljL8WWxAYnENPtqSgtu/z4XY0FXuhBmz1FAKaROWvv1A80teHOax394/9sbhyc7alZujDoSVdyhbpBvl3XY+2xv+Rv5vmeLNOiv7CPhdOUxa3w/0VXk81V2VaKCmxYSQQejCCmZtVZDu8Vej4lwyU0s3aS78XISEHkWbP4eeMjbSgehxnvAVUzU4tL4AO8S0qQas/SsHhWJahZgYseRNusJ9EXwfvwb+Hg5wX3AznAP4+h4Uf7gAmZUl2Px1PJatL8Pebg5dcF2Mi3Tjy1CCDT9VIFVca6oeb2wuZFdTxtYVsZHiyib9u70DZg6VzkddWiaeTWr75Ws0BfglUWqcbBPqgWvElJGlbz/4WM+7DVEP3MWW66TzopvOd3vsX49c6WIH+3FzoZTus/S5hir+IQghhIgurGD2PChsL8aykW/h7Yu/wydX8OXSL/DahKexzGF4c1+g1oQBlMS/fwlLxBXCSMrPY/VFJq9z0Vv4t08sK770Jg84TAqC2OusNBlF+/t2Kh6F1Qz8U9h/c02+99xPsHrknZhpa6ZOoWm/8aVpECoVRs4yWW+yvB0ay/+m5zwUNQt/zTS3TMDqgV4Vcl7kmBHCv2BpMTaUScmWhuDiGFcIjb8FKl97dnZ3wGkcrn/kBfznhf/hiQcWIKwPCoMD8fhZjV2OkEdi4SpeNCqR992nKOuN/mu6Mjz6WRY+Kj6Xbh5qjAjktaJZJfhGTLUmx/wYx6bAwCdEzVOCft4+xBnS5gZkJVWaHSBKae+AKYHGGzBqhIfwpMDSt29DDr/L78YT7Lf3nxeewk0T+qAZhVuUmd+dtPwYYIkXzyxU7s6EeFvBOghuczzEtYQQQvrXIA5mlfCSD8cwW5PFWqqXFVjbtXqOLyFWrTNZJUb7vYrX59yKqYEeUBrHjxHIbODoMQJTp6/E/6KvQ4dlCcba9jr8+6KVuCkmHG6mb6P0QOiY+/Bs6Iz2g+Lz5T0Xrrx1lTZ9Lysi9Z0Qp6fxwtzlmCXsv+ZDwHaICm6BM3HTnLfxb/cwvpIMDCr4irX4QHVuFRKlpAk5bpkfhVvH2fPRjRkXB4znSXMirpiHSGfpBFC4T8a1S0aI6QuHHeRXPoqhi8NY6AE01hYg8+0XUXxkAE6T4aaCjxRLoihLKyVMyRR4/MYoXBVqDKYAG3cVmm4n9fP2sYEqfl5qkWmmP4mjrydeuzkM4U1VdHL4NAWGlr99G+o5mDclkOcvDgi/ainmmN47IF2z/xAK+LhVTtFzqTaAEEIGgEF8LY7BdVNX4tE5JkuM1GhSKKhHTG71HF8eDI7hfyMJ8VyJO9h2YhG8rhxpJ7/Gx5ufxUub1+DHkymo4BWcSv+rcE+HNYM+mDrzKoQKQaw2FyeOfoa32Ot8fOgkivlAGI6R87Gol47IkHGB4sBXQClKdvXhLLqqh3HP1BFwFKqEazKxbecK3P/7Yiz7/QG8tS8OxeL+UyF04n243bQsVrSG7WNhP/MlLpc/UY3kfSbrTZZXM8zNtXd+fk7eg1V7TZbkPhwezFno39WNRW16p+U8udnBnSeLNK3GieWBxBxxaicDCouMtfw2cO+gwsdd3fJWjULd+7VD/Xr8WgiE3U2PIWKapxik6AtPIGXVS6jM7tsWEl3GAkMpTqpjx19MNFHaO+OlWyIR4yJcrOpRWMovYA4KhEupft8+3Jn/Fiqr29yIGR4VhLcX+kotCqqrUMhPb5Uwug5n6du34e4i3kBpZg+18QfeW0qTW/729iahgD9lufahKo2fby6BUPfZDQEX2Pbg5d2Kd7gihJDBYBAHsz1hPq6LCZIu+zUp+GP77fhvxnrsqU/Eqfod2JDxJB7Y/gvSeBswx8hF+Ge7e9QGQsVwRfpneH77g3gt708cY6+zp+A5rIzL5H/jjoBeKt8rA3g1W20p6vKlZO8Lw7IR48WRj1FzEt/8/Si+qMyCOGYL8nCsZBVWbN8OaUBVD4yJMBnCpTGL7WNhP/NFzwsQjL7OZL3Jkt5orjHe+Uk36LBDZ7IY+m4IS9X1Qv+uri/B8yL4lj3JAL1JLCtMFfKqSSCR8mciHo0zBmSsiGQ6e0or+44mo3kyjkoc37qfp3tPfx6/JnL2G3h4OYZGCXNVsp9g2lacevlT1A/QOLalBlSbHP+wAD+8dnOwNMJufRUOrUvEN7nG/pzmLn79vL2hQRokSSRMMxWBlRe5iDcUdEVn8OFn2cgzvr7MZOobI0vf3ihjG06YzJ2lz96NbRn8QW9pNLT87ekM6OpkMgNZfXohpKuIPVRRYqL3eQdCIRZE9ELvgXMUh/pSKaUIiAJv+EAIIRbPXOlhkNiL17YLNYAmyyFj0FiNE9taPceXu9P28r9hF3zPWISKGYgOaSdewDpzbXMN3+DVEyniKIeALyK82usLpEP+0WfxROKfbUZRrtWW8z5RLODtlRwmCrY8lkVVad8VKGyvwkjeraj49EfYLCVbMryL7WekT2TtHo05Yor0O1vjnXsDqqW7D1Ig8c8g+PJAYs/3J/FkisFsfz5zDAc/xqtvfYkNO9bjq1dX4Qe27aDnfjm8n7oOgR7C/tSjdNcnSHn/D14YHrjcxal8BHpU8DlMx8WEYOVVHrxGsAS/fJGCl3PN98ft3+2HNN9UqdHzmk0+X+1w6fpcnZaKZ78pwpa24yoxlr69OXn4863nsPaXv7Hzl3ex+r1tJkHyQGOPIWZansia8kY55Gaet3KW2h6d//adyKviN+WsYce2613su4RcBLelI6WuCVXJKI+XnjkX1UekEZnhMhLBdy2CbVe/MyGEDGCDOJg9f1ONnUxZQSCtqP0ie21RJq9dBBwd2us1qEdxRaJJzZSJ6lW4mwfTz/RKOyyTCLm2FucyHMy5ULD9J9bKsmJTdkn70wkUa3mtq507/OmMbFL9zoM4vqLrS9rXPdjMut5YE86CCnb6jIsJbRNIvHkO0xTW5cdj38bdSC6+AALZETcj8P7ZcG8a6GkNcn5LEJ8a6Irqm68S1rxG8JHpTiykEmoEs7Hm4yx808FdjP7d/iz0TUGeFZRKJZ7+vyjM9BNuKBhQePgk7v6j0szoyEaWvn07DFVIPfgnNh9Mx8BuFHARfMy0PBkaZeym4IlAM89HXX8Rf/58t+9EekHT/rNS9FYwGAOXp17FqNXPYuQdV8DHhV0785KR+vanUjB6rvZ/gJQNuRCyXEVgLIY9/ix7j1cRen3L7lWEEGJJKHTogKtSKDox2vJO5qRNQTEvWCnVxlF3yUiFGPowThgz2/wIxMJyR6RxFBMVHFt2qyT9zhbhl49ggYSjFEjkZ+J/rQIJZVPT4pZNQklLHTQCHcDUiP3XiKYawfLEZDz7TXGLaZqsjd+sRZNYo37e3ssHb/8zAiPEoeJrcPKXk7hnb33L1gT8/NXVm6nmtPTtyaAhs7OH3L4HO84SQsggQcEsGUCqUUNz3w4MxbqmwEClEtoVN0qBxA+lOCytbjLDy3gzor6pSShhTn6KrNe3okhsjuEA78XLEXjtZPGpAa+sTpq/FXJ2/IWWHXrk7kzAA1tqWtUIDsFwN+H8YGrqYBymrb+3zyzjd1XkthBP3/pybP8iGc9ltwr4bFTw4advTWVzBwxL396yrUeumZYnSXHGdk25SDPz/PF31vPnz3f7gSAOpf8RPtdKnFi7FyXso1u7+CLk9tvOb37bSbch/DJfqK31KN/3CxKfe0L87j3aqocQQvoYBbMdMZYb1E6dTLvTPNVOTVmKlBioFApjPUavq9BLxVGgEAc2t+2f3Ha5B+9TzV4T1V1CM7OuLz3bVKwGRbyvrBRIJJoJJARyjPASmj8y+ZXm+0VfyIr+QP5/vkFWodA40BqO465B+O2Xw+p8CqR9QVON5vGChBrBRDwYp2tZIyiyhy8fFVeXU9V8o6Oftz+kMenQUVqIz75Ix7tmBs5RBtpLTeeFczy9ORi09O1JLwpxgbF+VF/VfveZnlGFsyd/RO57JyBOUGUdBOdJ4hPnRDWWD2hZeAxnft4Jg9YiRqEjhJAOUTDbgWMlhTzlg1B3Hq2a4eUzHN5iSof88uYBpAaO5lEMYS+NhNkXTlUWsSKWwAPeTu3vPzIQ1SMuh/fOMlTikNlAgvH1wnA+uFhhbiU6LtrJoQ6fhDlzJyFMPdCjuR5kOISKl9fgdEKlOPCTInQ2hj98W49OtdHzKpFpHPW8tATrW9cIcj4x7ggXD6UBWemmZ0j/bl+TVg7j1bs8XYM/zZ68Q3B9jKt0PWTneHxTtbDlb2+WnQ9Gxl6KyaN8moIxcg487Pn+06M223iUell+Fmr55djO51yHUI5pGgiyOi+5z8bOIISQ3kbBbAdOFaTwgZ1sEBpxH2aa21vypbhjJJ+/tiYFe/prGstO1OYZx+T3harjauaewwJ747RFATErsaTD+EXJJ/RvR9OIzyqE+s/o+G8Hieqv30HCa11fMn5N5lv2jD/jCqWmnnJXzLlYwQfzMmWLx+d4SPOBGspx+HDHbcTlE27BgzcvxPQZC7H0icdxjRSFXCCyUPf5i0jeVSCOJm7lEoHwxx+FQ8BADSvOYn1CuTTyuYs3lkbJ2S+0FaUj7pvIz4rKAmxoMbBAP2+vK8PhHOl8dIoJwC1mxukJiwzGDOkuJKqTNGjRyNTSt2/DB1fe8wCuveIiXLbkAay4Yxav0SXdZR3iybspFwozzvWR0uapvOQX0nWTEEI6J3Pz8HmGp3uUn680EnBevgaNZwfIPUD1HMz3FbJwPQoz12M/v9PZroYTqLGagzEuNoCdF6L95yDqrAyNtTIo5cMxMWA5K0yNh5uYt+iQdvgJfGG8fWrU3ffsJWd1EVCPc2NhuTWskImyk12Luh3Y9wyydmff0biEY0xoEISylb4qHWmVsubnhuhQ0mjaTjgd+fWxmOztAJnMCaHBl2GCTSA89A3Qn3Vi2wSyfTsf80Ovx+LR/8Q47Y/YbmyZ3JreDlF+Y+FmLfQdGo9ZCnZ+1Vax79L82RzPVqPsbE/uYCuMtbHGUJkMQcZF5Y5pYpvyBpQWFaKusfk5t7MNyO/JU72uDGe13Vh0HQeT3VbDDoabO0a6WMHG3R1zQ2Rwraxj33kIhoe64775oRgqFrINyN2egtWdfPmAqZdinJfQAVBgC09XHXYdzuzFaWr6+fi1YUDj6T0oLQ2FMsoFttZqOE0Yj4bSDNTkV/C/6UE2trgu0gGTPBQYw5dwPyf4OvARgxrq4GXX/Nwwq3okiG0ZJVXFVfAP90SAwgoOwe6Y49UAVOggGyLHuJE+eORSP0iHsw5x6zPxjcm2gv7ePl7TgBnRjlBZ2SF0tDPGy2qhL2+EysEOi6aH4p8T7KVazUoNPvqlHFniVs0sffuWxmHmFeFNN6Rkjp5Qp+9EYi/OzxMit8EouclvT6bCOH93cYoZXXURCrSNzc8NOYusxo5/fLKRs+EudmmoQtnmfbzVT9ed7/aSGDhdNQ4OwnlXmIzc3X01OrkXFDOixffVa+JRduIchpLvkdcghJCBZ0hE1LheKb5NmjBW/P/wkTgYGsw3Eetzni/hk/HCaMPCPLPL8Fp7gVMLYVgyeiUu8RWLDe3QIfvoKryUZ2bqnXN6z94wDM6P3Q5/oZlRbSpOrVyDrnRPXTLuO1zixR90RrMByw6v5Q+MlJgS+hr+Fdl5PUD2gcV4xmRi/9ZC2L58lO1L3kOzjZqkN1rME3z+3PDhzJHw5486cyZhG241ztE0aNji3uuGYYp7e7UBjSg/loQHdrUaYdUM+ailWLEkqrlWvSoOH6/6CsbZn3veAD5+7ovge3csXMWdUYkzbz+DsmzxmZ7j5olPrveVas67oPrESSzb1uqqoHTA89eFIbzdF9Ejc3MiHk1q5xrfz9uHhQfiiUtd298H9aXY8EUm1rZz8lr69s2ccekDTyCW9y8WnPnrEXywkz/oBQ9FzcIcN/6gM8Un8I+Ejn981tf/F5Exwg9GGMDpFanVSDec7/aiEcsxdGmY2My4fNuLyP6zj5oZi1P13AQ/e/Y7jfv8HAds6onXIISQgYdqZjtVigTNRiRrnODt4A57GxvIjM2N68qRn70fPx9+Hp+V58FsvdgAqZkFSlBvHwP3YDWGWNtjiP44qjI7z86jfK5BqHArvSu0KVif13pGdz3OlP2ObWdU8LV1ZPtPBWuTuEjP9mEh24e/H34Bn1R2HF6XVW/BzjNOCFK7wtHOrvk4cPriA9hQdoY/6glKzAvyNNO81rzKwkz81mmh0tI04EBCIfIqG+HvrICDgtfqsbO9uqgEO9an4LlkAzvKnWssOIl8twmIMdbO6jQ4tvuEmelYesoAPn41iajaXwndCH8YdnyKwvheqJlVqjF/pINUe9cF+sIirM9sFRTq6/H3sSKUG6zg72oLlQ3/0Rn0KM/Lw0/rMvB2bgfX937evrS0ApsTy+GkUsLdUQ4bKz78XX0NcuMy8NovhdjSwclr6ds3q0Mq+51GTgiHPf8JV6ZuxpGOq3PPS6xHMELbtA1vR00hvizs+MfXeOJvFGzeyJZzq1U93+2FsR8cbpgHN7FZUiZyPv4b+t5rVtIK1cwSQkh7Lqya2Qte851ZsXb2P2tQ38MtUwnpUPgNWHFzjNhMHdkb8Ox728zfBCKE9DA5pt29CpeI95krcfzD/+CHDPEJ0hXRyzH0Bl4ru+sNZP/Wi3cC2qCaWUIIaU+rui0yuMWh9NdUiONIKMIQeP10cS0hfcVrVIAUyAo19omHKZAlpK/IxyHc2My4Kh2HKJDtOvl0uC+QAtnGqhPI79NAtqcI42UQQsjgQ9e2C038J8iIk6YIsYu6HL4zA6X1hPQiO6cRmHzjI7htLJ8bouwwft1ZJaUJIb1Hbg+/UfNw2+MLESwOOKBHxtbverGv+mATCNXtl8Nb7N9eijMffXqOzZTPRx4MfEAOVcBonNN4xt5RcJDuJKI+r2dHvieEkP50YfWZJYwBjUnVMEwYCQdbGZThw6HP2o/aEqojI71hFm574S5cMSUG4e4qcUqL2qJ9+PqNn5DdZ/3NCLkwBS1+Cg9ddwnGRQXCUQxkK5Hyy+v47OCg69zfS+xgff09CItQYggLYUs2fIyihF7o396paugc+ZgXCk+oh9qjOvUMGurEyas6YY8hI+bBd+k4OInnQAEKvtmB+q5sSgghFoCC2QtRYx5q95ZCLwa0tnCIDEXF/gMwUDxLelwwxs4Oh6Nej6rSFBz56RN88dsRFFMgS0ivc4qagTFettDXliIvcRN+/OBL7MgyTlhKOjNk0nKEz/IUa0K1h79H9h+J0hP9IVMHw2iWZysAayd/uE2bBc85c6F2L2hnMKf58F19O4LnsL+L8YeS18qXbPgUxaf7IyAnhJDeQQNAXcicp8P9X9Oh+/VlVJymAg4hhBDSzB621z8EH8MfyPj+EF/Xj+ShsL30cvjE+EJlL/WBbX8wJyGYnQFXlmrU61Fflov8nz6FNp26dxBCBhcKZgkhhBBCCCGEWBwaAIoQQgghhBBCiMWhYJYQQgghhBBCiMWhYJYQQgghhBBCiMWhYJYQQgghhBBCiMWhYJYQQgghhBBCiMWhYJYQQgghhBBCiMWhYJYQQgghhBBCiMWhYJYQQgghhBBCiMWhYJYQQgghhBBCiMWhYJYQQgghhBBCiMWhYJYQQgghhBBCiMWhYJYQQgghhBBCiMWhYJYQSzXiNoQ8dhus5fzxYCUfD5fHnoHbCHu+ghBCCCGEEGBIRNS4szzdoyZNGCv+f/hIHAwNDWKaWKCFMdg6y5M/aEmbuBvz11TzRwPUtI8x+ZIA/qCl2uNrEPfDz/yRhRl6G0JviYCKJesSfsDpz/dJ6wcdZ6juegqhgUK6EjkfvYjS03XiM4QQQggh5MJGNbOEWBrn+fBdKgWyjaUnkPH1YA1kBWWofv8b5FQJaQf4Lb0LKmfxCUIIIYQQcoGjmlnSTR749O3REOo6LaJmto2HMew/c+HCUhZZMys0uX38OvgJLW71mUhd+SZqDNJTg5oQwD88A67WLICvSsapVR9AfyF8b0IIIYQQ0i6qmSXEYtjB+trL4SN2Ha1EztoPLoxAVlC2Hrm/ZULPklb2EQi4dry0nhBCCCGEXLAomCXEUnhfA78YB/FHWx33x4XXd3T/B8hKE8JZQBUzF47eYpIQQgghhFygKJglxCLYQTkvCmKlrD4T+d8fEtdeWOpQ8/0xlItpF/jNu1xMEUIIIYSQC9OF1WfW3g4r/jkU44Pc4KK05isboKssQ2riaaxbV4XttXx1K57h9lg+bzhi/OyhtpbxtfXQavIRtz0Da3brUMDXNlPhldVTEaMEsrdtxM3rrHDF4ggsHevV/P76SmQnJmLNhxXoKDwx//6Mvh662iqkHjmBe9bp+Mq2Qsd4YPlloRjuqoKNcXu9FqUFeTi0KQurjzZK6zp1bn1mPT1VuPXGKIw3/fzC++dkYOOvefgoRVrV+86lz2wobCffiaDJkXBwtoFxJhxDVSnKMw4h+7eXUd9RJandJXC4dDECwr2gsrfp8A5S6aY5OLWLPzClXoSAp2PhxJLaw+8j/ftT0vpOKbF6wkSMYuegNv0AFmXXwNNGjduDhmKUhxpquXAs2G+gphzJyYlYUdl+u+Wm7dzYdjb8GBqqUVqahx2pOXi//dOPscJlTj6YE+CFUAclbMT3ZRrZb6i8EMnZOfikvA7p0toOsKD+9mcRFir8fgqQ+dxLqNRKz3RG7j8Py/5vGvwVQNXpdfjgs/08MCaEEEIIIZbogqmZHc8CwfWrZmDucG+TQFYgg42DG4ZPisXSy/iqVq64MQaf3ReLqcFOLQNJ2ELtFYSpS2bhg4dc0WEvPrkKq56diQem+bd8f2sHBERPwnMPOcP8BDjssy8c1c77M9a24ucP8DT9TqbkWH7fZHywbDRivByaA1mBtRoufkMxd9lM/HCzqt33P1/jZw7D209NxazWn194/+CRuO6+6Xh/3gCdLNWJBbEPvocxl0XDxSSQFcjtXeA2ai7GrPgOnmHt7D2nhxH+4CMYMSYA9p0Esh2xmhMhBrJCX9myXV0NZAV2cGaBrKCspgYzXCLwTux4xPo48kBWwH4DSleMGjMOr6n5qhbkuD0gBh8atzMGsgJ2Xrt4hOPq2El4x6mdbyd3wGvjpuLemHBEutg3B7ICK/YbcvHHuJjJeNyNr+tQHWp2Z7F/BZ5wnRMqpjpnj1nzpUBWfDR0Ia6fS/PWEkIIIYRYMpmbh88zPN2j/Hx9xP/z8jVoPNsrlb9d5jlnON643B9SObYBWk0q9vyVgC83Z2BnShEaDY1wdFJDl5uO9UniHzUZvzAGj07zhI3wQF+O1LjjWPfDaWw4kI9KFj+6uztCwcrmNs4+mOSrwbdHpT59EhvMnRMAL/Z3joEB8FWyP9RXIvXQMaxdl4KE2iEI9nMSt5c528M/Iwdbi/mmRuF+eGNJCMQYo6YAcUcS8ds64f0zsfN4AepqyqBtBHSlRfj9eNtatQXLJ2JphIP0QNh+fwK++SUFW9i2jQpr9vnV7FPKoPDxxnhFFvv+nR0rFa66zBuOLKUrysa3h0y/rxljgvHuDaHi36MmH9u+PYhVH6bg9W0Z0NQ2ICzUFWqZNVxCXRCZkdv2+/e4WLhdFCaeC4aCQ9AkJkurzZFfDZ+7b4Kf+OGB2jPxyNj4LTK2b4UmswE6B3c4ONpgiEwB5xHjoD3yK+pa1E5eAs/lN8FXjJm0KN75ORK+fBTZmzchN8UGDYFBcFIJgZ0OxRtWIP7zl1GSLfxtax6wv2IO+1uWLE3Emb+Oo8u/KCtHLAp0Z+dPPSp1jpgT7il+d11lLg6cPIkv2TlXedYBQx3t2FprKAyF+L7M9JjK8dDwCbjcT83OEuG3cwo/JyTif6kZeD8zGwXlMozycmTnEDuGTjLockpxkm8psWLbj8NEJ+E2ANu+OAOHT6fhy/RM7D6Ti7wyLRqH2EClsENdUSZ+q5G26lCRAlZTI2DPfle2tkDh3gT+REf8MHb2eHiyv29Skog9SWX8ASGEEEIIsTSDP5hVOOPVO4bDXawMqkTct7tx85dl2JlpQGZpAzJz67Azrgg/bE7H/kyg2jQeZNuuvHmYtG1NLn57+xie3F6HBGG7Uh32C9udKsWUGF+4sIK1jZcSAUfysbOp5W1zMCsSX+MontxZj9PsNRKSSrCz3hZXDndkgYItZI0Z+Ol4q301KwR3BAuhbC377Afw0J/G92dLQT32nKzCpn0as4EsIv3wnDGIL0nGa8+fwttx0nsL2+48pMG2HANmjXVjfyODoycLRjaXoOPQoDvBrBzP3jEeYULNYE0mvlmZiNczGyGGD4azSEsvx0+najE31pMFW3bwdS/F5/t6e1Cjrgez1pc/i+Eh0i2QqoOv4/g376C2MAWN2kw0FO5C1ZHtKFbPhLcv+xuZI+xdddCcMAnlgu5EeKwXC/PYeXX0DST98SvOioeJnSCVB9j2CsgnRrGgTAalkxq5B7YLT5pxMdyuCoKwG3VpB1AUnyWt7gqFB270dWJnohyODip2lOtxJvEAHkgtxIZ6A7IaDDjIgtcZQZ7iMbWpL8GXRc1t7cd6ReHWQHEeIBQkH8IDmeXYzY6ddIqfRXpdKXRWXhjnyL6lnAXlmYVoOeutK5YN5+dL3jHckcTel0X8WQ0N4nvH1WqxuSgf32dl42TdWZR16VKRhSEj5rLgmSVt9Kj6+4A4ynHHylDqGIMJAcIdAUafhR1fb0T2BTaGFiGEEELIYDLomxlHzwtBGA8mS48cwUO72+8bWtCqv6znZYF8Wz1SdyewQExc3VJmGZ7encsfuCFyJk+2pi/AxjVtX6NgezE0PK12kAKnloyfVw6vIJtuNQVeMCtQ7BsqBPEHv83C72b6Axccz8KH8ZXSA6Unxk+Ukj0i0hfDXaWk5ngKPjLXHzkzD3syeCji54FbpNQAcDXcI6W9h7JDOPXbH1K6hQLU//YxMnjlnp3feBaSm/B3lm4kCLWyxzaJqRYMH6PCWBNtp4ZppWELIS5Nr1tT1kFNsjlKpVSrL9LjTMJB3FrYun+3FQt2JVqtSdWolRvuCOMHsDgZr2jqzPQLZ1/Txtj42sxvy8YGPHzsRCPSu9ptm9GV8ZPJ2gHWXRzVWPPHa3jp03XYuWMdPl71NnZRh1lCCCGEEIs26IPZKcY2oqwYHv9thyPUtHGln9RLkZXkkfYrT5pRsNkkIHU1X3TXpqRgtblguDMbziBVjPWs4TVtFj57YTienWmHaHNxbwtWiPbkYUylBntaNZ82tel4MQu3BAoWMIuJHuE5yrkpmNYcbz9S0dTWSwlrNfx7q+Nud6mj4cC7VFZn7Omg5m8Tys/wEYjsPaEy7VSbX8b7dqrhNvoSMdWC/F9wNPYTrdOC7wUzjFX7QENVIU91zWXK5vBaV5iIt4rNDfBUiKXbt+EfbFlkUlU5wysA/uL3qcLh08U4Lq6VhMhtcK2TH94ZE4vLedMDnSYPX4opE7pKFPCXtPGJwTtRAXhIaXXe/bP1eaU8pYCs09+CkYH9Dvdj88b9yKQaWUIIIYQQizfIg1lWaHbggUBNBRLN1Qx2wEXB68pqqpAqpcyrrYKGV2ipHbpWD9VltWV4+tMT0PBoysbBH1MXzcCr/7sY658dhVcWqtoJbBVQG9dXVuN3njTreBUPZtsPxs/FlKbXckDMbXOx9W3zy13DjXWHdlD78mR/cxMaPkvqi83Vyjar0zTtPdj68aQgdRPyeK2tasydCJ+zGDLxRT0xxO8++CxfAG9+jEqP/dT1frDdEKk2DnJUheOppS0C0o7ZYI6X8UaQPcbFzsJfM5uXNVOnYFlMOEIdpN+IrjgJ7yWXm6m51eLF46dQKsbQMqjdQjFnwgysnT4JXw/1ws3GKmFCCCGEEEK6aZAHszZQN1dqWayC43m44YHNeG19MlJLjBE5CwxcvREzaypefWE8Vk0dDIfSAF0VTw4Km1B4SMMb36rhNv0WTPj3Zkz+z5eYdPsVCHSXIrnqpJ+QuqvrYWbXKWGsnEdpDr7vVsMENTz5uGFmNdZDV1OBMzlJ+G7vDsxL0GADf6q1gpo8XL93D75LzkVpHZ+my0oBF59ILI6NxVof9jmltYQQQgghhHTZIA9m61DAu4PCWgUvnuw2pT3CeNIshT28+PQn2squzbvafY34fXMWbl+5E7Mf2YyXfoxHosbYPNcFExaOwooWEQELGowtSh1UuIInzRpl39SvsrSg5z5/aa3xA5Tj4BsbMfvuzpYDeLzP5pvtnLFhtK3b5Txlnp1X095DrWlTcvXDCJvlxX5kOpSlpKKqStfcq1SvQ21RKlK/+i+Of/2ucLS6RGbvwVNdwQJS43lZXt6NWllB86VBmJ9WaILcYtm5F/MOHsWtqRp8qutCZ9dGHT7VnMb1+3di6c59LLDNF0fhFqa38hw6HPd0s4ZW7mGsca6FoXstrwkhhBBCyCAxyINZILWSNwG19kD0PCnZVQcLjCPEuCG0g22j5/nyQFkPTUpvBbMmahuxabsG9zy/HY/t5yMIWXsicqqUlNQhrYS3TXbwwpRIKWnOkknePJgth6YHKwi3Z5SzME7gBK9RYuI82SHi8rvx4FPP4cE7rsVoY5fm3pCZhmq++1TBU0x6rba2GF7hPJgtK2hqri2wnjUebsKGVUnI/PxOJKy+HAeemoN9wvLc5Yh7804UJbc3grGJ9ALe9xZQOkfwVBc4OMBZTOhRUDlwOokWNNaxwDYZd8Xl8vPDvuNaYDNsnHn77NpS1Jvu9A7ZsfNwKubERsOrxUhdhBBCCCHEEg36YPanbTmQhoqxRtisGKzoYIAjz1Z9T7fvzm3edlI4lhgrg0wFeeD+SXwUn5pcbNssJfvKoRwtDwjaWnNcw59zQMx8L8w007fWc2IwrgvnT2iy8G1P1oxuz0Mq70scMLXjfS9ovf9bU8+9AzdMCYSzQgHngPFYcOuCc69t79S7KMjke9Y5GiHTzA1T7Qm7a5Y09XstO/Fti4GiVN58NOTzlgAtH+/IJjCig8C6pRlqBz5KcWVzC4Uu00HLv77aywtXScl2mWsm3FnTYT+lHf98eujMjUvVrvFQekh7obEwt4OBs1rymv8A7loyH9OvuBF3PX43pvXmzRBCCCGEENLrBv88s8UVcI8MxHBnGfu2aoTFemFWUAOCrephp5QhyE+Nay8LwvLrR2OWMh3rTUf9La1EQ5AXJgh9G22dMXaGG6b41EBd3Qg3VyWumj8Ujy8ayuew1SN1w2G8mC5uyTXPM9v+nKwdz9u64qGZWDFbifEBMsS4GGBtbYUgV+PnDsX9MwKhFt5fX4D9X2uwx7RiOL0MwWP8Ecz+QObghRlT7RHtUgsb3Vn4sO1vXDIK987y49PHlOPg2lP4yjhVDBfqa4NoL/Z+wnuKixoTJgnzwrLPW66BprSx+TnFWWRWmR5rHYpd7HFxIPtrvu/nhlshTFHPv4c1Lp7lgRsuG4q7rh2BKbat9n8rE+csRKhxTCKBohHlWw8imz80Z4jTTFg7BbG3Ny5D4TIhQPzODaVnUFKkbn5OLkNjHR+xidFlBUE1PhgKmQyK0OlwC4+GXmcNg5UvrIOvh/+SexDO56EVpu85+dXXzc2ImbMBC+DtLZw7XnAdOR4Gh9HsdaZB6eoDQ6O72fc0rwyNAdPhLpxItjaoS9guDH7cqX/4hiJSODnqivDHmTJ0b1Kfejiyzz1aGEDN2gnjPNQYpa+DtZ6dO2x/BCnscZ2HH24dOhx3+AEFuRWtXt8Nr08fg6WOdhg3RIYI9vsQ5jIOYtuOUDniOv9huD7Eha1h6vLwS2opTGbo7VjIFfCe4iYGwhUnvkXF6a61hhg9a37z+SNzgoc6DXtOdrbvCSGEEELIQDUkImpcr0SakyaMFf8/fCQOhoau9gjsJQob3L98Eq4M7rjqL3vbRty8jj9oIseKx6Zirl+7s4Ay9cjetRePfdd6/k4VXlk9FTFKQJu4G/PXmCt0e+DTt0cjgKXM/c2Kx+ay9+YP2lWJxB8P4Z7tZqq3FOwzPDUZMQ5i2NCOSsR9e8DsHLxde38u5xhmv9i2A+OCWyfjrujO25Ga3//NvBY+jrvGmtR21ibgq/+s7TBIc75tMyL8+YPOnNmIfR+8zB9wYS9j1NLoDudKbSyLx4k1D6OmdUte9Z0IvncBvDo+7QC9FmVJm5D287vQt1dD6X0zQh4YKd5EqEv4Aac/3yetb5cdVo+bjFHCBsUn8I+EVncpukTJXmMce42Ozh1Gm4Y3D2e3GgDKDR/OHIlOd72uCHuPJuC5brSCtr3pvxgWJezUAmQ+9xKMPQk643T5I3hoikmf4+wNeOq9bfwBIYQQQgixNIO/ZlZgaMD+fVmIL6mCp6cKLrZyyGTGFtZ6aEsKkXggHu9v0KOgTTDRiD27M5FdWQtfbxXUShupNkmgr4Qm/TR++/IEVu5sQNtQ9fxrZlWecgQorCDMEiSTmU5i2gBdTSVyU5Lwyaun8MbpdgbhMeixaWsmShUN8HVVs9dh3118ouX2b6eaP0ZTpoYhrKv9GSs1+Hx3272QdDQHezRV8HcXpguyhk3TvmefgQVyRcI+/PY424cdnyfalCKoh0XC157t0NpcHPz2Y+wt7XjwIcXYm+BmWpvbkco05BzZyx9wpZtQsK8U1U4+UDgoILeWYYj4hDCAUy7ydnyKUz+8Yz4IbfSHbXQ0nFXSHtfV6tDAzsUGdgRkpvGhzAYKz0h4hHoiv/X7G2nz0DBiKpzsAbmzE7QH9wljSHXABTcO9RCDX60mHd9XdKsdL6fH5rx8WNcNgbudHWzk7NyRvjw7r+qhLc/H8VPJeD29GLv56mY1yCrUwtPaDiq2z2xMv3Aj27aqBMkpJ/HKqVx8352Ppl4E32tCxGmT9GnbkbsvQ1rfBXXsXDdETkKoPf8sFSnYdvhcJn8mhBBCCCEDwYVRM0tInxsFp9tWIdJfaAyrRe5XDyM7OU16qkkoZBGLEbZgFlzE2ttSpL+zGAUa8cm2Qm5D6B0RYi1xXcIvOP35Tmn9BcMOtjc9xWtlS5G56nlUdrOVsHz6/Vj5D2ky46r4d7H6uxb9AgghhBBCiAUZ9ANAEdIvvJbATwxkAV3S72YCWUEaGpJfQOoxProTbCDraJTd9M+RkyDNM2wXNRfu0RfYkLzRyxAoBrJA9eHfux3ICl0GRg81NjOuRMZBCmQJIYQQQiwZBbOE9AY7GxY6SRr1xmDVHE/YN416rIW+w66tdaj/+hfkVAlpBbyvvQsqae6dwc95PnyvDRObFzeWHkPW93HS+i6RQ+0fjUvveBrzQqzFNfr0zfi56y2UCSGEEELIAETBLCG9ITMNVbz7s92omxB+6b9g62Yy2a58FGQRD8Nn+XuIDJZWGTL2oqizwYwMh1D6XbLUP9vaF8F33wZr067Ug5F8PFzungFXIQ7V5yLj/S/Q5W62wTdgxQur8OidNyI2QKrVrTq9Dm9+tL/rr0EIIYQQQgYk6jNLSC+RjX8Xo+ZJtYmd0eXvQcIHz6C+qxHW0NsQegvvP3vqd6R8/Df6eZi1XuIM5e2PISxUiGQrkfPRiyg93Y2hj4Vg9tYY2OtrUZZ/Cvs2rsO+jG5sTwghhBBCBiwKZgnpTeqr4XzpFfAN9oLCvrnpscBQq0WtJg25f7+LskxzfWo7ZjV2OfxnVSHv9S/an9JnMLCbDLf756Lxp24GsoQQQgghZFCjYJYQQgghhBBCiMWhPrOEEEIIIYQQQiwOBbOEEEIIIYQQQiwOBbOEEEIIIYQQQixOr/WZJYQQQgghhBBCegvVzBJCCCGEEEIIsTgUzBJCCCGEEEIIsTgUzBJCCCGEEEIIsTgUzBJCCCGEEEIIsTgUzBJCCCGEEEIIsTgUzBJCCCGEEEIIsTgUzBJCCCGEEEIIsTh9MM9sLB6YeR9GqlmyQYeayjwkJ6/FxyWJqJX+oEvCIkPwRGQZXv6pDIl8HSGEEEIIIYSQC1Pf1szKbKB0DsKYySvxQugMKPjqTnl54pE5TlD5BePxBY4I46sJIYQQQgghhFyYZG4ePs/wdC85g/2ZP2L96Q04kGuDIJdwuNgBdu7h8M76HQcb+J91RFuN5EoFpoXawcbBBWOVpfg7swF6/jQhhBBCCCGEkAtLH9bM1kBTvRb/3bcdxeJjJ4T6jRNTXZGalI6PTtSIaaeRw7AyUiamCSGEEEIIIYRcePp+ACjDeiQXSklH5xFSoot2bEvFnlIhJUfQ9EAsVYqrCSGEEEIIIYRcYPphNOM81DTyZLcZ8OYf2RBjYVsnXDxLDYpnCSGEEEIIIeTCY3lT85QVY0NivZi0CfXDcmcxSQghhBBCCCHkAmJ5wSzz55FClIspJYaP7fKYyIwcfpffjSde+B/+88JTuGkCRcKEEEIIIYQQYoksMpgVamcP5UtJ1VAPzJeSnVPPwbwpgXxKIAeEX7UUc4T5bwkhhBBCCCGEWJR+Dmatuz7XbAtnsSGlQkrKHRDtKyU75e6ClrGrPdTuPEkIIYQQQgghxGL0SzB7qkxqJAzXIFwmpbotL0vLmxpbwz1QLqY6lbENJ4p4mtFn78a2DP6AEEIIIYQQQojFkLl5+DzD031GUxOCKaEBUMpcEewajsaSdOQYqmDgz3dJnRzTJrrAiSWtayvwc4pOWt+hKqQe3o8zFQ2oTP4L36w/Bi1/hhBCCCGEEEKI5RgSETXuLE/3qRCnx/GvMTHwNp1bR7MByw6v5Q86Y4vH/28EYhxYMicNi3/izY4JIYQQQgghhAx6ljkAFCGEEEIIIYSQC1r/BLO29+KOqVKtbEXWBnz8121Y9vvibtTKEkIIIYQQQgi5kPVLMDvabwTchETdSWw4sRZ7DOfSRNgWTkITY0ZXqZcShBBCCCGEEEIuCP0SzA5zFoZtYsqzsFlKdZ+9DYzdbcuLa3mqC+x8MDL2Ukwe5QM7vooQQgghhBBCiGWx2D6zykAHeIipOuTldHUMKx9cec8DuPaKi3DZkgew4o5Z4mjIhBBCCCGEEEIsi8UGs9cM5WFofSXiiqVk54bB25knGeuAqZgTzB8QQgghhBBCCLEYlhnM2jgj2k9KVqeV4E8p2QVxOFPEkyIHOPvzJCGEEEIIIYQQi2GRwezF033gK6aqEXekG/1lUYY/P92AfBovihBCCCGEEEIsmuUFs0oXzB9uKyarE8/gozIx2XXlu3CiqXa2EmVneJIQQgghhBBCiMXoh2BWCWue6j4Z7rw8SBr4qb4UO3bWoEZc3w3ycQh35+mqdBzK4GlCCCGEEEIIIRajH4LZ+QhwlVI12kwp0UUzZoVjpreQMiBlcybW6sTVXSO3h9+oebNG9FsAABw7SURBVLjt8YUIFqNpPTK2fofufQJCCCGEEEIIIQPBkIiocV2d1+Y8KeGlmIPrYhZhpKsNe1yN5J3LsLpSerYzYZEhWDnHCcKW5SdO4oFt9V2ulQ1a/BT+Fe3AHwkqkfLL2/j8YHfbKBNCCCGEEEIIGQj6IJiNxQMz78NINX/IVSStwRNpO9Cl4Zuc3fH+P/3FOWF1WWl4dn0FUqVnusQYzOprS6E5vQub1u9GZh1/khBCCCGEEEKIxenbYLZBB722CCcSP8LHJYldC2S54VFBuC+0DP/rZiBLCCGEEEIIIWTw6cNmxoQQQgghhBBCSM+wyHlmCSGEEEIIIYRc2CiYJYQQQgghhBBicSiYJYQQQgghhBBicSiYJYQQQgghhBBicSiYJYQQQgghhBBicSiYJYQQQgghhBBicSiYJYQQQgghhBBicSiYJYQQQgghhBBicSiYJYQQQgghhBBicSiYJYQQQgghhBBicSiYJYQQQgghhBBicSiYJYQQQgghhBBicSiYJeQcOfr64P0bPTGDPyZkQFI64qX/C8Et9vwxIYQQQsggMSQiatxZniYD0cIYbJ3lyR+0pE3cjflrqvmjAWrax5h8SQB/0FLt8TWI++Fn/siyKL088dq1vnBi6erEJCzbUis90ZGxQVh2SzgcxAeF2PpgPE50YbMBbVE07p/twRLVOP7RXvx9RFpNekHTvmZqMvDtQ6nQSI86YIuH/28ExgsnXX05NnyRjrU10jOEEEIIIZaOgtmBjoLZgUeo6fpnKIJsWbo0F2u+LMAO6ZlOuGPRuzHwE9OF2HRnPBLFdPuGPzEHl/jzBx2pScFXD2WiiD/sM70UzLrfHYsbRqj4o67q2j7te1bwusoPo6J9MFSfhrdfOMejZHozpDvH2/R8rWTn62ddPV8JIYQQQgY2amY80K2Lw+y7N5osx5DNn7IIu/6FfU/NMVk2opQ/ZZls8fi1PDCoL8HXXQ5kyYXLDsOnDcNwL3vI+Zo+VVOBZ9fnolxIO/jilgWOCBOfIIQQQgixbBTMEtINM2YFI0aqGkPc+iysF9eeAxZgdKt+riYLv726A5+0t7yd3fe1sr2o6IeDZr5nAvL589AkmHn+JE7xpwe9kupuHe8aTQHWHJZacdj4BeLWSJmYJoQQQgixZBTMEtJVzm5YNFIpJqtPZOCNzjsstlKN0nPur6hDZUoHS0Yj/7tBosBg5nsa0MCfhr6T5wejI9Wo5MlzEb83DXvEZhFyBE33w3xxLSGEEEKI5aJglpAuui7WB+LwO4YSbN5WDxpHh1gWAz7aVgixftbWFZfF9kujZ0IIIYSQHtO3A0DZ22HFP4difJAbXJTWfGUDdJVlSE08jXXrqrC9ndFdPcPtsXzecMT42UNtbWwiVw+tJh9x2zOwZrcOBXytqRWPzcVcv+bBkmbOCcTSWcEIcBA6PTJ6LUpz0rB2jQa/dzSyrPjZIzAl3IW9v/GzC+qhq6mFJikRN39axde1FTrGA8svC8VwVxVsjJ9feO+CPBzalIXVR7tas+aBT98eDWFIpe4MAOXpqcKtN0ZhvOn+E797Bjb+moePUqRVve9hDPvPXLiwVHcGgBoS9DC8L5kCby8123/Sukb2+avZscv9+12UZaZJK82xuwQOly5GQLgXVPY2Hd7BKd00B6d28QembJzx6h3B8GXJ8sPHcfteg7S+W5S46JUpGCVU7p6Jw+tdGAioaQCocxngqWnAID4wkoMdRt4+EpP87aESz4EG1FeU4Pimk9jzd8ffx3aSO6bMDcUwVyVsTX5/1TVWUIm/5b4YzdhkAK0u7j+JFRwu8cMlFwXBy9GW91uVvvupw6ew48e6Tmp0reC+KAAzxgWYbC9gr6GvQ2VJNnY8m4McvrbFce6yrgxe1fz9K0/uwSdvn8vtFDkevnEUxgs/wOpCfPhxDrZIT3RK7j8Py/5vGvwVQNXpdfjgs/1SP1xCCCGEkH7SZzWz41kgun7VDMwd7m0SyApksHFww/BJsVh6GV/VyhU3xuCz+2IxNdjJJJAV2ELtFYSpS2bhg4dcMZ6vNU+O+x+ajqfmRzQHsgJrNVyCo/HAY6ywy1e15jkxGD+In92zVSArsIWN0gkBnqyEZ5Ycy++bjA+WjUaMl0NzICsQ3ttvKOYum4kfblbB/JjF52/8zGF4+6mpmNV6/4nffSSuu2863p83UGtpxkF9/XeY8K+5CPRvDmQFVuzz27NjF/GvNzH8yqv52lacHkb4g49gxJgA2HcSyHZk+DgPMZAV+sqmJJ1LICuowd8Pbcbrd7LlXEe0PUeySX644flpmB3ixANZcS1sHT0w/pqpuLK9k5+dv0MficWdS2MwysveJJAV2PJAdgBT2GH0yqlYdvUw+LUIRKXvPmr2NNz2vB+82vv5KpSY8eJM3DA7vNX2AvYa1iq4e7ny6ZZ6WxF+FM4dtpxbICsw4OuECimpcsHMECnZOXvMmi8FsuKjoQtx/VyauJYQQggh/Uvm5uHzDE/3Gs85w/HG5f6QykEN0GpSseevBHy5OQM7U4rQaGiEo5Mautx0rE8S/6jJ+IUxeHSaJ2yEB/pypMYdx7ofTmPDgXxUsnK0u7sjFKx8bePsg0m+Gnx7VC9uZzRlahjCWEnTxt0Pw5yFgnctNIkJ+ObrZOzM0cI3yBOOwmqlM7zkGfi9zQgyjnj14Wj4CmV4fSV7/xPYyP7ol92Z2Cl8Bn0pKnRnIautwE+H2lbtLlg+EUsjeFG3pgBx+9l7/5KCLccL0KiwZp+fBWisUKzw8cZ4RRb7/p1VlKtw1WXe7FMBuqJsfHuo5fdtY0ww3r0hVPx71ORj27cHserDFLy+LQOa2gaEhbpCLbOGS6gLIjNysbVY3KoXxcLtojDxXDAUHGLHIllabZYn7K5ZjegoRwxhjxqrspF94E+k/74euSfyoJU7QOnpCGu2/+x8o6GoS0Bpjmn9/CXwXH4TfMUytxbFOz9HwpePInvzJuSm2KAhMAhOKuHA6lC8YQXiP38ZJWaHih6CRZMCECS8Tmk+PjpY02eDLblPC0WocPD0WmRlVKHBlQVQZhaZdQP0rSvpfZwweoyrEHIiJMYdwletrziD/b8dx5aNeShyVcHPVcECNBlcfAw4taUCdXxTI78HYjE/jFcx1uTh0O8J2PhnOo7ty0eOngVUTo5wsxN/HCg4egYZTSM09QYVhl/hJQWOlRrs39VZQGeFoSumYI6vcPXQo+jkMfy45iS2f5eOQ/GF0Aa7IMTRBnKlO8LDy3B4b+tvDwQ+MAWzvIUQVo/S9FTs2pKEHRsz2ffPwilNJQqq62BlpUPBjlKUSJsweuSl5ODEgSzx747tK4ZttA/cheuMMHDVB0l8velSiPzSRvRFM5mq0iGYMc6J7U0r2Bsq8HN6J9cQkR/Gzh4PT5P7gChJxJ6kMv6AEEIIIaTv9X4wqxCaZw6Hu1DeRSXivt2Nm78sw85MAzJLG5CZW4edcUX4YXM69mcC1aaVXmzblTcPk7atycVvbx/Dk9vrkCBsV6rDfmG7U6WYEuMLF1ZQtPFSIuBIPnaaFOqNwayIBZ4Hv96H5b9Ui69xOrMK61NqcWWsJwuuZFA3FuOrA/X8j7kxPrh1nKsYTGv2bmefvRZHC4T355/hpBZbDxSYDWQR6YfnjEF8STJee/4U3o6rx2lh24J67DykwbYcA2aNdRPf39FTBt3mEiSIG7enO8GsHM/eMR5iLFKTiW9WJuL1zEaIxU/DWaSll+OnU7WYy76/GnbwdS/F5/vaFuh7VjeCWa9/I+LKYBaMMWWHcOz1+1CeegwN2kw0lh9DbeKv0KREwmmcL/sbGZR+ASjd9ScLJbigOxEe68WCXXZeHX0DSX/8irPi+cVOkMoDqDrCArmJUbC3Zts6qZF7YLvwpBkOuOZiFzixlI5Fax90qfDfM5qCWWsnDJschNHtLOHuGhw72OpzNQWzkur0o/jiuTMsKDagnp27RfvzUTTUD5GuLFizAyoOa6AxDYjHBmHRHE9x+/ozcfjkqUykp+nYtg3i9mUJFUhlweykEGE+2AEYzF4UjgWTXcTfbv6+nfjmwxrU8e93tlKHwl1nkDPUB8NdrSF3VkJ2Og9nWswbpcTYhUHwFIPQk3j/hTwUiftO+P4N0KZVo/BYCZJbBLKShnLpb6TFCoFzA6TXKcvDjvVVJs8Zl74JZEUNDRgR6QFfdmBlshokHu/KzZkylDrGYEIAn/tXn4UdX29Edm9fLgghhBBCOtDrzYyj54UgTCjEMaVHjuCh3e33DS1oFQ96XhbIt9UjdXcCC8TE1S1lluHp3bn8gRsiZ/JkG0IgfQiPH+APjTIrkM3LxDYK02oHziS4VnvZI5Snu2LBrECxb6jw3ge/zTLbJ7fgeBY+jOdjlCo9MX6ilOwRkb6soC4lNcdT8JG5PsGZediTwYMgPw/cIqUGBLtpkZAaMpYi4+snUG+udW/OEzh1lEcgCn+4mU6g6e8s3UgQamWPbRJTLRg+RoWxJtpO3RT0teGsEANZQXmxuZ048AnB6Ff/K2kzaFXWGd7klO0pZ7EzajO/6QFS4KjPw9bXiixuwKuhY31Y+MuwwGvP5+abhuf8nsnnPXaC3+TWl8NGNBjvDzjYw894U8zi6VBkHBbZQYVwnuyM5o/X8NKn67Bzxzp8vOpt7KIOs4QQQgjpZ70ezE7xExu4MgWI/1bH011zpZ8xhChG2q88aUbB5mIYZ0lRu/Kag9Zy0vBQ60C2K47nIpFXu6jDY/HB6hi8stAe4zvtLmaFaE+1lKzUYE+r5tOmNh0vZuGWQAGvIDHRIzxHOTcF05rj7d9E0NTy2mhrNfx7q+Nut42CvTfff1VnUNbBNDj6E2d481g1FN4mXyC/rGm922gznULl/4KjG0/XadGqTr6ZjO0anqyp77vx0loQBoDi/SXNLR33oazGqY3dDUbtEGpsU1pSjNMWF8Mr4efFj5qmxGRwplZSmkeldnFt/aOuw/EUHrEpg7HopVgsutsdXn59NtRAr0kp41WqclnTjZrOGaBN2Y/NG/cjk2pkCSGEEDIA9HKpzAqeDrxAWVOBxG4WiF2MNaU1VUiVUubVVkHDS6Rqh3aC2XOmw+Of7kdiJR/vVOmJmFmxeHHVxfjzhbF460ZHXGI2sFVALVULsliyGr/zpFnHq3gw20Ewfg6mNL2WA2Jum4utb5tf7hrOg0YWwKilUY4GgFBY2/Fkuab9QFOQWdoUkCi8YnmKSd2EPN6lTzXmToTPWQyZ+JqeGOJ3H3yWL4A3P0alx37qu2aeFkEBB95Vtr7SEiMXFVyMown7j8H9785pZ+GjIzO2CrFnfgtlHx/Dz6eNo5Sr4DciBkv+PRv3vzkJix/wRuBwyw9sCSGEEEIsVS+XxGygNlZpWbLMCtzzxBb859t4xGkqWXgrMI7CPAmPrpqC9+fZ9NpoxH3HAF37swtZoE0oPKSBVCethtv0WzDh35sx+T9fYtLtVyDQXQpeqpN+Ququ42KaGMlhy3+7Bn3f9RHuTwa9uabIBmS9th+vv7oPW08WolTPb2pZ28N7aBSuvmcmlj3iCgfjjStCCCGEENJnejmYrUOBsW+WtQpePNltSnuYdoVsQ2EPL14Lo61sPaRrz9m+W4OHnt+HS+/ejMe+OIiDOU31qQi7ZDxWjOEPRazQaywbO6hwBU+aNcqevYKktKDnPn9prfEDlOPgGxsx++7OlgN4vM/mm+2MSZN0J6/2+7MKglxgrISr1ZjMW6t+GGGzvNhJrkNZSiqqqnQ8sGX0OtQWpSL1q//i+NfvdjLPaDOlrTCu8oWgGqW8ulvVUWuHAXuzyoB6HoMb0g+bbZrdenn7fx2MzJuixYm34/H5vX/jrf/uw2+H8yBd2mRwCBmDRf8ynoGWIdyBN3uo16FQShFCCCGEWJxebyOXWskDPmsPRM+Tkl11sMA4wogbQjvYNnqeLw+U9dCk9F4w26wRhw6U4fEX9+D6HzN52MUC2rHGdrGCOqSV8NK0gxemREpJc5ZM8ubBbDk0PVhBuD2jnH82J3iNEhPnyQ4Rl9+NB596Dg/ecS1Gd72z3Tn4A1rj4Ez2/nDu4E6IckKkMBgvU4pyk2DcetZ4uAnBVlUSMj+/EwmrL8eBp+Zgn7A8dzni3rwTRcntjWBsori2abRXJ7cLpQqOBYPGbgGuKrjzZAvB7lg02YM/GGgqkMNvpMm9HM1//nPUkKNF2scn8cmDB5HIA34HPw84S8mOWQ+EZslyOBq7RpTWIJ4nO2fHriNTMSc2Gl6mlzpCCCGEkH7S6yWrn7bl8NFCrRE2KwYrOhjgyLNVnLB9d27ztpPCscRc39QgD9w/iY/iU5OLbZulZF8pSKrin5GxFucfarLmuIYHkw6Ime+FmWbiIM+JwbgunD+hycK3PVkzuj0PqbywHTC1430vaL3/W1PPvQM3TAmEs0IB54DxWHDrgnOvbe+CymOpvHLbBf7znoC1MN1na2EvIyyS93XMj0ehyUBRKm9p+KvzV4NcfpBt/Oxh0it3ENPhtHGeHqUfRl8kJZsEO+KS22PgN2BrZhuReJLfDVGG48q7O6k5PZd7FLVVKDIG/Gw/mDs9JTXNowe7emFkME/3G3uhMYOourgaeVKyU17zH8BdS+Zj+hU34q7H78a0Xr2ZRQghhBDSud6fZ7a4Au6RgRjuzAI9mRphsV6YFdSAYKt62CllCPJT49rLgrD8+tGYpUzHetNRf0sr0RDkhQlC30ZbZ4yd4YYpPjVQVzfCzVWJq+YPxeOLhvI5bPVI3XAYL6aLWzZpmme2UoPPd5urtbXB3DkBEAc+NfM3C26diBfnu2MKK4COdR8CK/ZeQa7scwvvf5kvbr96GHzF2hYtEn9LwybTeTbTyxA8xh/BahlkDl6YMdUe0S61sNGdhQ/73jcuGYV7Z/nxcnQ5Dq49ha+MtZFcqK8Nor2E9zMuakyYJMwLy8KNcg00pY3NzynOIrPKdBgjHYpd7HFxIPtrvu/nhlshTFEPa/aZg1ytcfEsD9xw2VDcde0ITLFttf9bmThnoTTnqZGiEeVbDyKbPzRniNNMWDsFsbc3LkPhMiFA/M4NpWdQUqRufk4uQ2OdSVNPTQHqIy+GMMislWMwvMbOxFmlO3Q1jrBymw3nyx7E8IulOWuFWtn0z++D1tjymzkbsADe3sK54wXXkeNhcBgNReg0KF19YGh0N/+eZjVC5uqMSZ4sXLGVQ3a6GHv7aEykpnlm9VpkZVShgR1nW3OL41nUl7cawqppntkO5oAd7tXuPLE12rMYOtGd7V9ruI/wgLOiHIV6K3hdMQwLl0TAz44FQyXF0CuV7Fc08OaZbUirhHKaNL+rrUcARk9TwcFHj9qaRlgJ+2yoA4bODcD0hZG46CIrZGwpbzni89gA3PDwUAwbwY55sBWs6vl2bHEe54EJN47ERA/pRkrl6WTsaT3Pr4kKH0eMD2QBtUyFkAnOcHCqQWX9WciNx891CAx9NNesMtIH/wwVqlb1SNmdhx1d7Cc/etb85t+/zAke6jTsOdnZb4cQQgghpPcMiYga1/vlJ4UN7l8+CVcGd1z9kb1tI25exx80kWPFY1Mx16+jXpP1yN61F499p0MBX2O04rG5bFuWyDmG2S+a6x2mwiurpyJGqLgx8zcLlk8xGe23PfXQ7N+PB7+sa/P+ULDXf2oyYhxa1tq2JMyBe8DsHLxNn78r2vmOC26djLuiO58k0/z+b+a18HHcNdaktrM2AV/9Zy2S+UNznG/bjAh//qAzZzZi3wcv8wec/Gr43LscgR224SxF1ldPIC85jT/m1Hci+N4F8Oqs1o0FimVJm5D287swOwaQwNkd7//TX5zGpDoxCcu29M1cNcOfmINLurL/hKl7Hspsag4tGhuEZbeEs+CvGsc/2ou/j/D1phZF4/7ZQlNh83/jfvsk3BBjdrhuce7atRtVWNLZe/QYdywyjj7M3vv1F1p8W/OC3XHVAzEI6qwGuSIFax/LRIvQrGn/daxek4BvV+ejrKNTQqHEjJWTMNqxvetAITbdGY9E/qj3DMEt14zGHG+WrC7Ehx/nYIv0RKecLn8ED00xaVaevQFPvbeNPyCEEEII6Xt904GrVofXX9mJB784Jo0GbBwRVKSHtiQfcdt24/UNfFULBqx+cTv+8+0JpJZoebNdTl8JTcoJfPPGdtxsJpDtCWmJWUjVlEOrr2/53mhg36P5/W8wF8gKaqvx0BN/47Vtp5FdafoabPuacmQnHsNrj+8zG8j2lJ8+3IfbPmH7Pkf4Hqb73uQ7vLO5w0BWoFn/Ew7m8RJ7bS4OfvtVh4FsjzD8jLxX78DRDfEoLdM1jaklMFSVovj4Rhz97+K2gaygToMabfMe17HzUFxaV6BZq+E8agFilj3MivrtKCvGIV7rqBrqjaW8ZfNgV/T+fnzycwrya4w7rQGGikIc37oLH7BgsuO60QEgowi/PLoDP+7LQn5FfYvzB+w3XV2iYd9lD959tlUgK8gpw6n0QhTV1KO+xe+GYduWarKw++sdbNtOAllBbQ12PLsbv8Vp2Ou1X4Pb63x9ESsEskxhkqbLgayg/I+PsCmvHz87IYQQQkgrfVMzS0ifGwWn21Yh0l+IOrXI/ephZLcJeEMhi1iMsAWz4CLW3pYi/Z3FKDDpd9uCmyc+ud4XQqPc6sRk3L2lZuAHc4Q0keHOa6Ixk9fKfvZxDv6Unugy+fT7sfIf0mTUVfHvYvV3rfp1EEIIIYT0oYEwtCYhPc9rCfzEQBbQJf1uJpAVpKEh+QWkHjMO4WUDWUejtBYX4IfEejGpGh6Mh6UyPSEWISwmSApkYUDmztxuB7JCl4/RQ43NjCuRcZACWUIIIYT0LwpmyeBkZ9M0umyjvmm8aTM8Yd806rEW+lYDcLX255ZUxIkj09pixBUhWGpZ04uSC5TSyxOPTJdGb9KlpePZlO40yJFD7R+NS+94GvNCpM7H+vTN+DlDTBJCCCGE9JveH82YkP5QHgrVtEioZKwo7hkJhZ0a1eUNaKjhPZvloyAb+k94X7scYbwG15CxCSkHDovp9jXgqKYRM0c4wE5uh/CwRhTFVSOLP0vIgKN0xPPXBsJLuLtTmYv3fyhDqvRM54JvwIoVN+Ki8aPg7ygFslWn12HNJ/upiT0hhBBC+h31mSWDlmz8uxg1LwwdtRw20uXvQcIHz6C+vdGMWxFqul671lca3fj0aTz6l7blSMKEDAg2uPfGKEwRGh/Ul2LDF5lY250oVAhmb42Bvb4WZfmnsG/jOuzL6KN5qQghhBBCOkHBLBnc1FfD+dIr4BvsBYV9c9NjgaFWi1pNGnL/fhdlmeb61HYsLMAP902pw4/fFGMHX0fIQKO0d8bKhY5I/L6bgSwhhBBCyABHwSwhhBBCCCGEEItDA0ARQgghhBBCCLE4FMwSQgghhBBCCLE4FMwSQgghhBBCCLE4FMwSQgghhBBCCLE4FMwSQgghhBBCCLE4FMwSQgghhBBCCLE4FMwSQgghhBBCCLE4FMwSQgghhBBCCLE4FMwSQgghhBBCCLE4FMwSQgghhBBCCLE4FMwSQgghhBBCCLE4FMwSQgghhBBCCLE4FMwSQgghhBBCCLEwwP8DyU3jGcy/efMAAAAASUVORK5CYII=;fillColor=#182E3E;strokeColor=#FFFFFF;fontColor=#FFFFFF;" vertex="1" parent="1">
          <mxGeometry x="1" y="-254" width="376.79" height="150" as="geometry" />
        </mxCell>
        <mxCell id="vqdaA2ue3KJg4ac-L1NZ-2" value="Event Loop Mechanism for this code" style="text;strokeColor=none;fillColor=none;html=1;align=center;verticalAlign=middle;whiteSpace=wrap;rounded=0;fontSize=25;fontStyle=1;fontColor=#FFFFFF;fontFamily=Lucida Console;labelBackgroundColor=none;" vertex="1" parent="1">
          <mxGeometry x="-146.61" y="-104" width="672" height="66" as="geometry" />
        </mxCell>
        <mxCell id="vqdaA2ue3KJg4ac-L1NZ-9" value="" style="edgeStyle=orthogonalEdgeStyle;rounded=0;orthogonalLoop=1;jettySize=auto;html=1;strokeColor=#23445D;strokeWidth=2;labelBackgroundColor=none;fontColor=default;" edge="1" parent="1" source="vqdaA2ue3KJg4ac-L1NZ-4" target="vqdaA2ue3KJg4ac-L1NZ-8">
          <mxGeometry relative="1" as="geometry" />
        </mxCell>
        <mxCell id="vqdaA2ue3KJg4ac-L1NZ-4" value="Start" style="strokeWidth=2;html=1;shape=mxgraph.flowchart.start_1;whiteSpace=wrap;strokeColor=none;fontColor=#FFFFFF;fillColor=#182E3E;fontFamily=Rubik;fontSource=https%3A%2F%2Ffonts.googleapis.com%2Fcss%3Ffamily%3DRubik;fontSize=15;labelBackgroundColor=none;" vertex="1" parent="1">
          <mxGeometry x="-229" y="-23" width="100" height="60" as="geometry" />
        </mxCell>
        <mxCell id="vqdaA2ue3KJg4ac-L1NZ-13" value="" style="edgeStyle=orthogonalEdgeStyle;rounded=0;orthogonalLoop=1;jettySize=auto;html=1;strokeColor=#23445D;fontSize=12;strokeWidth=2;labelBackgroundColor=none;fontColor=default;" edge="1" parent="1" source="vqdaA2ue3KJg4ac-L1NZ-8" target="vqdaA2ue3KJg4ac-L1NZ-12">
          <mxGeometry relative="1" as="geometry" />
        </mxCell>
        <mxCell id="vqdaA2ue3KJg4ac-L1NZ-8" value="Start Test" style="strokeWidth=2;html=1;shape=mxgraph.flowchart.display;whiteSpace=wrap;strokeColor=none;fontColor=#FFFFFF;fillColor=#182E3E;fontFamily=Rubik;fontSource=https%3A%2F%2Ffonts.googleapis.com%2Fcss%3Ffamily%3DRubik;fontSize=15;labelBackgroundColor=none;" vertex="1" parent="1">
          <mxGeometry x="-65" y="-28" width="148" height="70" as="geometry" />
        </mxCell>
        <mxCell id="vqdaA2ue3KJg4ac-L1NZ-18" value="" style="edgeStyle=orthogonalEdgeStyle;rounded=0;orthogonalLoop=1;jettySize=auto;html=1;strokeColor=#23445D;labelBackgroundColor=none;fontColor=default;strokeWidth=2;" edge="1" parent="1" source="vqdaA2ue3KJg4ac-L1NZ-12" target="vqdaA2ue3KJg4ac-L1NZ-17">
          <mxGeometry relative="1" as="geometry" />
        </mxCell>
        <mxCell id="vqdaA2ue3KJg4ac-L1NZ-12" value="Delay for 0 seconds" style="strokeWidth=2;html=1;shape=mxgraph.flowchart.delay;whiteSpace=wrap;strokeColor=none;fontColor=#FFFFFF;fillColor=#182E3E;fontSize=15;labelBackgroundColor=none;" vertex="1" parent="1">
          <mxGeometry x="98" y="55" width="121" height="60" as="geometry" />
        </mxCell>
        <mxCell id="vqdaA2ue3KJg4ac-L1NZ-17" value="" style="verticalLabelPosition=bottom;verticalAlign=top;html=1;shape=mxgraph.flowchart.parallel_mode;pointerEvents=1;strokeColor=#FFFFFF;fontColor=#FFFFFF;fillColor=#182E3E;labelBackgroundColor=none;" vertex="1" parent="1">
          <mxGeometry x="268" y="65" width="95" height="40" as="geometry" />
        </mxCell>
        <mxCell id="vqdaA2ue3KJg4ac-L1NZ-21" value="&lt;p style=&quot;line-height: 120%;&quot;&gt;Register a Timeout Task in Web APIs environment&lt;/p&gt;" style="text;strokeColor=none;fillColor=none;html=1;align=center;verticalAlign=middle;rounded=0;fontSize=14;fontColor=#FFFFFF;fontStyle=1;fontFamily=Rubik;fontSource=https%3A%2F%2Ffonts.googleapis.com%2Fcss%3Ffamily%3DRubik;whiteSpace=wrap;labelBorderColor=none;labelBackgroundColor=#FF8787;glass=0;shadow=0;spacing=2;" vertex="1" parent="1">
          <mxGeometry x="221" y="-2" width="189" height="57" as="geometry" />
        </mxCell>
        <mxCell id="vqdaA2ue3KJg4ac-L1NZ-46" value="" style="shape=stencil(fZbdcgIhDIWfZm8zQAg/17Z9j85U606tdqz9e/tmZ0c0uJ47xP0I5JwEBl59bp8/1kNwn6fj4W39M76ctgM/DCGM++36OJ50NPDjwKvN4bh+PR6+9i/z74/n6ctp9H74nlb4nbmSKZeJCu5vngmZ6jzzNAO7cX8FVKEsBuBKrgKg9oAE8gkCbLeUhEoEQKSUDZDLeWYRKIl8MEDRmHwfyBrBG6Amyu4+kDxxMoB3jhwgYu7TVAsVkFcWCs4CTBEoF4RctKeOxHIf8IXYpikHikAIf+MNUW94AGSSaoAoFIE3AlOyeWU+p2E5S9yfQZcQILVuQOwZdJNoS9Ls3wA5u2XZTIHECqeJ9kDpSaauRiNVcAY1QhdBzeLBli5WazpkSsBLV25uRaqWRyFawTQzRRIQYirJzq5atkBqLfouwqUxLBepthWb10vrWZY6UOAeyKCCtDV625mm9gmUC4Wc3VLJMMIE1BsA2FW9JraVlQB7n3c9oMKhCLEvIM1zBPZ25/umNQ1tVEC2G+fFCC8g398O2hNQuQlVu752DBfA+q0ptnqO5JFmeuIuo9DY7KjY71UxdJV4EntifPWorW++R/dC4t7V3DlIB5cHx2bc7eb3yvX//QNFp+bHDT/+Aw==);lineShape=1;strokeColor=#FFFFFF;fontSize=16;fontColor=#FFFFFF;fillColor=#182E3E;" vertex="1" parent="1">
          <mxGeometry x="773.8679608424759" y="81.87531245851915" width="4.672539772115215" height="4.665236216357698" as="geometry" />
        </mxCell>
      </root>
    </mxGraphModel>
  </diagram>
</mxfile>
